<?xml version="1.0" encoding="UTF-8"?>
<svg version="1.1" xmlns="http://www.w3.org/2000/svg" width="1024" height="1024">
<path d="M0 0 C337.92 0 675.84 0 1024 0 C1024 337.92 1024 675.84 1024 1024 C686.08 1024 348.16 1024 0 1024 C0 686.08 0 348.16 0 0 Z " fill="#C8E2EB" transform="translate(0,0)"/>
<path d="M0 0 C12.22817745 8.19057169 19.33569725 29.85318311 22.37890625 43.74609375 C22.58386719 44.81988281 22.78882813 45.89367187 23 47 C23.13390137 47.66660645 23.26780273 48.33321289 23.40576172 49.02001953 C25.75986606 60.96531165 26.44714263 72.53619356 26.06494141 84.69628906 C26.01020527 86.63798154 26.00525826 88.58098441 26.01171875 90.5234375 C25.4651281 113.82545991 15.03857436 138.76261367 4 159 C3.49210937 159.94488281 2.98421875 160.88976562 2.4609375 161.86328125 C-1.25609464 168.5134217 -5.52156659 174.60566345 -10.0793457 180.69213867 C-12.49983201 183.92772532 -14.80293506 187.14970121 -16.875 190.625 C-18.97017359 193.95262864 -21.16136225 196.30329414 -24 199 C-24.90690988 200.09508715 -25.80275257 201.19943065 -26.6875 202.3125 C-27.450625 203.199375 -28.21375 204.08625 -29 205 C-29.66 205 -30.32 205 -31 205 C-31.268125 205.598125 -31.53625 206.19625 -31.8125 206.8125 C-32.99917406 208.99847854 -34.09599113 210.41332594 -36 212 C-36.66 212 -37.32 212 -38 212 C-38.22042969 212.5671875 -38.44085937 213.134375 -38.66796875 213.71875 C-40.41557392 216.71171604 -42.5983032 218.3550867 -45.3125 220.5 C-46.25738281 221.2528125 -47.20226562 222.005625 -48.17578125 222.78125 C-49.10777344 223.5134375 -50.03976562 224.245625 -51 225 C-51.90105469 225.7528125 -52.80210937 226.505625 -53.73046875 227.28125 C-56 229 -56 229 -58 229 C-57.8570752 229.84755859 -57.71415039 230.69511719 -57.56689453 231.56835938 C-55.59749403 244.86740278 -55.77588608 258.08221923 -55.875 271.5 C-55.88505407 273.88411081 -55.89417561 276.26822574 -55.90234375 278.65234375 C-55.92415517 284.43498732 -55.95743885 290.21747383 -56 296 C-55.32425934 295.64595093 -54.64851868 295.29190186 -53.95230103 294.92712402 C-52.61393692 294.23906677 -52.61393692 294.23906677 -51.24853516 293.53710938 C-50.36654449 293.0799353 -49.48455383 292.62276123 -48.57583618 292.1517334 C-41.95148823 289.1897893 -33.30303977 289.92790933 -26.5 292.125 C-18.61506509 296.34907227 -13.9115113 301.39544427 -11 310 C-10.09372499 315.79638395 -11.37359989 320.41186644 -13 326 C-12.08624603 325.99111755 -11.17249207 325.98223511 -10.23104858 325.9730835 C-1.60930884 325.89285261 7.01230507 325.83199237 15.63433266 325.79275131 C20.06676822 325.77189861 24.49889467 325.74362367 28.93115234 325.69824219 C33.21055504 325.65470123 37.48966088 325.63084546 41.76926804 325.62049103 C43.39993333 325.61311441 45.03058284 325.5987094 46.66112137 325.57707977 C48.94972777 325.54793491 51.23711604 325.54404844 53.52587891 325.54589844 C54.82715729 325.53701599 56.12843567 325.52813354 57.46914673 325.51898193 C61.63633952 326.08669032 63.75789181 327.36627336 67 330 C69.4486325 333.67294875 69.83183438 336.73268965 69 341 C66.46546343 344.21954645 64.88702695 345.70432435 61 347 C59.19957896 347.10088849 57.39566923 347.14362189 55.592453 347.15390015 C54.46950333 347.16250061 53.34655365 347.17110107 52.1895752 347.17996216 C50.3403949 347.18635208 50.3403949 347.18635208 48.45385742 347.19287109 C47.15607864 347.20104858 45.85829987 347.20922607 44.52119446 347.21765137 C40.21597361 347.24384259 35.91074317 347.25917491 31.60546875 347.2734375 C30.12251594 347.27879815 28.63956318 347.28417566 27.15661049 347.28956985 C20.98781139 347.31119327 14.81901488 347.32992993 8.65018749 347.34119225 C-0.18661738 347.35743257 -9.02298266 347.39061796 -17.85962182 347.44759309 C-24.07543595 347.48630249 -30.29113255 347.50582601 -36.50706404 347.51111281 C-40.21859655 347.51476462 -43.92965989 347.52676697 -47.64106178 347.55921555 C-51.78286485 347.59490905 -55.92372361 347.59092287 -60.06567383 347.58349609 C-61.90574509 347.6081041 -61.90574509 347.6081041 -63.7829895 347.63320923 C-73.04934867 347.56508 -73.04934867 347.56508 -76.73808289 344.67446899 C-79.61671169 341.27080604 -80.15350368 339.45160668 -80 335 C-78.76162805 331.61329217 -77.10862563 328.84102634 -74.1875 326.625 C-71.16719118 325.76205462 -68.10838296 325.4260037 -65 325 C-75.04429222 303.78143268 -90.76833872 279.04227823 -111 266 C-116.4861037 266.36574025 -122.22542788 270.22542788 -126 274 C-130.18043962 280.41785801 -131.82177219 286.38481178 -132 294 C-130.906875 293.484375 -129.81375 292.96875 -128.6875 292.4375 C-122.52924222 290.16351435 -116.64782191 290.71926002 -110.5078125 292.875 C-104.47920666 295.79796041 -100.97888774 300.0528634 -98 306 C-96.84638437 309.74394276 -96.66206816 313.07999064 -97 317 C-99.02666238 320.70390021 -100.48044516 322.65363011 -104 325 C-110.32258065 325.4516129 -110.32258065 325.4516129 -114 323 C-114.68390664 320.70891274 -115.00710854 318.45438684 -115.375 316.09375 C-115.86887498 313.62618936 -115.86887498 313.62618936 -119 312 C-122.502304 311.55289736 -124.33244416 311.59595305 -127.375 313.4375 C-129.76173366 317.20119538 -129.33387931 320.65956893 -129 325 C-128.11248047 325.12955078 -128.11248047 325.12955078 -127.20703125 325.26171875 C-121.65855945 326.24831488 -118.65250778 327.43436527 -115 332 C-113.54852097 334.90295805 -113.62760975 336.77261779 -114 340 C-116.05303624 343.43229611 -118.12865724 345.70955241 -122 347 C-123.72442489 347.1004807 -125.45244471 347.14358777 -127.17976379 347.15390015 C-128.78846092 347.16680084 -128.78846092 347.16680084 -130.42965698 347.17996216 C-132.19468063 347.18635208 -132.19468063 347.18635208 -133.99536133 347.19287109 C-135.23461868 347.20104858 -136.47387604 347.20922607 -137.75068665 347.21765137 C-141.86113156 347.24251139 -145.97153973 347.25917451 -150.08203125 347.2734375 C-151.49812005 347.27879834 -152.91420879 347.28417585 -154.33029747 347.28956985 C-160.22115732 347.3111927 -166.11201446 347.32992918 -172.00290394 347.34119225 C-180.44033961 347.35743154 -188.87731483 347.39061492 -197.31457692 347.44759309 C-203.25013859 347.48630836 -209.18557717 347.5058267 -215.12126178 347.51111281 C-218.66512974 347.51476386 -222.20850622 347.52675779 -225.75223732 347.55921555 C-229.70711368 347.59492093 -233.66141306 347.59092121 -237.61645508 347.58349609 C-238.78706482 347.59990143 -239.95767456 347.61630676 -241.16375732 347.63320923 C-250.01466097 347.56509522 -250.01466097 347.56509522 -253.71147156 344.58853149 C-256.41180138 341.5342156 -256.9302675 340.73916455 -257.3125 336.6875 C-256.9475203 332.38073959 -256.06016472 330.97516014 -253 328 C-250.0730888 326.2362541 -247.93236028 325.75135799 -244.53277588 325.75949097 C-243.64379105 325.75674164 -242.75480621 325.75399231 -241.83888245 325.75115967 C-240.871436 325.75835022 -239.90398956 325.76554077 -238.90722656 325.77294922 C-237.88251755 325.77265717 -236.85780853 325.77236511 -235.80204773 325.77206421 C-232.4148207 325.77345761 -229.02781361 325.78901954 -225.640625 325.8046875 C-223.29221721 325.80841759 -220.94380786 325.81126458 -218.59539795 325.81326294 C-212.41399846 325.82089972 -206.23269293 325.84054869 -200.05133057 325.8626709 C-193.74386872 325.8831283 -187.4363917 325.89226444 -181.12890625 325.90234375 C-168.75256288 325.92379446 -156.37628925 325.95793103 -144 326 C-144.29245605 325.28980713 -144.58491211 324.57961426 -144.88623047 323.84790039 C-146.22326936 320.58910013 -147.54919278 317.32588498 -148.875 314.0625 C-149.33519531 312.94552734 -149.79539062 311.82855469 -150.26953125 310.67773438 C-155.57558541 297.56639765 -159.02482798 283.05986847 -154.5 269.125 C-150.25459667 259.32333196 -143.78371555 251.95747374 -135 246 C-138.49359465 242.40365256 -142.11098131 239.16548033 -146 236 C-149.18292674 237.44177127 -151.99295976 239.30081572 -154.86987305 241.27368164 C-166.57218259 249.29556089 -178.71639714 256.10357359 -191.5625 262.125 C-192.39547607 262.5279126 -193.22845215 262.9308252 -194.08666992 263.34594727 C-199.1204818 265.63533772 -202.45907599 266.54746526 -208 265 C-210 263.3125 -210 263.3125 -211 261 C-211.05205745 257.76297324 -210.5854598 255.71201199 -208.51025391 253.18823242 C-206.50160971 251.19794263 -204.43201184 249.30920355 -202.3125 247.4375 C-201.60416016 246.79103516 -200.89582031 246.14457031 -200.16601562 245.47851562 C-197.06310974 242.66211998 -193.91956755 239.91152223 -190.6796875 237.25390625 C-188.49583173 235.41704797 -186.64889204 233.66625334 -184.8125 231.5 C-184.2246875 230.8090625 -183.636875 230.118125 -183.03125 229.40625 C-182.3609375 228.6121875 -181.690625 227.818125 -181 227 C-180.1853125 226.0615625 -179.370625 225.123125 -178.53125 224.15625 C-159.50535748 202.1529966 -141.71019479 177.63381954 -132 150 C-131.61811523 148.92637207 -131.23623047 147.85274414 -130.84277344 146.74658203 C-125.41430291 131.36865927 -120.4615874 116.17401129 -118 100 C-117.78988281 98.74960937 -117.57976562 97.49921875 -117.36328125 96.2109375 C-115.38991909 82.91523501 -115.34783371 69.41563527 -115 56 C-104.82262594 66.13922206 -104.82262594 66.13922206 -102.0625 71.5 C-99.98265864 75.48559909 -96.87651738 78.26615448 -93.609375 81.30078125 C-92 83 -92 83 -92 85 C-91.42378906 85.25136719 -90.84757813 85.50273438 -90.25390625 85.76171875 C-87.71780865 87.15503407 -86.00446921 88.79189272 -83.9375 90.8125 C-76.30887161 97.64466474 -68.60394208 101.0204287 -58.2578125 100.53125 C-43.22821744 98.08038078 -31.07111172 84.48217511 -22.30029297 72.83544922 C-13.92881698 61.01855915 -6.78264273 50.82632136 -8 36 C-8.7366628 33.41455121 -9.76336998 31.42569735 -11 29 C-11.55624882 27.0249136 -12.00501666 25.04028948 -12.45703125 23.0390625 C-13.02639537 20.90087494 -13.81988683 18.97109106 -14.6875 16.9375 C-16.21079037 12.94569804 -16.23642881 10.17294723 -15 6 C-10.98386926 -0.41425197 -7.33096264 -1.6431468 0 0 Z " fill="#07324C" transform="translate(615,444)"/>
<path d="M0 0 C2.48394643 1.2872273 3.3429489 2.62157786 4.8046875 5 C5.3203125 5.82113281 5.8359375 6.64226562 6.3671875 7.48828125 C6.8828125 8.31714844 7.3984375 9.14601563 7.9296875 10 C8.88438598 11.39832195 9.84269811 12.79418385 10.8046875 14.1875 C17.07746705 23.62136531 22.58868168 33.53143723 26.9296875 44 C27.27644531 44.79921875 27.62320313 45.5984375 27.98046875 46.421875 C36.8127724 68.38327867 37.90032142 93.90498369 33.9296875 117 C33.74664062 118.09183594 33.56359375 119.18367187 33.375 120.30859375 C31.29856612 131.19064536 27.64893095 141.58655745 23.9296875 152 C23.54039062 153.09183594 23.15109375 154.18367187 22.75 155.30859375 C17.33763925 169.23455846 9.65511741 182.60913022 0.21875 194.17578125 C-0.53664063 195.10777344 -1.29203125 196.03976562 -2.0703125 197 C-2.52269287 197.45624756 -2.97507324 197.91249512 -3.44116211 198.38256836 C-8.64429965 204.23969783 -7.85315576 211.50444307 -7.8828125 218.9375 C-7.90598569 220.30277381 -7.93135687 221.66801218 -7.95898438 223.03320312 C-8.01768682 226.35576165 -8.05409347 229.67700746 -8.0703125 233 C11.9330013 226.55773888 23.82986229 199.62082474 32.98876953 181.95751953 C38.71311541 170.67299566 42.96416815 158.99954163 46.9296875 147 C47.25646484 146.06462402 47.58324219 145.12924805 47.91992188 144.16552734 C51.92454135 131.61139386 52.40831468 119.10321821 52.32080078 106.0378418 C52.30476476 103.2011667 52.32071543 100.36592825 52.33984375 97.52929688 C52.36019492 80.69668514 50.35948111 64.98085095 44.91796875 49.02734375 C43.9296875 46 43.9296875 46 43.9296875 44 C50.42513904 43.53603918 54.44646137 44.49161789 59.9296875 48 C60.53941406 48.38929688 61.14914062 48.77859375 61.77734375 49.1796875 C70.33641781 55.5378568 73.94644078 66.89828288 75.9296875 77 C76.73367542 82.615814 77.11179993 88.08846137 77.16796875 93.7578125 C77.17767197 94.57536011 77.18737518 95.39290771 77.19737244 96.23522949 C77.22219086 98.86520343 77.23488355 101.49492083 77.2421875 104.125 C77.24611511 105.46942169 77.24611511 105.46942169 77.25012207 106.84100342 C77.26152876 143.24218827 66.17257041 179.54332497 47.9296875 211 C47.2696875 211 46.6096875 211 45.9296875 211 C45.6615625 211.721875 45.3934375 212.44375 45.1171875 213.1875 C40.93265709 223.09822993 33.55548482 231.6184709 26.9296875 240 C26.23617187 240.88945313 25.54265625 241.77890625 24.828125 242.6953125 C18.48475628 250.75720343 11.93563023 258.55492438 4.06640625 265.171875 C1.59158132 267.28927548 -0.75904405 269.51999006 -3.1328125 271.75 C-13.10655835 280.78359767 -24.00570532 288.16352628 -35.5078125 295.125 C-36.43118408 295.69387939 -37.35455566 296.26275879 -38.3059082 296.84887695 C-43.66991235 300.02281806 -47.79510648 301.87973111 -54.0703125 302 C-56.0703125 300.9375 -56.0703125 300.9375 -57.0703125 299 C-57.6181684 293.78015069 -56.03777142 290.38494148 -53.5703125 285.9375 C-48.49283658 276.29783656 -44.72506602 266.24882533 -41.0703125 256 C-40.4515625 254.29070312 -40.4515625 254.29070312 -39.8203125 252.546875 C-30.84377291 225.75751465 -32.52540891 202.10893681 -39.9296875 175.3125 C-41.4906586 169.53406881 -42.83654168 163.70360706 -44.1953125 157.875 C-44.44909668 156.80233887 -44.70288086 155.72967773 -44.96435547 154.62451172 C-47.67951794 142.88273508 -49.46343017 131.44498842 -49.4453125 119.375 C-49.44370117 118.22418945 -49.44208984 117.07337891 -49.44042969 115.88769531 C-49.1947133 98.13348214 -46.62104005 79.90626525 -41.0703125 63 C-40.66296875 61.75089844 -40.255625 60.50179687 -39.8359375 59.21484375 C-32.71431981 38.45504497 -21.27630782 19.79766829 -6.0703125 4 C-5.40773438 3.22914063 -4.74515625 2.45828125 -4.0625 1.6640625 C-2.0703125 0 -2.0703125 0 0 0 Z " fill="#08334D" transform="translate(405.0703125,407)"/>
<path d="M0 0 C0.66 0 1.32 0 2 0 C3.41015625 1.6875 3.41015625 1.6875 5.0625 4 C13.77314159 15.39359074 24.85618163 22.71716879 39.265625 24.7578125 C56.83362351 26.31383523 74.02478777 21.92706915 91.15429688 18.54077148 C97.87981101 17.26271608 104.16514653 16.81697893 111 16.8125 C111.95261719 16.80025391 112.90523437 16.78800781 113.88671875 16.77539062 C125.44832087 16.75223655 136.53009969 18.79935981 147.78076172 21.31079102 C167.86005902 25.78164537 187.05349675 28.31104615 205.4140625 16.81640625 C210.42156278 13.56897491 210.42156278 13.56897491 214 9 C214.66 9 215.32 9 216 9 C216.268125 8.4225 216.53625 7.845 216.8125 7.25 C218.0388622 4.92636635 219.24843434 2.96175354 221 1 C221.99 1 222.98 1 224 1 C228.01525119 8.99825137 227.04048146 20.19661227 225.1953125 28.71484375 C222.32351432 36.88461443 217.45710165 43.36166526 212 50 C211.35160156 50.8353125 210.70320312 51.670625 210.03515625 52.53125 C200.611204 63.96299247 187.78942822 70.4664611 174.3828125 76.109375 C169.13246518 78.32562516 164.13314924 80.96159644 159.11328125 83.65234375 C155.71109547 85.12505905 152.67546892 85.63476472 149 86 C148.67 86.99 148.34 87.98 148 89 C147.01 89 146.02 89 145 89 C144.6596875 89.86625 144.6596875 89.86625 144.3125 90.75 C143 93 143 93 140.671875 94.70703125 C137.53552136 97.39860959 135.7931887 100.31666653 133.9375 103.9375 C133.59388428 104.59991699 133.25026855 105.26233398 132.89624023 105.94482422 C127.7538182 116.15646655 124.91616882 126.49836231 125 138 C125.33 138.99 125.66 139.98 126 141 C127.25275971 153.94518368 120.89238262 164.22754608 113 174 C106.2286374 171.1749584 103.22054644 163.8591016 100.30859375 157.48828125 C97.58767282 150.8300037 97.60426176 145.15009832 98 138.0625 C98.27112152 128.11669498 97.97583331 120.81357709 93 112 C92.5771875 111.14148438 92.154375 110.28296875 91.71875 109.3984375 C82.6614284 92.38963008 66.50867676 84.78242627 49.61328125 77.57421875 C42.60353615 74.52024332 36.25496754 70.58419902 29.8125 66.5 C29.22968262 66.13213379 28.64686523 65.76426758 28.04638672 65.38525391 C24.10655976 62.8480996 20.46902179 60.15844169 17 57 C17 56.34 17 55.68 17 55 C16.43152344 54.78214844 15.86304688 54.56429687 15.27734375 54.33984375 C6.14858344 48.96906367 0.33143234 35.50264609 -2.3125 25.6875 C-3.93083364 17.05120028 -4.44887785 7.78553623 0 0 Z " fill="#083551" transform="translate(410,237)"/>
<path d="M0 0 C10.5 7 10.5 7 21 14 C20.35034576 16.76567092 19.52602651 19.39158453 18.5625 22.0625 C12.55919054 40.24899631 13.22917618 59.4081283 21.58325195 76.72167969 C32.28466291 97.52153006 49.78836561 109.88490075 71.79296875 117.17578125 C81.23748128 119.60305548 90.19432144 120.31337027 99.9375 120.25 C101.12279297 120.25773437 102.30808594 120.26546875 103.52929688 120.2734375 C125.66376133 120.22487038 146.41546908 113.37061524 162.35546875 97.66796875 C163.22816406 96.78753906 164.10085938 95.90710938 165 95 C165.98419922 94.06607422 165.98419922 94.06607422 166.98828125 93.11328125 C179.31195882 80.50630075 185.28219536 61.95471896 185.375 44.625 C185.09243226 35.05537248 183.70130308 26.85402444 179.8046875 18.09375 C179 16 179 16 179 13 C181.02286861 11.56538398 182.97535047 10.33859151 185.125 9.125 C190.63885901 5.89885158 190.63885901 5.89885158 195.6875 2 C198 0 198 0 200 0 C212.17270028 22.10043535 214.01050499 47.73536873 208 72 C207.0746421 74.70377099 206.055308 77.34251571 205 80 C204.34 80 203.68 80 203 80 C202.690625 81.19625 202.38125 82.3925 202.0625 83.625 C194.48378555 106.14964435 174.61257141 124.69871977 154 135 C125.55412161 148.91714973 91.61995867 151.28358399 61.4375 141.25 C35.87414351 132.1884992 15.09674437 116.15893719 1 93 C0.40445312 92.02675781 -0.19109375 91.05351562 -0.8046875 90.05078125 C-12.04494118 69.63778169 -15.0043437 43.6034536 -9.4375 21 C-7.18261159 13.57596308 -3.76263078 6.76428005 0 0 Z " fill="#093652" transform="translate(422,306)"/>
<path d="M0 0 C11.71494329 22.59310493 10.56701028 51.83013418 3.1875 75.5 C-1.9180435 91.23603101 -7.61399663 106.66665469 -17.6171875 120.01171875 C-19.17328407 122.04975911 -19.17328407 122.04975911 -20 125 C-20.66 125 -21.32 125 -22 125 C-22.37898437 126.08667969 -22.37898437 126.08667969 -22.765625 127.1953125 C-24.09167779 130.20830588 -25.65973337 132.33913389 -27.75 134.875 C-28.45898438 135.73609375 -29.16796875 136.5971875 -29.8984375 137.484375 C-30.59195313 138.31453125 -31.28546875 139.1446875 -32 140 C-32.59039063 140.72703125 -33.18078125 141.4540625 -33.7890625 142.203125 C-35.14326038 143.84417268 -36.5653916 145.42876223 -38 147 C-38.66 147 -39.32 147 -40 147 C-40.66 148.65 -41.32 150.3 -42 152 C-42.66 152 -43.32 152 -44 152 C-44.33 152.99 -44.66 153.98 -45 155 C-50.46511628 160 -50.46511628 160 -53 160 C-53 160.66 -53 161.32 -53 162 C-55.475 162.99 -55.475 162.99 -58 164 C-58.37511719 162.98421875 -58.75023437 161.9684375 -59.13671875 160.921875 C-60.73656055 156.60646373 -62.36486203 152.30213939 -64 148 C-64.59167969 146.42992187 -64.59167969 146.42992187 -65.1953125 144.828125 C-74.59140523 121.04221192 -92.32770688 92.44819542 -114 78 C-113.88406494 77.31486328 -113.76812988 76.62972656 -113.64868164 75.92382812 C-113.11820331 72.78284497 -112.59033308 69.64142872 -112.0625 66.5 C-111.88009766 65.42234375 -111.69769531 64.3446875 -111.50976562 63.234375 C-109.72245718 52.57551736 -108.77244976 42.30624786 -108.4375 31.5 C-108.39431641 30.200625 -108.35113281 28.90125 -108.30664062 27.5625 C-108.2011749 24.37509155 -108.09905552 21.18761302 -108 18 C-97.82262594 28.13922206 -97.82262594 28.13922206 -95.0625 33.5 C-92.98265864 37.48559909 -89.87651738 40.26615448 -86.609375 43.30078125 C-85 45 -85 45 -85 47 C-84.13568359 47.37705078 -84.13568359 47.37705078 -83.25390625 47.76171875 C-80.71780865 49.15503407 -79.00446921 50.79189272 -76.9375 52.8125 C-69.30887161 59.64466474 -61.60394208 63.0204287 -51.2578125 62.53125 C-36.22821744 60.08038078 -24.07111172 46.48217511 -15.30029297 34.83544922 C-5.19021004 21.10347083 -5.19021004 21.10347083 -0.375 5.25 C-0.30023437 4.26515625 -0.22546875 3.2803125 -0.1484375 2.265625 C-0.07496094 1.14414062 -0.07496094 1.14414062 0 0 Z " fill="#2D556C" transform="translate(608,482)"/>
<path d="M0 0 C6.93042194 3.46521097 11.02470425 18.1618913 14 25 C14.37125 25.84691406 14.7425 26.69382812 15.125 27.56640625 C23.90278986 49.47659265 24.95863014 74.97480319 21 98 C20.81695312 99.09183594 20.63390625 100.18367187 20.4453125 101.30859375 C18.36887862 112.19064536 14.71924345 122.58655745 11 133 C10.61070312 134.09183594 10.22140625 135.18367187 9.8203125 136.30859375 C3.90099666 151.5389502 -4.71072286 165.3933181 -15 178 C-16.03488008 179.42742081 -17.05877871 180.86299991 -18.0625 182.3125 C-19.0215625 183.6428125 -19.0215625 183.6428125 -20 185 C-20.33 185 -20.66 185 -21 185 C-21.20496094 183.83082031 -21.40992188 182.66164063 -21.62109375 181.45703125 C-21.89319855 179.90884878 -22.16533567 178.360672 -22.4375 176.8125 C-22.57220703 176.04357422 -22.70691406 175.27464844 -22.84570312 174.48242188 C-23.04389648 173.35610352 -23.04389648 173.35610352 -23.24609375 172.20703125 C-23.36654053 171.5210083 -23.4869873 170.83498535 -23.61108398 170.12817383 C-24.48945421 165.3216746 -25.59149289 160.63028315 -26.84765625 155.90625 C-27.20926519 154.53262598 -27.57058455 153.1589257 -27.93164062 151.78515625 C-28.49721606 149.63837838 -29.06459581 147.49214582 -29.63696289 145.34716797 C-30.19194808 143.26412515 -30.73914964 141.17916161 -31.28515625 139.09375 C-31.61394775 137.85302734 -31.94273926 136.61230469 -32.28149414 135.33398438 C-32.91383865 132.39980271 -33.06612396 129.97524918 -33 127 C-33.64330028 125.32417573 -34.31173516 123.65786421 -35 122 C-42.26514364 88.8135414 -35.76757764 50.80403835 -18.21337891 21.82763672 C-15.66773985 17.9932999 -12.59420521 14.73381407 -9.375 11.44921875 C-5.91869215 7.88490128 -2.96424995 3.97523586 0 0 Z " fill="#395C74" transform="translate(418,426)"/>
<path d="M0 0 C5.98381314 0.58146594 8.54908117 4.26864893 12.25 8.5859375 C29.03857188 29.06655205 39.49278586 53.1320758 45.47998047 78.80371094 C45.944429 80.7652973 46.45545264 82.71572118 46.97265625 84.6640625 C54.32213597 116.04463172 48.36786694 151.36862659 37 181 C36.59910156 182.04671875 36.19820312 183.0934375 35.78515625 184.171875 C30.75894227 196.69510175 24.69278873 208.90170797 17 220 C16.64647461 220.53399414 16.29294922 221.06798828 15.92871094 221.61816406 C0.84261662 244.25368174 -22.61206426 268.13345398 -48 279 C-51.125 278.8125 -51.125 278.8125 -54 278 C-56 275 -56 275 -56.02734375 272.2109375 C-54.6032953 267.76010928 -52.03069734 265.62953459 -48.5625 262.625 C-47.6643457 261.80708984 -47.6643457 261.80708984 -46.74804688 260.97265625 C-42.30245536 257 -42.30245536 257 -40 257 C-39.76152344 256.43925781 -39.52304687 255.87851562 -39.27734375 255.30078125 C-37.71740925 252.49099098 -35.78904482 250.50666908 -33.5625 248.1875 C-27.93644259 242.09936007 -23.08744001 235.59519627 -18.30078125 228.8359375 C-17.09490977 227.13395674 -15.87689063 225.44139965 -14.65625 223.75 C13.3034721 184.37010971 28.04349383 137.3752029 20.3125 89 C15.70196247 62.29018209 5.60235822 40.69162036 -12 20 C-8.34667572 13.0690479 -4.47821202 6.43147471 0 0 Z " fill="#083651" transform="translate(636,407)"/>
<path d="M0 0 C0.77321882 2.98241547 1.41196203 5.97580475 2 9 C2.99 8.01 3.98 7.02 5 6 C6.32 7.32 7.64 8.64 9 10 C9.99 9.67 10.98 9.34 12 9 C12 13 12 13 11 16 C10.34 16 9.68 16 9 16 C8.67 16.66 8.34 17.32 8 18 C7.67 17.67 7.34 17.34 7 17 C6.67 18.65 6.34 20.3 6 22 C2.67395049 23.10868317 -0.53058454 23.54177532 -4 24 C-3.525625 23.566875 -3.05125 23.13375 -2.5625 22.6875 C-0.76313043 20.97690387 -0.76313043 20.97690387 0 18 C-0.66 17.34 -1.32 16.68 -2 16 C-1.01 16 -0.02 16 1 16 C0.52949219 15.61199219 0.05898438 15.22398437 -0.42578125 14.82421875 C-2.40992887 12.52497076 -2.68533163 10.78688189 -3.1875 7.8125 C-3.34605469 6.91144531 -3.50460937 6.01039063 -3.66796875 5.08203125 C-3.77753906 4.39496094 -3.88710938 3.70789063 -4 3 C-2.68 2.01 -1.36 1.02 0 0 Z M3 0 C3.928125 0.2784375 3.928125 0.2784375 4.875 0.5625 C7.04160178 1.23686176 7.04160178 1.23686176 9 0 C8.67 1.32 8.34 2.64 8 4 C8.66 4.33 9.32 4.66 10 5 C9.34 6.32 8.68 7.64 8 9 C7.34 8.01 6.68 7.02 6 6 C6.33 5.67 6.66 5.34 7 5 C5.68 4.34 4.36 3.68 3 3 C3 2.01 3 1.02 3 0 Z M14 6 C16.475 7.485 16.475 7.485 19 9 C19.66 8.01 20.32 7.02 21 6 C21.598125 6.165 22.19625 6.33 22.8125 6.5 C25.11344336 7.1114124 25.11344336 7.1114124 28 7 C28.66 7.33 29.32 7.66 30 8 C29.67 8.99 29.34 9.98 29 11 C32.16115776 9.63016497 32.9927092 9.0109362 35 6 C35.495 7.485 35.495 7.485 36 9 C36.99 9.33 37.98 9.66 39 10 C39.495 13.465 39.495 13.465 40 17 C39.34 17 38.68 17 38 17 C38.804375 17.804375 38.804375 17.804375 39.625 18.625 C40.305625 19.800625 40.305625 19.800625 41 21 C38.45506576 30.51352381 33.2479854 39.10370175 27.41796875 46.94140625 C25.83277387 49.03880823 25.83277387 49.03880823 25 52 C24.34 52 23.68 52 23 52 C22.74734375 52.72445312 22.4946875 53.44890625 22.234375 54.1953125 C20.90832221 57.20830588 19.34026663 59.33913389 17.25 61.875 C16.54101562 62.73609375 15.83203125 63.5971875 15.1015625 64.484375 C14.40804687 65.31453125 13.71453125 66.1446875 13 67 C12.40960937 67.72703125 11.81921875 68.4540625 11.2109375 69.203125 C9.85673962 70.84417268 8.4346084 72.42876223 7 74 C6.34 74 5.68 74 5 74 C4.34 75.65 3.68 77.3 3 79 C2.34 79 1.68 79 1 79 C0.67 79.99 0.34 80.98 0 82 C-5.46511628 87 -5.46511628 87 -8 87 C-8 87.66 -8 88.32 -8 89 C-10.475 89.99 -10.475 89.99 -13 91 C-13.37511719 89.98421875 -13.75023437 88.9684375 -14.13671875 87.921875 C-16.9527596 80.33382404 -19.84526745 72.80317508 -23.01953125 65.35546875 C-23.75095279 63.59830864 -24.39812052 61.80563845 -25 60 C-24.34 60 -23.68 60 -23 60 C-22.505 57.03 -22.505 57.03 -22 54 C-20.68 54 -19.36 54 -18 54 C-18 54.99 -18 55.98 -18 57 C-16.68 57 -15.36 57 -14 57 C-14.474375 56.62875 -14.94875 56.2575 -15.4375 55.875 C-17.52205802 53.37353038 -17.64621491 51.18406582 -18 48 C-18.99 47.67 -19.98 47.34 -21 47 C-22.1875 44.9375 -22.1875 44.9375 -23 43 C-22.34 43 -21.68 43 -21 43 C-20.67 40.36 -20.34 37.72 -20 35 C-20.66 35 -21.32 35 -22 35 C-22.33 35.66 -22.66 36.32 -23 37 C-23.33 36.01 -23.66 35.02 -24 34 C-22.35 33.34 -20.7 32.68 -19 32 C-18.67 32.66 -18.34 33.32 -18 34 C-15.83333333 33.16666667 -15.83333333 33.16666667 -15 31 C-17.31 30.67 -19.62 30.34 -22 30 C-22.33 28.68 -22.66 27.36 -23 26 C-22.34 26 -21.68 26 -21 26 C-19.37485532 24.54166642 -19.37485532 24.54166642 -18 23 C-17.195625 23.66 -16.39125 24.32 -15.5625 25 C-13.41038085 27.10254514 -13.41038085 27.10254514 -12 27 C-11.34 26.67 -10.68 26.34 -10 26 C-10.33 24.68 -10.66 23.36 -11 22 C-9.68 22 -8.36 22 -7 22 C-6.34 22.99 -5.68 23.98 -5 25 C-2.02096037 26.15317663 -1.13440869 26.0448029 2 25 C2.99 25.33 3.98 25.66 5 26 C5.33 25.01 5.66 24.02 6 23 C6.66 23 7.32 23 8 23 C8.33 22.34 8.66 21.68 9 21 C9.80127394 19.65989027 10.61523601 18.32733416 11.4375 17 C11.86933594 16.29875 12.30117188 15.5975 12.74609375 14.875 C14 13 14 13 16 11 C15.01 10.67 14.02 10.34 13 10 C13.33 8.68 13.66 7.36 14 6 Z M39 7 C39.66 7.33 40.32 7.66 41 8 C40.34 8.66 39.68 9.32 39 10 C39 9.01 39 8.02 39 7 Z " fill="#244F68" transform="translate(563,555)"/>
<path d="M0 0 C1.29873047 -0.01224609 2.59746094 -0.02449219 3.93554688 -0.03710938 C14.14450173 -0.05249203 23.93375264 0.7118167 33.625 4.125 C34.60597656 4.46917969 35.58695313 4.81335938 36.59765625 5.16796875 C39.89141227 6.40490446 43.10971612 7.73168914 46.3125 9.1875 C44.96542072 13.22873783 42.4474962 13.96215876 38.875 15.8125 C32.89766216 19.03554429 28.07889705 22.72109759 23.203125 27.5 C21.3125 29.1875 21.3125 29.1875 19.3125 29.1875 C19.06886719 29.76371094 18.82523438 30.33992188 18.57421875 30.93359375 C17.0927397 33.58007489 15.35423139 35.19726541 13.125 37.25 C8.21036015 42.021495 4.74150923 47.28872207 1.3125 53.1875 C-1.29722027 50.65686216 -3.63887373 48.10084202 -5.8125 45.1875 C-6.31007813 44.5275 -6.80765625 43.8675 -7.3203125 43.1875 C-8.6875 41.1875 -8.6875 41.1875 -9.6796875 39 C-10.61572082 36.83617369 -10.61572082 36.83617369 -13.6875 36.1875 C-13.6875 35.5275 -13.6875 34.8675 -13.6875 34.1875 C-14.22246094 33.94515625 -14.75742187 33.7028125 -15.30859375 33.453125 C-18.31480243 31.85376274 -20.97933799 29.91702523 -23.75 27.9375 C-28.76287086 24.3916719 -33.84684878 21.32875843 -39.34765625 18.57421875 C-41.88802331 17.06865897 -43.65178256 15.31077518 -45.6875 13.1875 C-46.3475 12.8575 -47.0075 12.5275 -47.6875 12.1875 C-47.6875 11.5275 -47.6875 10.8675 -47.6875 10.1875 C-31.60485691 3.48097272 -17.58836905 0.00860067 0 0 Z " fill="#4B7791" transform="translate(521.6875,278.8125)"/>
<path d="M0 0 C6.93042194 3.46521097 11.02470425 18.1618913 14 25 C14.37125 25.84691406 14.7425 26.69382812 15.125 27.56640625 C20.95711211 42.12390484 23.2275711 58.88171834 23.125 74.5 C23.12306641 75.22759521 23.12113281 75.95519043 23.11914062 76.70483398 C23.07527416 82.18875173 22.6912978 87.55602985 22 93 C21.01 93 20.02 93 19 93 C19 92.01 19 91.02 19 90 C17.02 90.495 17.02 90.495 15 91 C15 90.01 15 89.02 15 88 C14.01 88 13.02 88 12 88 C11.67 86.68 11.34 85.36 11 84 C11.99 84.33 12.98 84.66 14 85 C14.495 83.515 14.495 83.515 15 82 C13.02 82.495 13.02 82.495 11 83 C11 81 11 81 13 79 C12.16666667 76.83333333 12.16666667 76.83333333 10 76 C10.99 74.515 10.99 74.515 12 73 C11.01 72.67 10.02 72.34 9 72 C8.505 73.485 8.505 73.485 8 75 C7.34 74.01 6.68 73.02 6 72 C6.66 71.34 7.32 70.68 8 70 C7.01 69.505 7.01 69.505 6 69 C5.67 69.66 5.34 70.32 5 71 C4.34 70.34 3.68 69.68 3 69 C2.01 69.495 2.01 69.495 1 70 C-0.5625 67.625 -0.5625 67.625 -2 65 C-1.67 64.34 -1.34 63.68 -1 63 C-2.95216435 61.04783565 -4.53199953 60.15173355 -7 59 C-7.33 59.66 -7.66 60.32 -8 61 C-10.55192629 59.72403685 -10.99500868 58.62843884 -12 56 C-11.67 55.01 -11.34 54.02 -11 53 C-12.485 53.495 -12.485 53.495 -14 54 C-14.33 53.34 -14.66 52.68 -15 52 C-14.01 51.01 -13.02 50.02 -12 49 C-13.32 48.34 -14.64 47.68 -16 47 C-16.495 47.495 -16.495 47.495 -17 48 C-17.99 48.495 -17.99 48.495 -19 49 C-19.33 49.66 -19.66 50.32 -20 51 C-20.495 49.515 -20.495 49.515 -21 48 C-22.485 48.495 -22.485 48.495 -24 49 C-24.66 47.68 -25.32 46.36 -26 45 C-25.01 45 -24.02 45 -23 45 C-22.31292445 42.50935112 -22 40.62113708 -22 38 C-23.98 38.495 -23.98 38.495 -26 39 C-22.65440531 28.23940938 -17.21803936 19.683463 -9.4453125 11.58984375 C-6.00415822 7.94529856 -2.99347085 4.01442283 0 0 Z " fill="#49718A" transform="translate(418,426)"/>
<path d="M0 0 C10.17737406 10.13922206 10.17737406 10.13922206 12.9375 15.5 C15.01734136 19.48559909 18.12348262 22.26615448 21.390625 25.30078125 C23 27 23 27 23 29 C23.57621094 29.25136719 24.15242187 29.50273438 24.74609375 29.76171875 C27.28219135 31.15503407 28.99553079 32.79189272 31.0625 34.8125 C39.07613882 42.0260865 47.3076583 44.77250337 58 45 C58 45.99 58 46.98 58 48 C57.01 48 56.02 48 55 48 C51.58133526 49.11106604 49.35735884 50.27042661 47 53 C46.67 52.01 46.34 51.02 46 50 C45.01 49.67 44.02 49.34 43 49 C43 48.67 43 48.34 43 48 C42.360625 47.731875 41.72125 47.46375 41.0625 47.1875 C39 46 39 46 38 43 C36.02 43.495 36.02 43.495 34 44 C33.95875 44.556875 33.9175 45.11375 33.875 45.6875 C32.76832376 48.61228721 30.91244133 49.88102569 28.5 51.77734375 C26.58972681 53.33441539 25.23829036 54.86738882 24 57 C24 58.32 24 59.64 24 61 C25.485 60.505 25.485 60.505 27 60 C27.66 60.66 28.32 61.32 29 62 C28.34 62 27.68 62 27 62 C27 62.763125 27 63.52625 27 64.3125 C27 66.20833333 27 68.10416667 27 70 C27.268125 69.360625 27.53625 68.72125 27.8125 68.0625 C29 66 29 66 32 65 C34.6875 65.4375 34.6875 65.4375 37 66 C37 66.66 37 67.32 37 68 C36.01 68.66 35.02 69.32 34 70 C34.99 70.66 35.98 71.32 37 72 C37 72.99 37 73.98 37 75 C36.01 75.66 35.02 76.32 34 77 C34.33 77.66 34.66 78.32 35 79 C32.03 79.99 32.03 79.99 29 81 C29 81.66 29 82.32 29 83 C30.65 83.33 32.3 83.66 34 84 C34.33 85.32 34.66 86.64 35 88 C33.02 88.495 33.02 88.495 31 89 C31.20625 89.598125 31.4125 90.19625 31.625 90.8125 C32 93 32 93 30 96 C29.34 96 28.68 96 28 96 C27.01 95.01 27.01 95.01 26 94 C25.278125 93.319375 24.55625 92.63875 23.8125 91.9375 C21.63296305 89.76426229 19.78712335 87.45864567 17.9375 85 C11.30572057 76.31309771 3.11229129 66.07486086 -6 60 C-5.88406494 59.31486328 -5.76812988 58.62972656 -5.64868164 57.92382812 C-5.11820331 54.78284497 -4.59033308 51.64142872 -4.0625 48.5 C-3.88009766 47.42234375 -3.69769531 46.3446875 -3.50976562 45.234375 C-1.72245718 34.57551736 -0.77244976 24.30624786 -0.4375 13.5 C-0.39431641 12.200625 -0.35113281 10.90125 -0.30664062 9.5625 C-0.2011749 6.37509155 -0.09905552 3.18761302 0 0 Z " fill="#315E79" transform="translate(500,500)"/>
<path d="M0 0 C2.475 0.99 2.475 0.99 5 2 C4.01 2.495 4.01 2.495 3 3 C2.34 2.67 1.68 2.34 1 2 C1.28482368 3.41805831 1.57818144 4.83440379 1.875 6.25 C2.03742188 7.03890625 2.19984375 7.8278125 2.3671875 8.640625 C2.99150075 10.96831144 3.84838542 12.89031952 5 15 C5.66 15 6.32 15 7 15 C7.33 15.66 7.66 16.32 8 17 C9.4540625 17.433125 9.4540625 17.433125 10.9375 17.875 C14 19 14 19 15.375 21.125 C15.58125 21.74375 15.7875 22.3625 16 23 C16.556875 22.814375 17.11375 22.62875 17.6875 22.4375 C20.399133 21.92448835 22.34371039 22.3359276 25 23 C25 22.236875 25 21.47375 25 20.6875 C25 15 25 15 27 13 C27 12.01 27 11.02 27 10 C29.1785148 11.0892574 30.39192964 12.18218133 32 14 C32.495 15.485 32.495 15.485 33 17 C33.66 16.34 34.32 15.68 35 15 C36.50559539 16.96382007 37.89131683 18.78263366 39 21 C39.66 20.34 40.32 19.68 41 19 C41 20.98 41 22.96 41 25 C41.66 25 42.32 25 43 25 C43.185625 25.9590625 43.185625 25.9590625 43.375 26.9375 C43.58125 27.618125 43.7875 28.29875 44 29 C44.66 29.33 45.32 29.66 46 30 C45.979375 30.763125 45.95875 31.52625 45.9375 32.3125 C45.87057159 35.10185786 45.87057159 35.10185786 47 38 C45.05187619 44.96657356 41.35468755 51.50874517 37.875 57.8125 C37.39853027 58.67834717 36.92206055 59.54419434 36.43115234 60.4362793 C32.24005666 67.88319311 27.3951191 74.38976398 22 81 C20.96511992 82.42742081 19.94122129 83.86299991 18.9375 85.3125 C17.9784375 86.6428125 17.9784375 86.6428125 17 88 C16.67 88 16.34 88 16 88 C15.79503906 86.83082031 15.59007812 85.66164063 15.37890625 84.45703125 C15.10680145 82.90884878 14.83466433 81.360672 14.5625 79.8125 C14.36043945 78.65911133 14.36043945 78.65911133 14.15429688 77.48242188 C14.02216797 76.73154297 13.89003906 75.98066406 13.75390625 75.20703125 C13.57323608 74.17799683 13.57323608 74.17799683 13.38891602 73.12817383 C12.51054579 68.3216746 11.40850711 63.63028315 10.15234375 58.90625 C9.79073481 57.53262598 9.42941545 56.1589257 9.06835938 54.78515625 C8.50278394 52.63837838 7.93540419 50.49214582 7.36303711 48.34716797 C6.80805192 46.26412515 6.26085036 44.17916161 5.71484375 42.09375 C5.38605225 40.85302734 5.05726074 39.61230469 4.71850586 38.33398438 C4.08624119 35.40017321 3.93377334 32.97492795 4 30 C3.34286515 28.32955215 2.67515479 26.66324629 2 25 C0.46691779 16.71946337 -0.35673472 8.42290304 0 0 Z M12 22 C12.33 22.66 12.66 23.32 13 24 C13.33 23.34 13.66 22.68 14 22 C13.34 22 12.68 22 12 22 Z " fill="#2F546C" transform="translate(381,523)"/>
<path d="M0 0 C0.66 0.99 1.32 1.98 2 3 C1.125 6.1875 1.125 6.1875 0 9 C0.66 9.33 1.32 9.66 2 10 C0.35 9.67 -1.3 9.34 -3 9 C-2.01 10.485 -2.01 10.485 -1 12 C-0.01 11.67 0.98 11.34 2 11 C2 11.99 2 12.98 2 14 C2.99 12.35 3.98 10.7 5 9 C6.98 9.99 8.96 10.98 11 12 C11 12.99 11 13.98 11 15 C10.34 15.66 9.68 16.32 9 17 C9.66 17 10.32 17 11 17 C11.5625 18.9375 11.5625 18.9375 12 21 C11.67 21.33 11.34 21.66 11 22 C11.99 22.99 12.98 23.98 14 25 C14.33 24.01 14.66 23.02 15 22 C15.556875 22.33 16.11375 22.66 16.6875 23 C19.30284522 24.1309601 21.1806646 24.15662974 24 24 C23.34 24.66 22.68 25.32 22 26 C22.495 26.99 22.495 26.99 23 28 C22.505 28.495 22.505 28.495 22 29 C22.495 30.485 22.495 30.485 23 32 C23.66 31.67 24.32 31.34 25 31 C25.66 31.99 26.32 32.98 27 34 C28.32 34 29.64 34 31 34 C30.34 34.99 29.68 35.98 29 37 C29.33 37.33 29.66 37.66 30 38 C30.495 37.01 30.495 37.01 31 36 C32.32 36 33.64 36 35 36 C34.67 36.99 34.34 37.98 34 39 C34.33 39.33 34.66 39.66 35 40 C35 40.99 35 41.98 35 43 C35.99 43.495 35.99 43.495 37 44 C35.02 44.495 35.02 44.495 33 45 C34.32 45.33 35.64 45.66 37 46 C36.67 47.32 36.34 48.64 36 50 C35.01 49.34 34.02 48.68 33 48 C35.17424117 50.50037734 36.73045798 51.43628586 40 52 C39.34 52.66 38.68 53.32 38 54 C38.99 53.67 39.98 53.34 41 53 C41.66 53.66 42.32 54.32 43 55 C42.67 55.33 42.34 55.66 42 56 C42.33 56 42.66 56 43 56 C42.03644647 67.52164009 42.03644647 67.52164009 41 73 C38 73 38 73 35 72 C34.67 70.35 34.34 68.7 34 67 C32.68 67 31.36 67 30 67 C29.67 67.66 29.34 68.32 29 69 C28.67 68.01 28.34 67.02 28 66 C26.02 66.495 26.02 66.495 24 67 C24.495 65.02 24.495 65.02 25 63 C26.65 63 28.3 63 30 63 C29.01 61.68 28.02 60.36 27 59 C26.67 59.99 26.34 60.98 26 62 C25.01 61.505 25.01 61.505 24 61 C24.28151087 59.68528432 24.57553339 58.37324233 24.875 57.0625 C25.03742188 56.33160156 25.19984375 55.60070312 25.3671875 54.84765625 C26 53 26 53 28 52 C27.34 51.34 26.68 50.68 26 50 C26 49.34 26 48.68 26 48 C24.68 48 23.36 48 22 48 C21.34 48 20.68 48 20 48 C20.33 46.35 20.66 44.7 21 43 C20.2575 43.185625 19.515 43.37125 18.75 43.5625 C16.05009037 43.99203108 14.55368923 43.85122974 12 43 C11.34 43.99 10.68 44.98 10 46 C11.485 45.505 11.485 45.505 13 45 C14.485 45.495 14.485 45.495 16 46 C16.33 46.99 16.66 47.98 17 49 C15.6078125 49.433125 15.6078125 49.433125 14.1875 49.875 C10.90208333 50.8875 10.90208333 50.8875 8 53 C7.67 52.34 7.34 51.68 7 51 C6.896875 51.639375 6.79375 52.27875 6.6875 52.9375 C6.460625 53.618125 6.23375 54.29875 6 55 C4.515 55.495 4.515 55.495 3 56 C3 55.34 3 54.68 3 54 C1.02 54.495 1.02 54.495 -1 55 C-1 54.34 -1 53.68 -1 53 C0.65 53 2.3 53 4 53 C5.01111093 49.95086772 5.01111093 49.95086772 4 47 C4.99 46.505 4.99 46.505 6 46 C6 45.67 6 45.34 6 45 C4.515 45.495 4.515 45.495 3 46 C2.67 46.99 2.34 47.98 2 49 C1.34 48.67 0.68 48.34 0 48 C0 47.34 0 46.68 0 46 C-3.37462715 46.54723683 -5.08235 47.0549 -8 49 C-8 48.34 -8 47.68 -8 47 C-9.98 47.495 -9.98 47.495 -12 48 C-12.33 47.34 -12.66 46.68 -13 46 C-12.01 46 -11.02 46 -10 46 C-10.66 45.67 -11.32 45.34 -12 45 C-16.56763784 33.58090541 -10.19996944 17.90603234 -6.4765625 6.92578125 C-4.80719925 3.61796888 -3.02695712 2.08040029 0 0 Z M7 18 C8 20 8 20 8 20 Z M-2 47 C-1.34 47.33 -0.68 47.66 0 48 C0 48.66 0 49.32 0 50 C-0.99 49.67 -1.98 49.34 -3 49 C-2.67 48.34 -2.34 47.68 -2 47 Z " fill="#41667E" transform="translate(396,462)"/>
<path d="M0 0 C6.69980397 12.92105051 8.3727969 27.48766257 8.375 41.875 C8.3764502 42.89053955 8.37790039 43.9060791 8.37939453 44.95239258 C8.3050477 49.93906027 8.19480317 54.41890077 6 59 C3 61 3 61 0 61 C-0.66 60.67 -1.32 60.34 -2 60 C-2.66 60.66 -3.32 61.32 -4 62 C-4.99 62 -5.98 62 -7 62 C-7.66 61.01 -8.32 60.02 -9 59 C-9.99 59.495 -9.99 59.495 -11 60 C-10.625 58.0625 -10.625 58.0625 -10 56 C-9.01 55.505 -9.01 55.505 -8 55 C-8 54.34 -8 53.68 -8 53 C-8.99 53 -9.98 53 -11 53 C-11 53.66 -11 54.32 -11 55 C-11.969375 55.474375 -12.93875 55.94875 -13.9375 56.4375 C-16.80477437 57.70193947 -16.80477437 57.70193947 -18 59 C-18.66 59.66 -19.32 60.32 -20 61 C-20.33 59.68 -20.66 58.36 -21 57 C-22.32 57.99 -23.64 58.98 -25 60 C-27 57 -27 57 -27.5 54.375 C-27.665 53.59125 -27.83 52.8075 -28 52 C-28.66 51.67 -29.32 51.34 -30 51 C-29.47792969 50.52433594 -28.95585938 50.04867187 -28.41796875 49.55859375 C-16.9118608 38.61670826 -1.47674831 20.9467628 0.0625 4.5 C0.08235312 2.99998671 0.07934559 1.49804483 0 0 Z " fill="#355A70" transform="translate(608,482)"/>
<path d="M0 0 C7.02381575 4.03219052 10.43823435 9.73010741 12.9375 17.36328125 C13.375 19.9375 13.375 19.9375 12 23.1875 C11.13375 24.095 10.2675 25.0025 9.375 25.9375 C8.93414062 26.53433594 8.49328125 27.13117188 8.0390625 27.74609375 C4.55663204 32.37330107 1.13338 34.91636132 -4.625 35.9375 C-10.8044092 36.38120539 -15.16886917 34.69048167 -19.89453125 30.73828125 C-23.70047896 26.77769007 -25.77970035 22.44071319 -26.125 16.9375 C-25.80130306 11.62260502 -23.85200586 6.98229629 -19.90625 3.359375 C-13.56616812 -1.31509215 -7.56019561 -2.2159194 0 0 Z " fill="#0B2F45" transform="translate(482.625,338.0625)"/>
<path d="M0 0 C10.17737406 10.13922206 10.17737406 10.13922206 12.9375 15.5 C15.01734136 19.48559909 18.12348262 22.26615448 21.390625 25.30078125 C23 27 23 27 23 29 C23.5775 29.226875 24.155 29.45375 24.75 29.6875 C27.5663661 31.33038023 29.08077114 33.39533227 31 36 C29.35 36.99 27.7 37.98 26 39 C26.66 39 27.32 39 28 39 C27.67 39.99 27.34 40.98 27 42 C23.78767875 43.07077375 21.36062193 43 18 43 C17.505 43.825 17.01 44.65 16.5 45.5 C16.005 46.325 15.51 47.15 15 48 C14.01 48 13.02 48 12 48 C12.99 48.66 13.98 49.32 15 50 C14.67 51.32 14.34 52.64 14 54 C13.34 53.67 12.68 53.34 12 53 C12 54.98 12 56.96 12 59 C8.535 59.495 8.535 59.495 5 60 C5 61.65 5 63.3 5 65 C4.34 65 3.68 65 3 65 C2.67 63.35 2.34 61.7 2 60 C0.02 60.495 0.02 60.495 -2 61 C-3.92606606 58.30307841 -5.00266497 56.66824168 -4.98925781 53.30639648 C-4.81233398 52.33774658 -4.63541016 51.36909668 -4.453125 50.37109375 C-4.26782227 49.26604492 -4.08251953 48.16099609 -3.89160156 47.02246094 C-3.67987305 45.83942383 -3.46814453 44.65638672 -3.25 43.4375 C-0.88335273 28.91157905 -0.19603579 14.71620401 0 0 Z " fill="#406C88" transform="translate(500,500)"/>
<path d="M0 0 C2.54274049 1.71177954 4.13033388 3.64913144 5.79296875 6.20703125 C6.20546875 6.82578125 6.61796875 7.44453125 7.04296875 8.08203125 C8.94794596 13.47946669 7.7785941 18.82167869 5.91796875 24.0546875 C3.71923383 28.26129494 -0.0091844 31.10810783 -4.20703125 33.20703125 C-9.93058005 33.68926395 -15.31665659 33.94967844 -20.70703125 31.83203125 C-25.09606068 27.22355035 -28.39824834 21.56027796 -28.76953125 15.08203125 C-27.85160408 8.75853299 -25.90685939 4.16101554 -20.70703125 0.26953125 C-14.06906573 -4.18092291 -6.85131469 -3.7503328 0 0 Z " fill="#0C2D45" transform="translate(580.20703125,339.79296875)"/>
<path d="M0 0 C6.93042194 3.46521097 11.02470425 18.1618913 14 25 C14.37125 25.84691406 14.7425 26.69382812 15.125 27.56640625 C20.95711211 42.12390484 23.2275711 58.88171834 23.125 74.5 C23.12306641 75.22759521 23.12113281 75.95519043 23.11914062 76.70483398 C23.07527416 82.18875173 22.6912978 87.55602985 22 93 C21.01 93 20.02 93 19 93 C19 92.01 19 91.02 19 90 C17.02 90.495 17.02 90.495 15 91 C16.33333333 87 17.66666667 83 19 79 C18.02792965 77.32419948 18.02792965 77.32419948 16.5625 75.8125 C15.716875 74.884375 14.87125 73.95625 14 73 C15.485 72.505 15.485 72.505 17 72 C16.01 69.03 16.01 69.03 15 66 C14.01 67.65 13.02 69.3 12 71 C11.67 69.68 11.34 68.36 11 67 C9.35 66.67 7.7 66.34 6 66 C6 65.34 6 64.68 6 64 C6.804375 63.79375 7.60875 63.5875 8.4375 63.375 C9.283125 62.92125 10.12875 62.4675 11 62 C11.89830839 58.94727535 11.89830839 58.94727535 12 56 C13.98 55.505 13.98 55.505 16 55 C16 53.35 16 51.7 16 50 C15.54625 50.825 15.0925 51.65 14.625 52.5 C14.08875 53.325 13.5525 54.15 13 55 C12.34 55 11.68 55 11 55 C10.67 55.66 10.34 56.32 10 57 C9.67 55.68 9.34 54.36 9 53 C8.67 53.66 8.34 54.32 8 55 C8 51 8 51 10 49 C10 48.34 10 47.68 10 47 C9.34 46.67 8.68 46.34 8 46 C7.67 45.34 7.34 44.68 7 44 C5.515 44.495 5.515 44.495 4 45 C3.814375 43.14375 3.814375 43.14375 3.625 41.25 C3.06695954 36.85498686 3.06695954 36.85498686 1 33 C-0.64333504 31.96210419 -2.31243867 30.96432076 -4 30 C-6.3125 27.9375 -6.3125 27.9375 -8 26 C-8 25.34 -8 24.68 -8 24 C-8.66 23.67 -9.32 23.34 -10 23 C-9 20 -9 20 -7.375 18.5625 C-6.92125 18.046875 -6.4675 17.53125 -6 17 C-6.26676204 15.01508358 -6.26676204 15.01508358 -7 13 C-7 8.40848794 -6.31497074 7.66817876 -3.5 4.25 C-2.8503125 3.45078125 -2.200625 2.6515625 -1.53125 1.828125 C-0.77328125 0.92320312 -0.77328125 0.92320312 0 0 Z M5 39 C6 41 6 41 6 41 Z " fill="#4E7B95" transform="translate(418,426)"/>
<path d="M0 0 C0.495 0.99 0.495 0.99 1 2 C1.99 2.33 2.98 2.66 4 3 C-0.04827991 9.48644849 -4.441504 15.70440584 -10 21 C-10.66 21 -11.32 21 -12 21 C-12.99 23.475 -12.99 23.475 -14 26 C-14.66 26 -15.32 26 -16 26 C-16.33 26.99 -16.66 27.98 -17 29 C-22.46511628 34 -22.46511628 34 -25 34 C-25 34.66 -25 35.32 -25 36 C-26.65 36.66 -28.3 37.32 -30 38 C-33.53048312 28.72659766 -36.95795174 19.448244 -40 10 C-37.1484375 9.37890625 -37.1484375 9.37890625 -34 9 C-31.625 10.9375 -31.625 10.9375 -30 13 C-30 12.01 -30 11.02 -30 10 C-30.66 9.67 -31.32 9.34 -32 9 C-31.01 7.02 -30.02 5.04 -29 3 C-26 3 -26 3 -24.3125 4.5 C-23.879375 4.995 -23.44625 5.49 -23 6 C-22.34 5.67 -21.68 5.34 -21 5 C-18 5 -18 5 -16.0625 5.5625 C-13.69138881 6.06546298 -12.30883195 5.61568852 -10 5 C-9.34 5.33 -8.68 5.66 -8 6 C-8 6.99 -8 7.98 -8 9 C-6.98888907 5.95086772 -6.98888907 5.95086772 -8 3 C-7.34 2.34 -6.68 1.68 -6 1 C-5.01 1.66 -4.02 2.32 -3 3 C-2.01 2.01 -1.02 1.02 0 0 Z " fill="#1A4A66" transform="translate(580,608)"/>
<path d="M0 0 C0.66 0 1.32 0 2 0 C3.39316877 4.1795063 1.77512177 6.0947321 0 10 C0 10.66 0 11.32 0 12 C1.32 11.67 2.64 11.34 4 11 C4 12.32 4 13.64 4 15 C4.66 15 5.32 15 6 15 C5.67 12.69 5.34 10.38 5 8 C5.763125 8.825 6.52625 9.65 7.3125 10.5 C9.75434142 13.34055197 9.75434142 13.34055197 13 13 C12.01 12.34 11.02 11.68 10 11 C10.33 10.34 10.66 9.68 11 9 C10.67 8.01 10.34 7.02 10 6 C10.66 6 11.32 6 12 6 C12 4.35 12 2.7 12 1 C12.99 1.33 13.98 1.66 15 2 C14.67 2.99 14.34 3.98 14 5 C14.66 5 15.32 5 16 5 C16.33 4.34 16.66 3.68 17 3 C17.66 2.67 18.32 2.34 19 2 C18.67 1.34 18.34 0.68 18 0 C20.375 0.25 20.375 0.25 23 1 C24.25 3 24.25 3 25 5 C25.33 5.33 25.66 5.66 26 6 C27 8 27 8 26.0625 11.8125 C21.76214674 23.9193504 12.42757586 37.15211327 3 46 C2.79503906 44.83082031 2.59007812 43.66164063 2.37890625 42.45703125 C2.10680145 40.90884878 1.83466433 39.360672 1.5625 37.8125 C1.42779297 37.04357422 1.29308594 36.27464844 1.15429688 35.48242188 C0.77392657 33.32080526 0.38795314 31.1602667 0 29 C-0.14308594 28.19304688 -0.28617187 27.38609375 -0.43359375 26.5546875 C-1.54303199 21.55073847 -2.97968421 16.62087696 -4.359375 11.68554688 C-4.58367187 10.85732422 -4.80796875 10.02910156 -5.0390625 9.17578125 C-5.24740723 8.42208252 -5.45575195 7.66838379 -5.67041016 6.8918457 C-6 5 -6 5 -5 3 C-3.68352881 2.30062468 -2.34977849 1.63270867 -1 1 C-0.67 0.67 -0.34 0.34 0 0 Z " fill="#284F65" transform="translate(394,565)"/>
<path d="M0 0 C6.49545154 -0.46396082 10.51677387 0.49161789 16 4 C16.91458984 4.58394531 16.91458984 4.58394531 17.84765625 5.1796875 C24.67180831 10.2490576 28.69198371 18.71082701 30 27 C29.319375 26.360625 28.63875 25.72125 27.9375 25.0625 C22.23771314 21.06052199 16.52310681 21.97003577 10 23 C9.01 25.475 9.01 25.475 8 28 C5.69264557 24.53896836 5.2972411 22.01801131 4.5625 17.9375 C3.42081782 11.82012832 1.95995233 5.90765774 0 0 Z " fill="#4E7C98" transform="translate(449,451)"/>
<path d="M0 0 C4.54693638 2.97578161 6.81867089 6.48148083 9.375 11.125 C9.92607422 12.07439453 9.92607422 12.07439453 10.48828125 13.04296875 C11.39658064 14.65734238 12.20703317 16.32595891 13 18 C12.67 18.66 12.34 19.32 12 20 C11.0409375 19.2575 11.0409375 19.2575 10.0625 18.5 C5.96055681 16.49088497 2.49374258 16.24968363 -2 17 C-5.33600367 19.05838525 -6.8262176 20.7393264 -9 24 C-9.38499891 25.65549531 -9.72793135 27.3222433 -10 29 C-10.33 29 -10.66 29 -11 29 C-11.268125 27.845 -11.53625 26.69 -11.8125 25.5 C-12.54187666 22.50321329 -13.47834488 19.77180398 -14.6875 16.9375 C-16.21079037 12.94569804 -16.23642881 10.17294723 -15 6 C-10.98386926 -0.41425197 -7.33096264 -1.6431468 0 0 Z " fill="#51809C" transform="translate(615,444)"/>
<path d="M0 0 C2.90629297 5.60499358 4.54864246 10.96525933 5.625 17.1875 C5.75688721 17.93765381 5.88877441 18.68780762 6.0246582 19.46069336 C6.95480858 25.04099434 7.26970684 30.33615638 7 36 C6.67 35.34 6.34 34.68 6 34 C2.88214887 34.64644661 2.88214887 34.64644661 2 37 C1.443125 36.855625 0.88625 36.71125 0.3125 36.5625 C-4.29336311 35.40516376 -4.29336311 35.40516376 -9 35 C-9 35.66 -9 36.32 -9 37 C-9.66 37 -10.32 37 -11 37 C-10.67 35.35 -10.34 33.7 -10 32 C-10.99 31.67 -11.98 31.34 -13 31 C-12.38511719 30.05898438 -11.77023437 29.11796875 -11.13671875 28.1484375 C-10.32014844 26.8907315 -9.50375139 25.632913 -8.6875 24.375 C-8.28337891 23.75753906 -7.87925781 23.14007813 -7.46289062 22.50390625 C-3.81744086 16.87272369 -0.73071539 11.98373243 -0.3125 5.125 C-0.24675781 4.15820312 -0.18101562 3.19140625 -0.11328125 2.1953125 C-0.07589844 1.47085937 -0.03851562 0.74640625 0 0 Z " fill="#3C6277" transform="translate(608,482)"/>
<path d="M0 0 C0.33 0.99 0.66 1.98 1 3 C1.9075 2.7525 2.815 2.505 3.75 2.25 C7 2 7 2 9.375 3.8125 C11 6 11 6 11 8 C11.5775 8.226875 12.155 8.45375 12.75 8.6875 C15.5663661 10.33038023 17.08077114 12.39533227 19 15 C17.35 15.99 15.7 16.98 14 18 C14.66 18 15.32 18 16 18 C15.67 18.99 15.34 19.98 15 21 C12 22 12 22 9 22 C6.06553116 22.53353979 5.17413762 22.82586238 3 25 C0.375 25.625 0.375 25.625 -2 26 C-2.16873478 24.56274129 -2.33490737 23.12518162 -2.5 21.6875 C-2.5928125 20.88699219 -2.685625 20.08648438 -2.78125 19.26171875 C-3.06968619 16.27949457 -2.98498929 13.93449872 -2.3125 11 C-1.65334103 8.00729724 -1.65334103 8.00729724 -3.4375 6.125 C-3.953125 5.75375 -4.46875 5.3825 -5 5 C-3.0625 4.4375 -3.0625 4.4375 -1 4 C-0.67 4.33 -0.34 4.66 0 5 C0 3.35 0 1.7 0 0 Z " fill="#406882" transform="translate(512,521)"/>
<path d="M0 0 C1.19908285 3.46848797 0.78945844 5.59994812 -0.3125 9.0625 C-0.57675781 9.91972656 -0.84101562 10.77695312 -1.11328125 11.66015625 C-2 14 -2 14 -4 17 C-4.99 17 -5.98 17 -7 17 C-7.08636719 17.80824219 -7.17273438 18.61648438 -7.26171875 19.44921875 C-8.13657081 26.10291012 -8.81509341 29.46320674 -14 34 C-14.74259349 36.31029085 -15.411438 38.645752 -16 41 C-18.52709975 46.40703984 -23.00752628 50.07207831 -27.3125 54.0625 C-28.05951172 54.76955078 -28.80652344 55.47660156 -29.57617188 56.20507812 C-37.47465042 63.59039828 -37.47465042 63.59039828 -42 66 C-44.16918945 65.59008789 -44.16918945 65.59008789 -46 65 C-45.50709473 64.52804199 -45.01418945 64.05608398 -44.50634766 63.56982422 C-34.57287141 54.00262317 -25.42379012 44.6481483 -18 33 C-17.3090625 31.94683594 -16.618125 30.89367187 -15.90625 29.80859375 C-10.61751136 21.51951299 -6.28140399 12.83416457 -2 4 C-1.33587261 2.66540005 -0.67072859 1.33129463 0 0 Z " fill="#A2EDFD" transform="translate(670,594)"/>
<path d="M0 0 C5.93451786 5.91227109 11.01780062 11.60448686 15 19 C15.97201131 20.35387289 16.95884159 21.69855198 18 23 C16.35 23.33 14.7 23.66 13 24 C13 24.99 13 25.98 13 27 C12.01 26.67 11.02 26.34 10 26 C7.32323453 27.37249963 7.32323453 27.37249963 5 29 C5.33 29.99 5.66 30.98 6 32 C3.525 32.495 3.525 32.495 1 33 C0.34 35.31 -0.32 37.62 -1 40 C-2.00845812 37.31077835 -1.95083605 35.63478205 -1.5625 32.75 C-0.70348084 26.3658103 -0.63685352 19.93160204 -0.4375 13.5 C-0.39431641 12.200625 -0.35113281 10.90125 -0.30664062 9.5625 C-0.2011749 6.37509155 -0.09905552 3.18761302 0 0 Z " fill="#48738F" transform="translate(500,500)"/>
<path d="M0 0 C-0.66 0 -1.32 0 -2 0 C-2.33 0.99 -2.66 1.98 -3 3 C-3.99 3 -4.98 3 -6 3 C-6.3403125 3.86625 -6.3403125 3.86625 -6.6875 4.75 C-8 7 -8 7 -10.328125 8.70703125 C-13.46509953 11.39914243 -15.20456501 14.31739509 -17.0625 17.9375 C-17.40539062 18.59049072 -17.74828125 19.24348145 -18.1015625 19.91625977 C-21.2241099 26.05969369 -23.28788653 32.32050469 -25 39 C-25.99 39 -26.98 39 -28 39 C-30.62299724 33.75400551 -29.19826732 25.54198634 -28 20 C-27.34 20 -26.68 20 -26 20 C-25.7834375 18.576875 -25.7834375 18.576875 -25.5625 17.125 C-23.84745085 11.00340121 -18.35723719 5.01047601 -12.96484375 1.78125 C-10.96894987 0.98765402 -9.01818374 0.34570026 -6.9375 -0.1875 C-6.26589844 -0.36667969 -5.59429688 -0.54585938 -4.90234375 -0.73046875 C-3 -1 -3 -1 0 0 Z " fill="#3C5F71" transform="translate(561,323)"/>
<path d="M0 0 C3.82152293 1.69845463 5.4671671 3.15073352 7 7 C7.1953125 9.359375 7.1953125 9.359375 7.125 11.75 C7.10695313 12.54921875 7.08890625 13.3484375 7.0703125 14.171875 C7.04710937 14.77515625 7.02390625 15.3784375 7 16 C3.87507749 16.05791844 0.75029234 16.09356746 -2.375 16.125 C-3.26445313 16.14175781 -4.15390625 16.15851562 -5.0703125 16.17578125 C-5.92109375 16.18222656 -6.771875 16.18867187 -7.6484375 16.1953125 C-8.82672119 16.21102295 -8.82672119 16.21102295 -10.02880859 16.22705078 C-12 16 -12 16 -14 14 C-14.34532068 10.99077691 -14.56241657 8.90674701 -14 6 C-9.65172447 0.62186973 -6.82892311 -0.46297784 0 0 Z " fill="#C1DDE7" transform="translate(580,754)"/>
<path d="M0 0 C8.60920289 4.30460144 14.16709811 24.79487763 17.25390625 33.54296875 C18.21605323 36.71150513 18.70717935 39.70576773 19 43 C18.01 43.495 18.01 43.495 17 44 C16.34 43.34 15.68 42.68 15 42 C15.165 41.360625 15.33 40.72125 15.5 40.0625 C15.665 39.381875 15.83 38.70125 16 38 C15.34 37.01 14.68 36.02 14 35 C13.67 35.99 13.34 36.98 13 38 C11.0625 38.5625 11.0625 38.5625 9 39 C8.34 39.66 7.68 40.32 7 41 C6.03737212 37.72706521 5.92333158 36.22098544 7.0625 32.9375 C8.31423856 30.11737047 8.31423856 30.11737047 7.125 27.9375 C6.75375 27.298125 6.3825 26.65875 6 26 C5.875 23.25 5.875 23.25 6 21 C4.68 22.32 3.36 23.64 2 25 C1.875 17.25 1.875 17.25 3 15 C3.33 14.67 3.66 14.34 4 14 C3.175 13.608125 2.35 13.21625 1.5 12.8125 C0.675 12.214375 -0.15 11.61625 -1 11 C-1.25 8.5 -1.25 8.5 -1 6 C-1.33 5.01 -1.66 4.02 -2 3 C-1.34 2.01 -0.68 1.02 0 0 Z " fill="#54849E" transform="translate(418,426)"/>
<path d="M0 0 C0.99 0 1.98 0 3 0 C2.67 1.65 2.34 3.3 2 5 C2.66 5 3.32 5 4 5 C4 4.34 4 3.68 4 3 C5.32 3 6.64 3 8 3 C8.38133299 4.9914056 8.71325582 6.99279077 9 9 C8.67 9.33 8.34 9.66 8 10 C9.65 9.01 11.3 8.02 13 7 C13.33 8.65 13.66 10.3 14 12 C13.34 12 12.68 12 12 12 C11.34 12.66 10.68 13.32 10 14 C9.236875 13.690625 8.47375 13.38125 7.6875 13.0625 C5.81210323 12.32106407 3.91315348 11.63771783 2 11 C1.34 11.66 0.68 12.32 0 13 C-0.33 12.34 -0.66 11.68 -1 11 C-1 12.98 -1 14.96 -1 17 C-2.98 17.33 -4.96 17.66 -7 18 C-7.66 17.01 -8.32 16.02 -9 15 C-9.99 15.495 -9.99 15.495 -11 16 C-11 16.99 -11 17.98 -11 19 C-12.98 19.33 -14.96 19.66 -17 20 C-15.68604379 18.47296981 -14.37141964 16.94651221 -13.0546875 15.421875 C-11.4331737 13.51058496 -9.84035349 11.58386835 -8.2578125 9.640625 C-7.77352783 9.05240967 -7.28924316 8.46419434 -6.7902832 7.8581543 C-5.81039157 6.66748802 -4.83746122 5.47105619 -3.87182617 4.26879883 C-2.646752 2.78906834 -1.32886326 1.38727483 0 0 Z " fill="#3B5E74" transform="translate(595,514)"/>
<path d="M0 0 C0.66 0.33 1.32 0.66 2 1 C2 2.65 2 4.3 2 6 C1.21625 6.2475 0.4325 6.495 -0.375 6.75 C-3.32317108 8.15389099 -3.9024777 9.00675737 -5 12 C-5.66 12 -6.32 12 -7 12 C-6.814375 12.598125 -6.62875 13.19625 -6.4375 13.8125 C-6 16 -6 16 -7 19 C-7.66 19 -8.32 19 -9 19 C-9 19.66 -9 20.32 -9 21 C-9.99 21.33 -10.98 21.66 -12 22 C-12.33 21.01 -12.66 20.02 -13 19 C-14.29135981 15.85440122 -14.29135981 15.85440122 -17 14 C-16.67 13.34 -16.34 12.68 -16 12 C-16.33 11.67 -16.66 11.34 -17 11 C-13.56482228 8.70988152 -10.02809081 6.63195099 -6.47265625 4.53515625 C-4.20981152 3.13026213 -2.10159452 1.63348994 0 0 Z " fill="#365C70" transform="translate(577,534)"/>
<path d="M0 0 C13.722465 -0.45238896 26.68055826 1.9636531 40 5 C40 5.33 40 5.66 40 6 C26.63735555 8.50168229 12.13416544 7.68432935 0 1 C0 0.67 0 0.34 0 0 Z " fill="#214F6B" transform="translate(521,254)"/>
<path d="M0 0 C0.66 0.33 1.32 0.66 2 1 C1.54367187 1.84691406 1.54367187 1.84691406 1.078125 2.7109375 C-0.00588849 5.01250238 -0.624583 7.16342283 -1.25 9.625 C-3.59885605 17.66805254 -8.15987839 25.00203726 -14 31 C-14.99 31 -15.98 31 -17 31 C-17.28875 31.598125 -17.5775 32.19625 -17.875 32.8125 C-19 35 -19 35 -21 38 C-21.66 38 -22.32 38 -23 38 C-21.69831626 35.25535866 -20.25556342 32.83134009 -18.4609375 30.3828125 C-17.96634033 29.69977051 -17.47174316 29.01672852 -16.9621582 28.31298828 C-16.438396 27.59095215 -15.91463379 26.86891602 -15.375 26.125 C-6.38330678 13.77127655 -6.38330678 13.77127655 0 0 Z " fill="#A1E0ED" transform="translate(622,595)"/>
<path d="M0 0 C-0.33 0.33 -0.66 0.66 -1 1 C-0.67 1 -0.34 1 0 1 C-0.96355353 12.52164009 -0.96355353 12.52164009 -2 18 C-5 18 -5 18 -8 17 C-9.1875 13.9375 -9.1875 13.9375 -10 11 C-9.34 11 -8.68 11 -8 11 C-8 9.68 -8 8.36 -8 7 C-7.34 7 -6.68 7 -6 7 C-6.33 6.34 -6.66 5.68 -7 5 C-7.039992 3.00039988 -7.04346799 0.99952758 -7 -1 C-3.51418144 -2.2020064 -3.32007656 -2.21338437 0 0 Z " fill="#466B82" transform="translate(439,517)"/>
<path d="M0 0 C-0.61875 0.0825 -1.2375 0.165 -1.875 0.25 C-4.69640174 1.24578885 -4.71927958 2.36322266 -6 5 C-6.76828125 5.56589844 -7.5365625 6.13179688 -8.328125 6.71484375 C-11.49614641 9.42433575 -12.92497238 12.04896546 -14.8125 15.75 C-15.41707031 16.92046875 -16.02164063 18.0909375 -16.64453125 19.296875 C-17.09183594 20.18890625 -17.53914062 21.0809375 -18 22 C-20.09011685 18.86482473 -20.61618695 16.87552169 -20.4921875 13.12109375 C-19.49630907 8.82933196 -16.48400256 6.46385797 -13 4 C-3.05981795 -1.52990897 -3.05981795 -1.52990897 0 0 Z " fill="#516F7A" transform="translate(559,325)"/>
<path d="M0 0 C1.57760793 4.73282378 -0.59196969 8.40026868 -2.26074219 12.96826172 C-2.78238237 14.40191087 -3.29523362 15.83877275 -3.80175781 17.27783203 C-8.7092121 31.19154869 -14.85677603 44.09834189 -22 57 C-22.66 55.68 -23.32 54.36 -24 53 C-23.236875 52.175 -22.47375 51.35 -21.6875 50.5 C-18.70294364 46.95583932 -17.43446489 43.37889283 -16 39 C-15.34 39 -14.68 39 -14 39 C-13.8865625 38.48308594 -13.773125 37.96617187 -13.65625 37.43359375 C-12.45916993 32.99442181 -10.74275942 28.72232575 -9.15625 24.41015625 C-8.19935608 21.58796573 -7.48953808 18.93166553 -7 16 C-6.34 16 -5.68 16 -5 16 C-4.20497132 12.93448401 -3.55067798 9.85676844 -2.9375 6.75 C-2.76089844 5.85796875 -2.58429688 4.9659375 -2.40234375 4.046875 C-2.26957031 3.37140625 -2.13679688 2.6959375 -2 2 C-1.34 2 -0.68 2 0 2 C0 1.34 0 0.68 0 0 Z " fill="#94B6C7" transform="translate(454,545)"/>
<path d="M0 0 C4.875 4.625 4.875 4.625 6 8 C6.66 8.33 7.32 8.66 8 9 C3.59391956 12.96547239 -0.62277718 15.49681007 -6 18 C-4.23536928 11.89262558 -2.30442525 5.92566493 0 0 Z " fill="#295C79" transform="translate(486,586)"/>
<path d="M0 0 C0.66 0 1.32 0 2 0 C1.7834375 1.01835937 1.566875 2.03671875 1.34375 3.0859375 C-1.26760458 16.0775816 -2.13657575 28.87039741 0 42 C-2 39 -2 39 -2 37 C-2.66 37 -3.32 37 -4 37 C-5.61204428 26.7903862 -6.62586119 16.65498523 -1.97265625 7.1484375 C-0.90177797 4.78304372 -0.42563614 2.55381683 0 0 Z " fill="#4A6E7F" transform="translate(438,327)"/>
<path d="M0 0 C0.226875 0.639375 0.45375 1.27875 0.6875 1.9375 C1.85250896 4.27193661 1.85250896 4.27193661 4.625 4.75 C5.40875 4.8325 6.1925 4.915 7 5 C7.21278058 9.46839215 6.59138085 12.82262526 5 17 C4.34 17 3.68 17 3 17 C2.67 15.35 2.34 13.7 2 12 C0.68 12.33 -0.64 12.66 -2 13 C-3.625 10.75 -3.625 10.75 -5 8 C-4.25 5.875 -4.25 5.875 -3 4 C-2.67 3.01 -2.34 2.02 -2 1 C-1.34 0.67 -0.68 0.34 0 0 Z " fill="#376682" transform="translate(500,548)"/>
<path d="M0 0 C3.22757853 6.45515706 4.46841664 11.79564657 5 19 C2.69 19.33 0.38 19.66 -2 20 C-2 20.66 -2 21.32 -2 22 C-3.65 22.33 -5.3 22.66 -7 23 C-6.57847656 22.26136719 -6.15695312 21.52273438 -5.72265625 20.76171875 C-1.9271053 13.73325147 -0.03150968 8.00345749 0 0 Z " fill="#4D7B93" transform="translate(608,482)"/>
<path d="M0 0 C1.19908285 3.46848797 0.78945844 5.59994812 -0.3125 9.0625 C-0.70888672 10.34833984 -0.70888672 10.34833984 -1.11328125 11.66015625 C-2 14 -2 14 -4 17 C-4.99 17 -5.98 17 -7 17 C-7.66 20.96 -8.32 24.92 -9 29 C-9.99 29 -10.98 29 -12 29 C-12.66 29.99 -13.32 30.98 -14 32 C-14.66 32 -15.32 32 -16 32 C-14.3554811 27.65377148 -12.33691739 23.52121961 -10.25 19.375 C-9.89873047 18.67439453 -9.54746094 17.97378906 -9.18554688 17.25195312 C-6.25098093 11.43075425 -3.18240596 5.68975611 0 0 Z " fill="#89D4E4" transform="translate(670,594)"/>
<path d="M0 0 C6.99364549 4.06607296 10.88060343 9.10043098 13 17 C10.525 16.01 10.525 16.01 8 15 C8 14.67 8 14.34 8 14 C6.35 13.67 4.7 13.34 3 13 C3 12.34 3 11.68 3 11 C2.34 11 1.68 11 1 11 C1 9.68 1 8.36 1 7 C0.34 7 -0.32 7 -1 7 C-0.67 4.69 -0.34 2.38 0 0 Z " fill="#59849D" transform="translate(464,455)"/>
<path d="M0 0 C0.66 0.33 1.32 0.66 2 1 C1.67 1.66 1.34 2.32 1 3 C1.66 3.66 2.32 4.32 3 5 C0.69 8.63 -1.62 12.26 -4 16 C-8.5 11.5 -8.5 11.5 -10 8 C-9.01 8 -8.02 8 -7 8 C-7 7.34 -7 6.68 -7 6 C-5.66666667 5 -4.33333333 4 -3 3 C-3 2.34 -3 1.68 -3 1 C-2.01 0.67 -1.02 0.34 0 0 Z " fill="#3D718F" transform="translate(527,316)"/>
<path d="M0 0 C1.27351308 2.54702616 0.80191925 3.4282945 0.0625 6.125 C-0.13214844 6.84945312 -0.32679688 7.57390625 -0.52734375 8.3203125 C-0.68332031 8.87460937 -0.83929687 9.42890625 -1 10 C-1.59683594 10.09539063 -2.19367187 10.19078125 -2.80859375 10.2890625 C-5.49797505 11.1615534 -6.31015979 12.17897262 -8.0625 14.375 C-11.17920989 18.11777389 -14.4806791 21.57594254 -17.9375 25 C-18.43451416 25.49290527 -18.93152832 25.98581055 -19.44360352 26.49365234 C-20.62705162 27.66447755 -21.81322877 28.83254331 -23 30 C-23.66 29.67 -24.32 29.34 -25 29 C-24.10539063 28.15179687 -23.21078125 27.30359375 -22.2890625 26.4296875 C-14.10536381 18.53644034 -7.33340199 10.42421255 -1 1 C-0.67 0.67 -0.34 0.34 0 0 Z " fill="#7ED5E6" transform="translate(653,626)"/>
<path d="M0 0 C0.33 0 0.66 0 1 0 C0.88490339 1.41750563 0.75746342 2.83401169 0.625 4.25 C0.55539062 5.03890625 0.48578125 5.8278125 0.4140625 6.640625 C-0.01507113 9.085877 -0.78600638 10.84836903 -2 13 C-2.66 13 -3.32 13 -4 13 C-4.0825 13.9075 -4.165 14.815 -4.25 15.75 C-5.23271469 22.7144563 -7.69984327 29.79925708 -11 36 C-11.66 36 -12.32 36 -13 36 C-12.01382177 31.95000515 -10.79883512 27.97934103 -9.5625 24 C-9.34529297 23.2884375 -9.12808594 22.576875 -8.90429688 21.84375 C-7.83879353 18.41366116 -6.75870108 15.14112193 -5 12 C-4.34 12 -3.68 12 -3 12 C-2.87625 11.13375 -2.7525 10.2675 -2.625 9.375 C-2.01941879 6.10486147 -1.11693965 3.12743101 0 0 Z " fill="#B9D5E1" transform="translate(451,548)"/>
<path d="M0 0 C2.70802335 2.70802335 5.25181948 5.36748402 7.75 8.25 C8.36359375 8.95640625 8.9771875 9.6628125 9.609375 10.390625 C10.29773438 11.18726563 10.29773438 11.18726563 11 12 C10.67 12.66 10.34 13.32 10 14 C8.68 13.01 7.36 12.02 6 11 C3.66475218 13.25740623 1.81294927 15.2805761 0 18 C0 12.06 0 6.12 0 0 Z " fill="#527C92" transform="translate(500,500)"/>
<path d="M0 0 C0 0.66 0 1.32 0 2 C-0.66 2 -1.32 2 -2 2 C-2.33 2.66 -2.66 3.32 -3 4 C-6 6 -6 6 -10 6 C-10 7.98 -10 9.96 -10 12 C-12.64 12.33 -15.28 12.66 -18 13 C-17.12360894 11.50923171 -16.22303672 10.03266131 -15.3125 8.5625 C-14.81363281 7.73878906 -14.31476562 6.91507812 -13.80078125 6.06640625 C-11.61900552 3.56280677 -10.24519666 3.30406442 -7 3 C-7 2.34 -7 1.68 -7 1 C-4.50935112 0.31292445 -2.62113708 0 0 0 Z " fill="#496D82" transform="translate(613,501)"/>
<path d="M0 0 C0.99 0 1.98 0 3 0 C1.39002731 5.00555145 -1.55933051 8.79354115 -4.6875 12.9375 C-5.44450195 13.97293945 -5.44450195 13.97293945 -6.21679688 15.02929688 C-9.7183326 19.69948674 -13.44964608 23.34254572 -18 27 C-18 26.01 -18 25.02 -18 24 C-17.34 24 -16.68 24 -16 24 C-16 23.34 -16 22.68 -16 22 C-15.34 22 -14.68 22 -14 22 C-13.67 20.68 -13.34 19.36 -13 18 C-12.34 18 -11.68 18 -11 18 C-10.67 17.01 -10.34 16.02 -10 15 C-9.34 15 -8.68 15 -8 15 C-7.731875 14.030625 -7.46375 13.06125 -7.1875 12.0625 C-6.5996875 10.5465625 -6.5996875 10.5465625 -6 9 C-5.01 8.67 -4.02 8.34 -3 8 C-2.38932856 6.14255793 -2.38932856 6.14255793 -2 4 C-1.36345658 2.6520257 -0.70394612 1.31403276 0 0 Z " fill="#0B576B" transform="translate(652,622)"/>
<path d="M0 0 C0.33 3.3 0.66 6.6 1 10 C0.34 10 -0.32 10 -1 10 C-1.33 9.01 -1.66 8.02 -2 7 C-2.33 7.99 -2.66 8.98 -3 10 C-5.0625 11.6875 -5.0625 11.6875 -7 13 C-9.30376516 7.7862157 -9.30376516 7.7862157 -7.9375 4.25 C-5.7952509 1.76222685 -3.44885505 0 0 0 Z " fill="#3F697F" transform="translate(614,502)"/>
<path d="M0 0 C1.77706209 2.66559313 2.87548273 5.0280615 4 8 C3.67 8.33 3.34 8.66 3 9 C3.99 9 4.98 9 6 9 C6 9.66 6 10.32 6 11 C5.01 11.495 5.01 11.495 4 12 C3.67 12.99 3.34 13.98 3 15 C2.01 15.495 2.01 15.495 1 16 C1.185625 16.61875 1.37125 17.2375 1.5625 17.875 C2 20 2 20 1 22 C0.34 21.67 -0.32 21.34 -1 21 C-1.09733092 13.90565767 -1.10087193 7.01805857 0 0 Z " fill="#375C74" transform="translate(382,500)"/>
<path d="M0 0 C-1.0621875 0.47308594 -2.124375 0.94617188 -3.21875 1.43359375 C-11.80636861 5.40272938 -18.41175905 9.05881549 -24 17 C-24.33 16.34 -24.66 15.68 -25 15 C-19.49525438 7.13328907 -14.66919805 2.12618683 -5.26953125 -0.6171875 C-3 -1 -3 -1 0 0 Z " fill="#335A6C" transform="translate(561,323)"/>
<path d="M0 0 C0 0.99 0 1.98 0 3 C-0.66 3 -1.32 3 -2 3 C-1.67 5.64 -1.34 8.28 -1 11 C-1.99 11.66 -2.98 12.32 -4 13 C-4.66 12.34 -5.32 11.68 -6 11 C-6.66 10.67 -7.32 10.34 -8 10 C-8.33 11.32 -8.66 12.64 -9 14 C-8.63126118 7.85435306 -7.22746623 5.22746623 -3 1 C-2.01 0.67 -1.02 0.34 0 0 Z " fill="#5D86A0" transform="translate(608,443)"/>
<path d="M0 0 C1.49386835 5.09419855 -0.28487034 7.67190206 -2.75 12.25 C-5 15 -5 15 -8.25 15.875 C-9.61125 15.936875 -9.61125 15.936875 -11 16 C-7.44123747 10.59068096 -3.72561343 5.29539436 0 0 Z " fill="#8ACBDE" transform="translate(619,399)"/>
<path d="M0 0 C0.66 0.33 1.32 0.66 2 1 C0.42301238 2.63115895 -1.16184366 4.25471333 -2.75 5.875 C-3.63171875 6.77992188 -4.5134375 7.68484375 -5.421875 8.6171875 C-7.62653823 10.65483079 -9.20604195 11.9883945 -12 13 C-14.25 12.625 -14.25 12.625 -16 12 C-14.33702299 10.16197278 -12.8302844 8.89908802 -10.6875 7.625 C-8.50716739 6.30665935 -6.7396617 5.01073725 -4.8125 3.375 C-2 1 -2 1 0 0 Z " fill="#A4EAFA" transform="translate(640,647)"/>
<path d="M0 0 C-1.75 3.875 -1.75 3.875 -4 5 C-4 4.34 -4 3.68 -4 3 C-4.66 3 -5.32 3 -6 3 C-6.33 3.66 -6.66 4.32 -7 5 C-8.30915279 6.03145371 -9.64082143 7.03542166 -11 8 C-10.34 9.65 -9.68 11.3 -9 13 C-11 13 -11 13 -13 11.0625 C-13.66 10.381875 -14.32 9.70125 -15 9 C-15.66 8.67 -16.32 8.34 -17 8 C-17 7.34 -17 6.68 -17 6 C-14.5433053 4.99580363 -12.08481647 3.99649499 -9.625 3 C-8.92632812 2.71382813 -8.22765625 2.42765625 -7.5078125 2.1328125 C-2.2265625 0 -2.2265625 0 0 0 Z " fill="#416E89" transform="translate(491,283)"/>
<path d="M0 0 C0.99 0.33 1.98 0.66 3 1 C2.34 1 1.68 1 1 1 C0.896875 1.99 0.79375 2.98 0.6875 4 C0.28935223 6.90243954 -0.32509881 8.77210966 -1.5 11.5625 C-3.87388338 17.41035907 -3.74623188 23.76955509 -4 30 C-4.33 30 -4.66 30 -5 30 C-6.9816443 19.73147955 -5.01266708 9.16642211 0 0 Z " fill="#19445F" transform="translate(437,326)"/>
<path d="M0 0 C1.37562854 1.28965176 2.70766393 2.62689293 4 4 C4 4.66 4 5.32 4 6 C4.66 6.33 5.32 6.66 6 7 C6.33 7.66 6.66 8.32 7 9 C4.625 9.125 4.625 9.125 2 9 C1.34 8.34 0.68 7.68 0 7 C-0.99 8.32 -1.98 9.64 -3 11 C-3 9.68 -3 8.36 -3 7 C-3.2981424 5.65835921 -3.62243192 4.32148827 -4 3 C-2.68 2.01 -1.36 1.02 0 0 Z " fill="#355B73" transform="translate(388,542)"/>
<path d="M0 0 C9.73428976 1.00662622 19.40558907 2.01349201 29 4 C29 4.33 29 4.66 29 5 C27.2300132 5.19532961 25.45895721 5.38098882 23.6875 5.5625 C22.70136719 5.66691406 21.71523438 5.77132813 20.69921875 5.87890625 C18 6 18 6 15 5 C15 4.34 15 3.68 15 3 C13.2365625 3.061875 13.2365625 3.061875 11.4375 3.125 C7.27590326 3.13983635 3.93512333 2.31170778 0 1 C0 0.67 0 0.34 0 0 Z " fill="#426E84" transform="translate(529,254)"/>
<path d="M0 0 C0.99 0.66 1.98 1.32 3 2 C2.34 3.65 1.68 5.3 1 7 C-1 6 -3 5 -5 4 C-5 4.66 -5 5.32 -5 6 C-4.34 6 -3.68 6 -3 6 C-2.67 6.99 -2.34 7.98 -2 9 C-2.61875 8.814375 -3.2375 8.62875 -3.875 8.4375 C-6.04160178 7.76313824 -6.04160178 7.76313824 -8 9 C-7.33333333 6.33333333 -6.66666667 3.66666667 -6 1 C-5.38125 1.20625 -4.7625 1.4125 -4.125 1.625 C-3.073125 1.810625 -3.073125 1.810625 -2 2 C-1.34 1.34 -0.68 0.68 0 0 Z " fill="#40637C" transform="translate(416,511)"/>
<path d="M0 0 C0.66 0.66 1.32 1.32 2 2 C1.94177239 5.75984014 -0.43216974 7.74615293 -2.99804688 10.26171875 C-3.51431641 10.75285156 -4.03058594 11.24398437 -4.5625 11.75 C-5.08263672 12.25660156 -5.60277344 12.76320313 -6.13867188 13.28515625 C-7.41910084 14.53034405 -8.70867554 15.76611502 -10 17 C-10 13.71752569 -9.66923327 13.17433033 -7.8125 10.64453125 C-7.13574219 9.71157227 -7.13574219 9.71157227 -6.4453125 8.75976562 C-5.96835937 8.11716797 -5.49140625 7.47457031 -5 6.8125 C-4.52304687 6.15830078 -4.04609375 5.50410156 -3.5546875 4.83007812 C-2.37610725 3.21542318 -1.18886818 1.60709503 0 0 Z " fill="#9BD6E3" transform="translate(445,628)"/>
<path d="M0 0 C0.66 0.33 1.32 0.66 2 1 C2.99 1 3.98 1 5 1 C5.625 2.8125 5.625 2.8125 6 5 C5.01 6.485 5.01 6.485 4 8 C3.34 8 2.68 8 2 8 C1.67 7.34 1.34 6.68 1 6 C0.01 7.485 0.01 7.485 -1 9 C-2.32 8.34 -3.64 7.68 -5 7 C-4.505 6.38125 -4.01 5.7625 -3.5 5.125 C-1.80777227 3.16119096 -1.80777227 3.16119096 -2 1 C-1.34 0.67 -0.68 0.34 0 0 Z " fill="#365972" transform="translate(403,512)"/>
<path d="M0 0 C0.99 0.33 1.98 0.66 3 1 C1.69144447 2.83615081 0.37805538 4.66885789 -0.9375 6.5 C-1.66839844 7.5209375 -2.39929688 8.541875 -3.15234375 9.59375 C-3.76207031 10.3878125 -4.37179687 11.181875 -5 12 C-5.33 12 -5.66 12 -6 12 C-6 9.03 -6 6.06 -6 3 C-4.68 2.34 -3.36 1.68 -2 1 C-1.67 1.33 -1.34 1.66 -1 2 C-0.67 1.34 -0.34 0.68 0 0 Z " fill="#2F5769" transform="translate(403,599)"/>
<path d="M0 0 C0.33 0 0.66 0 1 0 C2.44987304 7.06813109 2.44987304 13.93186891 1 21 C0.34 21 -0.32 21 -1 21 C-1.0269501 18.06243881 -1.04681474 15.12512445 -1.0625 12.1875 C-1.07087891 11.35412109 -1.07925781 10.52074219 -1.08789062 9.66210938 C-1.09111328 8.85966797 -1.09433594 8.05722656 -1.09765625 7.23046875 C-1.10289307 6.49207764 -1.10812988 5.75368652 -1.11352539 4.99291992 C-1 3 -1 3 0 0 Z " fill="#C1DAE2" transform="translate(437,341)"/>
<path d="M0 0 C0.33 0 0.66 0 1 0 C1 2.64 1 5.28 1 8 C0.01 8.33 -0.98 8.66 -2 9 C-2.74118205 11.31074405 -3.40206327 13.64811553 -4 16 C-4.62469505 17.35350594 -5.2716331 18.69934483 -6 20 C-6.66 20 -7.32 20 -8 20 C-6.78184562 15.31479085 -5.30440013 11.29456388 -3 7 C-2.34 7 -1.68 7 -1 7 C-0.67 4.69 -0.34 2.38 0 0 Z " fill="#81B6CE" transform="translate(628,379)"/>
<path d="M0 0 C1.98 0.66 3.96 1.32 6 2 C4.89210592 5.32368224 4.51563783 5.61563093 1.625 7.25 C0.71621094 7.78367187 0.71621094 7.78367187 -0.2109375 8.328125 C-2 9 -2 9 -5 8 C-4.34 7.34 -3.68 6.68 -3 6 C-2.34 6.33 -1.68 6.66 -1 7 C-1.20625 6.21625 -1.4125 5.4325 -1.625 4.625 C-1.74875 3.75875 -1.8725 2.8925 -2 2 C-1.34 1.34 -0.68 0.68 0 0 Z " fill="#436D86" transform="translate(562,286)"/>
<path d="M0 0 C3.55948201 0.32358927 5.53463476 0.6100994 8.3125 2.9375 C10.8398135 6.02643872 11.11847629 7.7066599 11.0625 11.625 C11.05347656 12.44226563 11.04445313 13.25953125 11.03515625 14.1015625 C11.02355469 14.72804688 11.01195312 15.35453125 11 16 C10.01 15.67 9.02 15.34 8 15 C8.05800781 14.39671875 8.11601563 13.7934375 8.17578125 13.171875 C8.31524616 10.70135378 8.34729468 8.45223923 8 6 C5.81501244 3.46808501 5.81501244 3.46808501 3 2 C2.01 1.34 1.02 0.68 0 0 Z " fill="#B7DBEB" transform="translate(576,754)"/>
<path d="M0 0 C2.08559201 3.43509272 2.08559201 3.43509272 1.6875 6.0625 C1.460625 6.701875 1.23375 7.34125 1 8 C0.67 8.99 0.34 9.98 0 11 C-2.5625 12.6875 -2.5625 12.6875 -5 14 C-4.54636829 12.41531323 -4.08688548 10.83230076 -3.625 9.25 C-3.36976563 8.36828125 -3.11453125 7.4865625 -2.8515625 6.578125 C-2.0790066 4.23919428 -1.16374324 2.16557438 0 0 Z " fill="#A7CFE0" transform="translate(636,261)"/>
<path d="M0 0 C0.66 0.99 1.32 1.98 2 3 C1.50628906 3.40992188 1.01257813 3.81984375 0.50390625 4.2421875 C-0.13675781 4.78101563 -0.77742188 5.31984375 -1.4375 5.875 C-2.07558594 6.40867187 -2.71367187 6.94234375 -3.37109375 7.4921875 C-5.10805004 8.9222757 -5.10805004 8.9222757 -6 11 C-6.66 11 -7.32 11 -8 11 C-8.33 11.99 -8.66 12.98 -9 14 C-9.99 13.34 -10.98 12.68 -12 12 C-11.46890625 11.55269531 -10.9378125 11.10539063 -10.390625 10.64453125 C-6.52111681 7.33285362 -3.01412695 4.14442456 0 0 Z " fill="#9AC7D6" transform="translate(421,659)"/>
<path d="M0 0 C0 3 0 3 -2.30078125 5.55859375 C-3.29732806 6.52586949 -4.30159746 7.48523746 -5.3125 8.4375 C-8.46895431 11.4554776 -11.5018518 14.3934584 -14 18 C-14.3671875 15.85546875 -14.3671875 15.85546875 -14 13 C-12.08262481 10.88033293 -10.29106056 9.13407266 -8.125 7.3125 C-7.56941406 6.82716797 -7.01382812 6.34183594 -6.44140625 5.84179688 C-4.96715391 4.55404634 -3.4840498 3.27644726 -2 2 C-1.34 1.34 -0.68 0.68 0 0 Z " fill="#B7EAF5" transform="translate(445,634)"/>
<path d="M0 0 C0.33 0 0.66 0 1 0 C0.68978386 6.97986313 -2.4951958 12.07291522 -6 18 C-6.66 16.68 -7.32 15.36 -8 14 C-6.8553125 12.7625 -6.8553125 12.7625 -5.6875 11.5 C-2.70294364 7.95583932 -1.43446489 4.37889283 0 0 Z " fill="#A4C5D5" transform="translate(438,584)"/>
<path d="M0 0 C-0.99 3.63 -1.98 7.26 -3 11 C-3.66 11 -4.32 11 -5 11 C-4.95875 10.21625 -4.9175 9.4325 -4.875 8.625 C-4.71271266 5.83883881 -4.71271266 5.83883881 -7 4 C-3.17391304 0 -3.17391304 0 0 0 Z M-7 6 C-5 7 -5 7 -5 7 Z " fill="#47687C" transform="translate(436,536)"/>
<path d="M0 0 C1.65 1.65 3.3 3.3 5 5 C3.515 7.475 3.515 7.475 2 10 C1.34 9.67 0.68 9.34 0 9 C0 8.34 0 7.68 0 7 C-0.66 7 -1.32 7 -2 7 C-1.34 4.69 -0.68 2.38 0 0 Z " fill="#2C607B" transform="translate(486,586)"/>
<path d="M0 0 C0.33 0 0.66 0 1 0 C0.70703125 2.01822917 0.4140625 4.03645833 0.12109375 6.0546875 C-0.1684297 8.08140667 -0.1684297 8.08140667 1 10 C-0.68474722 13.36949443 -1.8191658 14.87944386 -5 17 C-1.92482916 5.47835991 -1.92482916 5.47835991 0 0 Z " fill="#98C4D2" transform="translate(475,562)"/>
<path d="M0 0 C2.4375 0.8125 2.4375 0.8125 5 2 C5.33 2.99 5.66 3.98 6 5 C4.35 5.33 2.7 5.66 1 6 C0.01 9.465 0.01 9.465 -1 13 C-2.53617912 8.90352234 -1.69045256 5.21176063 -1 1 C-0.67 0.67 -0.34 0.34 0 0 Z " fill="#547E96" transform="translate(500,527)"/>
<path d="M0 0 C0.66 0.33 1.32 0.66 2 1 C1.731875 1.495 1.46375 1.99 1.1875 2.5 C-0.43875493 5.9236946 -1.69515171 9.44132285 -3 13 C-3.66 13 -4.32 13 -5 13 C-5 13.66 -5 14.32 -5 15 C-5.66 15 -6.32 15 -7 15 C-5.45454854 9.52067211 -2.84456788 4.88570819 0 0 Z " fill="#90D0DC" transform="translate(622,595)"/>
<path d="M0 0 C0.66 0.33 1.32 0.66 2 1 C2 2.65 2 4.3 2 6 C0.02 6.66 -1.96 7.32 -4 8 C-4.33 6.68 -4.66 5.36 -5 4 C-3.35 2.68 -1.7 1.36 0 0 Z " fill="#3E6075" transform="translate(577,534)"/>
<path d="M0 0 C2 3 2 3 1.625 5.1875 C1.41875 5.785625 1.2125 6.38375 1 7 C0.01 7 -0.98 7 -2 7 C-2 7.66 -2 8.32 -2 9 C-3.32 8.67 -4.64 8.34 -6 8 C-5.34 7.01 -4.68 6.02 -4 5 C-3.34 5 -2.68 5 -2 5 C-1.34 3.35 -0.68 1.7 0 0 Z " fill="#A1DEE8" transform="translate(598,633)"/>
<path d="M0 0 C1.32 1.32 2.64 2.64 4 4 C4.33 3.34 4.66 2.68 5 2 C5.99 2 6.98 2 8 2 C8 2.66 8 3.32 8 4 C5.69 4.33 3.38 4.66 1 5 C1 5.66 1 6.32 1 7 C-0.65 7.33 -2.3 7.66 -4 8 C-2.68 5.36 -1.36 2.72 0 0 Z " fill="#557D93" transform="translate(605,497)"/>
<path d="M0 0 C0.33 0 0.66 0 1 0 C1.25 2.25 1.25 2.25 1 5 C-0.875 7.3125 -0.875 7.3125 -3 9 C-3.66 9 -4.32 9 -5 9 C-5 9.99 -5 10.98 -5 12 C-5.66 12 -6.32 12 -7 12 C-5.66749209 8.4124787 -4.169283 5.1635377 -2 2 C-1.34 2 -0.68 2 0 2 C0 1.34 0 0.68 0 0 Z " fill="#92C7D6" transform="translate(453,616)"/>
<path d="M0 0 C0.66 0 1.32 0 2 0 C2.33 1.65 2.66 3.3 3 5 C2.34 5 1.68 5 1 5 C0.67 6.32 0.34 7.64 0 9 C-0.66 8.67 -1.32 8.34 -2 8 C-2.40729228 5.67843403 -2.74438677 3.3431213 -3 1 C-2.01 1.495 -2.01 1.495 -1 2 C-0.67 1.34 -0.34 0.68 0 0 Z " fill="#284D66" transform="translate(389,558)"/>
<path d="M0 0 C7.38461538 -0.49230769 7.38461538 -0.49230769 10.5 2 C10.995 2.66 11.49 3.32 12 4 C7.12335991 4.34833144 4.22949995 3.41685712 0 1 C0 0.67 0 0.34 0 0 Z " fill="#1E4960" transform="translate(521,254)"/>
<path d="M0 0 C0.66 0.33 1.32 0.66 2 1 C-1.06093224 4.93548431 -3.49115974 7.68116787 -8 10 C-8.66 9.34 -9.32 8.68 -10 8 C-9.36191406 7.50628906 -8.72382812 7.01257813 -8.06640625 6.50390625 C-7.24011719 5.86324219 -6.41382813 5.22257813 -5.5625 4.5625 C-4.73878906 3.92441406 -3.91507813 3.28632812 -3.06640625 2.62890625 C-1.12498733 1.16417803 -1.12498733 1.16417803 0 0 Z " fill="#A8CEDC" transform="translate(567,665)"/>
<path d="M0 0 C-3.64859761 3.04049801 -7.7444533 4.96518762 -12 7 C-11.5 4.6875 -11.5 4.6875 -10 2 C-3.40518962 -1.70259481 -3.40518962 -1.70259481 0 0 Z " fill="#20526C" transform="translate(492,597)"/>
<path d="M0 0 C-5.36190101 2.61407872 -10.03435204 4.49228528 -16 5 C-13.61724334 2.20966654 -11.4977157 1.27016708 -8 0.25 C-7.13375 -0.01296875 -6.2675 -0.2759375 -5.375 -0.546875 C-3 -1 -3 -1 0 0 Z " fill="#294D60" transform="translate(561,323)"/>
<path d="M0 0 C0 0.99 0 1.98 0 3 C0.66 3.66 1.32 4.32 2 5 C1.01 5.33 0.02 5.66 -1 6 C-2.20882096 8.00016466 -2.20882096 8.00016466 -3 10 C-3.99 10 -4.98 10 -6 10 C-4.6302836 6.00499382 -2.74277578 3.19990508 0 0 Z " fill="#456479" transform="translate(593,516)"/>
<path d="M0 0 C2.0625 1.625 2.0625 1.625 4 4 C3.75 7.25 3.75 7.25 3 10 C2.01 10.33 1.02 10.66 0 11 C0 7.37 0 3.74 0 0 Z " fill="#5E8598" transform="translate(500,500)"/>
<path d="M0 0 C0.33 0.66 0.66 1.32 1 2 C1.99 2.33 2.98 2.66 4 3 C1.03 5.475 1.03 5.475 -2 8 C-2.6875 5.6875 -2.6875 5.6875 -3 3 C-1.5625 1.1875 -1.5625 1.1875 0 0 Z " fill="#446D86" transform="translate(548,297)"/>
<path d="M0 0 C0.66 0 1.32 0 2 0 C1.9375 2.1875 1.9375 2.1875 1 5 C-1.1717219 6.93157957 -3.52601047 8.48201687 -6 10 C-6 9.01 -6 8.02 -6 7 C-5.34 7 -4.68 7 -4 7 C-3.71125 6.401875 -3.4225 5.80375 -3.125 5.1875 C-2 3 -2 3 0 0 Z " fill="#B1EEF8" transform="translate(605,626)"/>
<path d="M0 0 C1 4 1 4 -0.25 6.5625 C-1.71962175 8.60947315 -3.13797675 10.3153123 -5 12 C-5.66 11.67 -6.32 11.34 -7 11 C-4.69 7.37 -2.38 3.74 0 0 Z " fill="#91D8E4" transform="translate(614,610)"/>
<path d="M0 0 C0.66 0.66 1.32 1.32 2 2 C1.835 2.78375 1.67 3.5675 1.5 4.375 C0.92129477 7.41320245 1.38788051 8.43957492 3 11 C2.01 11.33 1.02 11.66 0 12 C-1.49498913 9.01002175 -1.11577446 6.29957225 -1 3 C-0.67 2.01 -0.34 1.02 0 0 Z " fill="#204A60" transform="translate(571,576)"/>
<path d="M0 0 C2.6015625 0.0234375 2.6015625 0.0234375 5.625 0.375 C6.62789062 0.48585938 7.63078125 0.59671875 8.6640625 0.7109375 C9.82035156 0.85402344 9.82035156 0.85402344 11 1 C10.01 2.485 10.01 2.485 9 4 C5.37 3.34 1.74 2.68 -2 2 C-1.34 1.34 -0.68 0.68 0 0 Z " fill="#0F3F5E" transform="translate(543,260)"/>
<path d="M0 0 C0.33 1.32 0.66 2.64 1 4 C-1.35438733 5.42944945 -2.48032433 6.08661261 -5.25 5.625 C-5.8275 5.41875 -6.405 5.2125 -7 5 C-4.87219421 2.65941363 -2.88437779 1.29299694 0 0 Z " fill="#98D7E6" transform="translate(631,654)"/>
<path d="M0 0 C0.66 0 1.32 0 2 0 C1.49202991 4.3177458 0.80317221 8.03302114 -1 12 C-1.33 12 -1.66 12 -2 12 C-2.17835515 7.45194365 -1.99785435 4.1205746 0 0 Z " fill="#A8ECFC" transform="translate(663,611)"/>
<path d="M0 0 C0.66 0 1.32 0 2 0 C3.6875 1.6875 3.6875 1.6875 5 4 C4.71814575 6.88900605 3.91884332 9.24347003 3 12 C2.67 12 2.34 12 2 12 C1.34 8.04 0.68 4.08 0 0 Z " fill="#1B455B" transform="translate(394,594)"/>
<path d="M0 0 C2.31 0 4.62 0 7 0 C7 0.99 7 1.98 7 3 C6.01 3 5.02 3 4 3 C2.66018514 3.3062434 1.32488113 3.63451555 0 4 C0 2.66666667 0 1.33333333 0 0 Z " fill="#46667A" transform="translate(551,545)"/>
<path d="M0 0 C0.33 1.32 0.66 2.64 1 4 C0.34 4 -0.32 4 -1 4 C-1 4.99 -1 5.98 -1 7 C-2.98 7.33 -4.96 7.66 -7 8 C-6.02133662 6.85373678 -5.04205413 5.70800212 -4.0625 4.5625 C-3.51722656 3.92441406 -2.97195313 3.28632812 -2.41015625 2.62890625 C-1.63204305 1.73008851 -0.84063472 0.84063472 0 0 Z " fill="#436278" transform="translate(585,526)"/>
<path d="M0 0 C1.1898968 4.31337592 0.94128806 7.64654271 0 12 C-1.95143115 9.13024831 -1.98930952 7.87385237 -1.6875 4.3125 C-1 1 -1 1 0 0 Z " fill="#1A4763" transform="translate(458,476)"/>
<path d="M0 0 C0.33 0 0.66 0 1 0 C0.67 2.31 0.34 4.62 0 7 C-1.98 7.33 -3.96 7.66 -6 8 C-5.02471263 6.66382648 -4.04466681 5.3311249 -3.0625 4 C-2.24458984 2.88625 -2.24458984 2.88625 -1.41015625 1.75 C-0.94480469 1.1725 -0.47945312 0.595 0 0 Z " fill="#96C6D5" transform="translate(626,281)"/>
<path d="M0 0 C1.60080151 4.00200378 0.29279692 7.04556236 -1 11 C-1.66 11 -2.32 11 -3 11 C-2.44894091 7.0507432 -1.61064629 3.65079826 0 0 Z " fill="#88C2D2" transform="translate(674,583)"/>
<path d="M0 0 C0.33 0 0.66 0 1 0 C1.144375 1.2375 1.28875 2.475 1.4375 3.75 C1.71611841 6.03547854 2.03818221 8.14509238 2.625 10.375 C3 12 3 12 2 14 C1.34 13.67 0.68 13.34 0 13 C0 8.71 0 4.42 0 0 Z " fill="#2C536A" transform="translate(381,508)"/>
<path d="M0 0 C2.64 0 5.28 0 8 0 C7.01 1.485 7.01 1.485 6 3 C5.67 2.67 5.34 2.34 5 2 C4.67 2.66 4.34 3.32 4 4 C3.01 4 2.02 4 1 4 C0.67 2.68 0.34 1.36 0 0 Z " fill="#5F889B" transform="translate(449,451)"/>
<path d="M0 0 C1.32 0 2.64 0 4 0 C4 0.66 4 1.32 4 2 C4.99 2.33 5.98 2.66 7 3 C7.6875 5.0625 7.6875 5.0625 8 7 C6 7 6 7 4 5.0625 C3.34 4.381875 2.68 3.70125 2 3 C1.34 2.67 0.68 2.34 0 2 C0 1.34 0 0.68 0 0 Z " fill="#386984" transform="translate(474,289)"/>
<path d="M0 0 C0.66 1.32 1.32 2.64 2 4 C1.34 4.66 0.68 5.32 0 6 C-0.64767793 8.57061311 -0.64767793 8.57061311 -1 11 C-1.66 11 -2.32 11 -3 11 C-2.69078116 9.54096742 -2.37751201 8.08279278 -2.0625 6.625 C-1.88847656 5.81289063 -1.71445312 5.00078125 -1.53515625 4.1640625 C-1 2 -1 2 0 0 Z " fill="#B0CDDC" transform="translate(433,545)"/>
<path d="M0 0 C0.99 0.33 1.98 0.66 3 1 C1.02 3.97 1.02 3.97 -1 7 C-1.99 6.01 -2.98 5.02 -4 4 C-3.01 4 -2.02 4 -1 4 C-0.67 2.68 -0.34 1.36 0 0 Z " fill="#41667E" transform="translate(386,511)"/>
<path d="M0 0 C0 0.66 0 1.32 0 2 C-0.66 2 -1.32 2 -2 2 C-2.33 2.66 -2.66 3.32 -3 4 C-5.5625 4.625 -5.5625 4.625 -8 5 C-7.67 3.68 -7.34 2.36 -7 1 C-4.50935112 0.31292445 -2.62113708 0 0 0 Z " fill="#49748D" transform="translate(613,501)"/>
<path d="M0 0 C1.80330533 3.60661066 2.46599103 6.08393425 3 10 C2.01 10.33 1.02 10.66 0 11 C0 7.37 0 3.74 0 0 Z " fill="#709EB2" transform="translate(608,482)"/>
<path d="M0 0 C3.0916909 2.52956528 3.90931332 5.22454612 5 9 C3.0625 8.4375 3.0625 8.4375 1 7 C0.25 3.375 0.25 3.375 0 0 Z " fill="#5E889C" transform="translate(623,455)"/>
<path d="M0 0 C1.875 0.3125 1.875 0.3125 4 1 C4.66 1.99 5.32 2.98 6 4 C3.69 4.33 1.38 4.66 -1 5 C-0.67 3.35 -0.34 1.7 0 0 Z " fill="#1D485E" transform="translate(403,407)"/>
<path d="M0 0 C0.66 0.99 1.32 1.98 2 3 C-0.75 8.875 -0.75 8.875 -3 10 C-2.67 7.69 -2.34 5.38 -2 3 C-1.34 3 -0.68 3 0 3 C0 2.01 0 1.02 0 0 Z " fill="#ACE5F7" transform="translate(622,396)"/>
<path d="M0 0 C4.7517398 0.43197635 6.92000054 1.32769295 10 5 C5.75354935 5 3.61475228 3.18249194 0 1 C0 0.67 0 0.34 0 0 Z " fill="#AED3DF" transform="translate(576,754)"/>
<path d="M0 0 C2 1 2 1 2.8125 2.75 C3.07534333 5.90411993 1.76338194 7.46073001 0 10 C-1.231394 6.30581799 -0.64432764 3.7943739 0 0 Z " fill="#5D8596" transform="translate(493,353)"/>
<path d="M0 0 C0.33 0.66 0.66 1.32 1 2 C-0.65 3.65 -2.3 5.3 -4 7 C-4.99 6.67 -5.98 6.34 -7 6 C-4.69 4.02 -2.38 2.04 0 0 Z " fill="#9EC5D1" transform="translate(495,712)"/>
<path d="M0 0 C0.6875 1.6875 0.6875 1.6875 1 4 C-0.3125 6.75 -0.3125 6.75 -2 9 C-2.66 9 -3.32 9 -4 9 C-2.94124926 5.59687262 -1.99097846 2.98646769 0 0 Z " fill="#A7C9D5" transform="translate(421,575)"/>
<path d="M0 0 C0.33 1.32 0.66 2.64 1 4 C-1.97 6.475 -1.97 6.475 -5 9 C-3.7508258 5.54074837 -2.32472205 2.85306797 0 0 Z " fill="#AACDDA" transform="translate(403,603)"/>
<path d="M0 0 C0.99 0.33 1.98 0.66 3 1 C1.55746343 4.36591866 -0.33264727 6.51047079 -3 9 C-2.01 6.03 -1.02 3.06 0 0 Z " fill="#B5D5E1" transform="translate(425,566)"/>
<path d="M0 0 C0.33 0 0.66 0 1 0 C1 2.64 1 5.28 1 8 C0.67 7.01 0.34 6.02 0 5 C-0.99 4.67 -1.98 4.34 -3 4 C-3.33 3.34 -3.66 2.68 -4 2 C-2.68 2 -1.36 2 0 2 C0 1.34 0 0.68 0 0 Z " fill="#608297" transform="translate(440,501)"/>
<path d="M0 0 C0.66 0.33 1.32 0.66 2 1 C1.01 2.485 1.01 2.485 0 4 C-0.38499891 5.65549531 -0.72793135 7.3222433 -1 9 C-1.33 9 -1.66 9 -2 9 C-2.33 6.36 -2.66 3.72 -3 1 C-2.01 0.67 -1.02 0.34 0 0 Z " fill="#5986A1" transform="translate(606,464)"/>
<path d="M0 0 C0.99 0.33 1.98 0.66 3 1 C3 2.65 3 4.3 3 6 C2.01 6.495 2.01 6.495 1 7 C0.67 4.69 0.34 2.38 0 0 Z " fill="#4C7A92" transform="translate(419,430)"/>
<path d="M0 0 C2.7972908 2.06756277 3.02692273 3.14440371 3.6875 6.6875 C3.790625 7.780625 3.89375 8.87375 4 10 C2 7 2 7 2 5 C1.34 5 0.68 5 0 5 C0 3.35 0 1.7 0 0 Z " fill="#27505F" transform="translate(434,359)"/>
<path d="M0 0 C0.66 0 1.32 0 2 0 C1.50168276 3.68754757 0.89932357 5.60490662 -2 8 C-1.125 1.125 -1.125 1.125 0 0 Z " fill="#10384D" transform="translate(490,360)"/>
</svg>
