<svg width="575" height="574" viewBox="0 0 575 574" fill="none" xmlns="http://www.w3.org/2000/svg">
<mask id="mask0_54_101" style="mask-type:luminance" maskUnits="userSpaceOnUse" x="0" y="0" width="532" height="574">
<path d="M0 0H532V574H0V0Z" fill="white"/>
</mask>
<g mask="url(#mask0_54_101)">
<path d="M287.287 573.677C237.271 573.677 187.792 560.401 144.177 535.234C110.677 515.859 81.8855 490.542 58.8022 459.896C36.4168 430.333 20.2084 397.063 10.5574 361.094C0.911538 325.12 -1.63534 288.224 2.91675 251.406C7.62508 213.349 19.823 176.99 39.198 143.49C65.4428 98.0261 100.563 62.3646 143.557 37.5052C184.469 13.8854 230.245 1.38022 279.802 0.223969V291.391L531.906 436.969C506.511 478.422 471.005 512.698 428.781 536.547C385.787 560.786 336.844 573.677 287.287 573.677Z" fill="#4A9BB4"/>
</g>
<mask id="mask1_54_101" style="mask-type:luminance" maskUnits="userSpaceOnUse" x="294" y="0" width="281" height="424">
<path d="M294.667 0H574.364V423.568H294.667V0Z" fill="white"/>
</mask>
<g mask="url(#mask1_54_101)">
<path d="M295.318 282.359V0.145844C331.286 1.07293 366.255 8.63543 399.213 22.6094C433.333 37.0417 464.057 57.7292 490.38 84.0521C516.703 110.375 537.391 141.099 551.823 175.219C566.797 210.568 574.365 248.083 574.365 286.833C574.365 337.396 563.635 379.849 539.703 423.464L295.318 282.359Z" fill="#FF9D45"/>
</g>
</svg>
