<svg width="276" height="283" viewBox="0 0 276 283" fill="none" xmlns="http://www.w3.org/2000/svg">
<path d="M57.606 101.402H71.1223V93.5629C67.3356 93.3892 63.4958 92.9165 59.6464 92.135C58.6383 95.092 57.905 98.1841 57.606 101.402Z" fill="#323754"/>
<path d="M59.6464 116.877C63.4958 116.095 67.3356 115.608 71.1223 115.449V107.61H57.606C57.905 110.828 58.6383 113.934 59.6464 116.877Z" fill="#323754"/>
<path d="M102.829 81.4164C97.6871 75.0538 90.4851 70.447 82.2509 68.6091C85.5552 72.5598 89.5927 78.1603 92.6462 84.8558C96.0229 83.9489 99.4285 82.7912 102.829 81.4019V81.4164Z" fill="#323754"/>
<path d="M71.1224 87.3403V72.4829C68.2764 75.8741 64.8129 80.6593 62.0681 86.2839C65.1119 86.8434 68.1413 87.1908 71.1224 87.3403Z" fill="#323754"/>
<path d="M71.1224 136.514V121.657C68.1413 121.807 65.1119 122.154 62.0681 122.713C64.8129 128.352 68.2764 133.123 71.1224 136.514Z" fill="#323754"/>
<path d="M66.2166 68.6235C57.9823 70.4614 50.7755 75.0682 45.6333 81.4163C49.0244 82.8056 52.4301 83.9488 55.8212 84.8557C58.8747 78.1602 62.9122 72.5694 66.2021 68.6235H66.2166Z" fill="#323754"/>
<path d="M101.628 191.646H104.397L103.003 187.97L101.628 191.646Z" fill="#323754"/>
<mask id="mask0_67_168" style="mask-type:luminance" maskUnits="userSpaceOnUse" x="37" y="244" width="77" height="39">
<path d="M37.7078 244.418H113.037V282.483H37.7078V244.418Z" fill="white"/>
</mask>
<g mask="url(#mask0_67_168)">
<path d="M75.6038 282.464L112.694 245.378H38.5327L75.6038 282.464Z" fill="#323754"/>
</g>
<path d="M77.3306 72.4731V87.3402C80.3262 87.1906 83.3555 86.853 86.409 86.2982C83.6642 80.6447 80.1863 75.8643 77.3306 72.4731Z" fill="#323754"/>
<path d="M51.3834 107.61H37.5969C38.0455 112.926 39.6229 117.933 42.1072 122.366C45.9325 120.75 49.7723 119.395 53.559 118.343C52.4543 114.952 51.6825 111.363 51.3979 107.625L51.3834 107.61Z" fill="#323754"/>
<path d="M53.559 90.6686C49.7481 89.5978 45.9084 88.2471 42.1072 86.6311C39.6374 91.0642 38.0455 96.0713 37.5969 101.387H51.3834C51.6728 97.6487 52.4543 94.0598 53.5445 90.6686H53.559Z" fill="#323754"/>
<path d="M45.6333 127.595C50.7755 133.943 57.9678 138.55 66.2166 140.388C62.9122 136.437 58.8747 130.846 55.8309 124.156C52.4542 125.063 49.0486 126.201 45.6478 127.595H45.6333Z" fill="#323754"/>
<path d="M94.9088 118.314C98.7196 119.385 102.545 120.741 106.361 122.352C108.83 117.919 110.408 112.926 110.856 107.61H97.0554C96.7708 111.349 95.9989 114.937 94.8943 118.314H94.9088Z" fill="#323754"/>
<mask id="mask1_67_168" style="mask-type:luminance" maskUnits="userSpaceOnUse" x="0" y="46" width="149" height="194">
<path d="M0 46.8345H148.849V239.479H0V46.8345Z" fill="white"/>
</mask>
<g mask="url(#mask1_67_168)">
<path d="M143.195 47.9776C142.428 47.7171 141.608 47.582 140.774 47.582H7.66499C3.53097 47.582 0.16394 50.9491 0.16394 55.0831V231.664C0.16394 235.798 3.53097 239.165 7.66499 239.165H140.774C144.912 239.165 148.275 235.798 148.275 231.664V55.0831C148.275 51.8656 146.229 49.0099 143.186 47.9776H143.195ZM57.6446 180.271L48.354 204.911C47.8957 206.117 46.738 206.923 45.45 206.923C44.1572 206.923 42.9995 206.127 42.5412 204.911L33.2506 180.271C32.6428 178.665 33.4628 176.88 35.0643 176.267C36.6658 175.659 38.4555 176.479 39.0633 178.081L45.45 195.022L51.8319 178.081C52.4397 176.479 54.2294 175.659 55.8309 176.267C57.4324 176.88 58.2428 178.665 57.6446 180.271ZM66.6363 203.806C66.6363 205.519 65.247 206.908 63.5345 206.908C61.8173 206.908 60.428 205.519 60.428 203.806V179.162C60.428 177.449 61.8173 176.06 63.5345 176.06C65.247 176.06 66.6363 177.449 66.6363 179.162V203.806ZM81.5419 206.908H72.3284C70.6111 206.908 69.2218 205.519 69.2218 203.806C69.2218 202.089 70.6111 200.7 72.3284 200.7H81.5419C83.2543 200.7 84.6484 199.335 84.6484 197.646C84.6484 195.958 83.2543 194.588 81.5419 194.588H78.5366C73.3944 194.588 69.2218 190.43 69.2218 185.322C69.2218 180.218 73.3944 176.06 78.5366 176.06H84.277C85.9894 176.06 87.3787 177.449 87.3787 179.162C87.3787 180.879 85.9894 182.268 84.277 182.268H78.5366C76.8242 182.268 75.4301 183.633 75.4301 185.322C75.4301 187.015 76.8242 188.38 78.5366 188.38H81.5419C86.6841 188.38 90.8567 192.538 90.8567 197.646C90.8567 202.75 86.6841 206.908 81.5419 206.908ZM113.398 206.71C113.041 206.85 112.67 206.908 112.308 206.908C111.054 206.908 109.872 206.141 109.399 204.897L106.742 197.844H99.2887L96.6308 204.897C96.023 206.503 94.2382 207.318 92.6318 206.71C91.0303 206.103 90.2248 204.313 90.8181 202.711L100.109 178.071C100.572 176.865 101.725 176.06 103.018 176.06C104.31 176.06 105.463 176.851 105.921 178.071L115.212 202.711C115.825 204.313 115.005 206.103 113.398 206.71ZM110.321 127.807C110.244 127.928 110.171 128.053 110.084 128.164C102.386 139.789 89.1925 147.479 74.229 147.479C50.5295 147.479 31.239 128.203 31.239 104.494C31.239 95.9457 33.7619 87.9719 38.084 81.2765C38.1709 81.1028 38.2818 80.9436 38.3928 80.7941C46.0964 69.1928 59.2847 61.5181 74.229 61.5181C89.1683 61.5181 102.357 69.1928 110.06 80.8085C110.186 80.9533 110.282 81.1269 110.384 81.3054C114.691 87.996 117.2 95.9602 117.2 104.494C117.2 113.027 114.657 121.087 110.306 127.807H110.321Z" fill="#323754"/>
</g>
<path d="M154.498 203.58L199.34 158.733L154.498 113.905V203.58Z" fill="#323754"/>
<mask id="mask2_67_168" style="mask-type:luminance" maskUnits="userSpaceOnUse" x="148" y="0" width="128" height="156">
<path d="M148.849 0H276V155.506H148.849V0Z" fill="white"/>
</mask>
<g mask="url(#mask2_67_168)">
<path d="M193.647 -0.0239258L149.297 44.3263C149.297 44.3263 149.384 44.4132 149.432 44.4517C149.741 44.7026 150.03 44.9631 150.315 45.2332C150.378 45.2863 150.426 45.3442 150.489 45.3972C150.812 45.7204 151.111 46.0533 151.396 46.4006C151.458 46.4778 151.521 46.5646 151.579 46.6369C151.815 46.936 152.028 47.2447 152.24 47.5583C152.288 47.6451 152.351 47.7175 152.399 47.8043C152.635 48.1902 152.862 48.5761 153.06 48.9861C153.098 49.0585 153.132 49.1357 153.171 49.2225C153.33 49.5698 153.479 49.9171 153.619 50.2789C153.653 50.3899 153.706 50.4864 153.74 50.6021C153.89 51.0363 154.029 51.4704 154.126 51.919C154.14 51.9769 154.15 52.03 154.164 52.0927C154.251 52.4882 154.324 52.8983 154.377 53.2938C154.386 53.4192 154.41 53.5447 154.425 53.6701C154.473 54.138 154.512 54.6011 154.512 55.0835V105.126L203.749 154.348L275.899 82.1982L193.647 -0.0239258ZM237.019 89.8874L218.104 88.9419L188.828 118.218C188.245 118.801 187.463 119.125 186.629 119.125C185.799 119.125 185.018 118.801 184.434 118.218L181.043 114.827C179.962 113.746 179.822 112.043 180.72 110.803L197.338 87.8999L177.763 86.9159L165.119 99.5591C163.904 100.78 161.94 100.78 160.72 99.5591L156.822 95.6615C155.79 94.6292 155.616 93.0421 156.388 91.8121L165.206 77.8374L156.388 63.8628C155.616 62.6376 155.79 61.0312 156.822 60.0134L160.72 56.1158C161.94 54.8953 163.904 54.8953 165.119 56.1158L177.763 68.759L197.338 67.7798L180.72 44.8762C179.822 43.6317 179.962 41.9289 181.043 40.8484L184.434 37.4572C185.65 36.2561 187.613 36.2416 188.828 37.4572L218.104 66.733L237.019 65.7924C240.984 65.5898 247.009 68.0403 250.371 71.2433C252.474 73.2403 253.579 75.5268 253.579 77.8374C253.579 80.1481 252.474 82.4442 250.371 84.4316C247.009 87.6395 241.008 90.0851 237.019 89.8874Z" fill="#323754"/>
</g>
<path d="M88.8209 92.135C84.9715 92.902 81.1221 93.3892 77.3306 93.5484V101.387H90.8469C90.5575 98.1696 89.8243 95.0775 88.8209 92.135Z" fill="#323754"/>
<path d="M237.332 71.9858L217.038 73.0085C216.165 73.0567 215.311 72.719 214.689 72.1016L190.917 48.325L205.746 68.7587C206.416 69.68 206.527 70.8956 206.03 71.9279C205.533 72.9554 204.53 73.6259 203.387 73.6886L176.706 75.0296C175.814 75.0682 174.979 74.745 174.362 74.1228L163.171 62.9315L171.241 75.7243C171.554 76.2211 171.728 76.7952 171.728 77.3789V78.2713C171.728 78.8549 171.564 79.429 171.241 79.9258L163.171 92.7186L174.362 81.5273C174.946 80.9437 175.737 80.6205 176.557 80.6205C176.61 80.6205 176.658 80.6205 176.706 80.6205L203.387 81.9615C204.53 82.0242 205.533 82.6947 206.03 83.727C206.527 84.7545 206.416 85.9604 205.746 86.8914L190.917 107.325L214.689 83.5533C215.311 82.9311 216.18 82.6079 217.038 82.6465L237.332 83.6643C239.131 83.7367 243.579 82.3088 246.087 79.9258C246.893 79.154 247.366 78.3822 247.366 77.8275C247.366 77.2679 246.893 76.4961 246.087 75.7243C243.579 73.3413 239.18 71.899 237.332 71.9858Z" fill="#323754"/>
<path d="M82.2365 140.388C90.4707 138.55 97.6872 133.943 102.82 127.595C99.4141 126.201 96.0133 125.062 92.6318 124.141C89.5783 130.837 85.5408 136.437 82.2365 140.388Z" fill="#323754"/>
<path d="M77.3306 121.657V136.514C80.1766 133.123 83.6546 128.338 86.3994 122.699C83.3411 122.139 80.3117 121.792 77.3306 121.657Z" fill="#323754"/>
<path d="M94.9087 90.6928C96.0133 94.0695 96.7803 97.6632 97.0698 101.402H110.866C110.417 96.0859 108.845 91.0884 106.37 86.6553C102.559 88.2713 98.7195 89.6267 94.9087 90.6928Z" fill="#323754"/>
<path d="M90.8469 107.61H77.3306V115.449C81.1076 115.622 84.9474 116.095 88.8064 116.862C89.8146 113.92 90.5478 110.813 90.8469 107.61Z" fill="#323754"/>
</svg>
