<svg width="236" height="261" viewBox="0 0 236 261" fill="none" xmlns="http://www.w3.org/2000/svg">
<mask id="mask0_67_132" style="mask-type:luminance" maskUnits="userSpaceOnUse" x="99" y="197" width="105" height="64">
<path d="M203.706 197.487H99.8454V260.758H203.706V197.487Z" fill="white"/>
</mask>
<g mask="url(#mask0_67_132)">
<path d="M191.706 197.874L203.596 260.952H152.299L147.514 246.108L141.679 260.952H100.175L109.598 207.52L191.706 197.874Z" fill="#323754"/>
</g>
<path d="M190.803 73.5764C202.28 75.4381 211.805 83.465 215.585 94.4608L234.555 149.641H207.411L192.38 119.58L190.803 73.5764Z" fill="#4A9BB4"/>
<path d="M158.923 61.6099L171.568 51.3232L169.426 37.8212L174.927 31.6067C174.927 31.6067 172.425 -2.04417 142.634 0.0981114C125.488 0.0981114 116.915 16.4401 116.487 33.8816C120.252 38.5757 124.514 40.445 124.514 40.445L127.418 55.8239L158.923 61.6099Z" fill="#323754"/>
<path d="M216.833 143.134L212.385 177.433C210.997 188.126 201.241 195.694 190.541 194.382L164.114 191.144L171.067 137.526L216.833 143.134Z" fill="#323754"/>
<path d="M146.502 66.9182L194.621 74.1527V203.96L104.176 219.619L111.842 143.809L108.411 78.5737L146.502 66.9182Z" fill="#4A9BB4"/>
<path d="M157.198 41.3511L158.741 55.7669C159.238 60.3965 160.724 64.863 163.098 68.867L163.223 69.0794C162.779 72.1657 161.801 74.8389 160.337 77.1442C152.807 89.0196 134.448 85.5351 131.991 71.688C131.961 71.5325 131.934 71.3771 131.911 71.2216C133.932 66.2925 134.71 60.9387 134.171 55.638L132.999 44.1076L157.198 41.3511Z" fill="white"/>
<path d="M147.37 85.2054C152.913 85.2054 157.964 82.4564 161.05 77.5918C162.593 75.1613 163.606 72.3365 164.057 69.1971C164.083 69.0075 164.046 68.8141 163.947 68.6511L163.822 68.4387C161.494 64.5106 160.064 60.2185 159.579 55.6761L158.032 41.264C158.009 41.0403 157.899 40.8356 157.725 40.6953C157.547 40.555 157.323 40.4905 157.103 40.5171L132.905 43.2736C132.446 43.3229 132.116 43.7362 132.162 44.195L133.333 55.7216C133.857 60.8668 133.094 66.1183 131.134 70.9033C131.073 71.0436 131.058 71.1991 131.081 71.3507C131.104 71.5138 131.13 71.673 131.161 71.836C132.351 78.5473 137.277 83.5446 144.011 84.8717C145.14 85.0954 146.267 85.2054 147.37 85.2054ZM162.347 69.2501C161.911 72.0332 160.997 74.5357 159.628 76.6931C156.311 81.9256 150.449 84.4243 144.337 83.2186C138.3 82.0318 133.887 77.5538 132.818 71.5403C132.806 71.4683 132.791 71.3924 132.78 71.3204C134.778 66.3382 135.551 60.8934 135.009 55.5509L133.921 44.8509L156.451 42.284L157.903 55.8543C158.415 60.6204 159.909 65.1248 162.347 69.2501Z" fill="#323754"/>
<path d="M125.325 39.2167C127.289 54.9558 137.64 66.6227 148.447 65.2729C159.253 63.9269 166.419 50.076 164.455 34.3369C163.708 28.3347 161.843 19.6556 161.843 19.6556C161.843 19.6556 149.334 12.425 142.645 13.2591C136.594 14.0175 125.651 23.3525 125.651 23.3525C125.651 23.3525 124.461 32.297 125.325 39.2167Z" fill="white"/>
<path d="M146.748 66.2206C147.351 66.2206 147.95 66.1827 148.549 66.1107C153.71 65.4661 158.286 62.0878 161.433 56.605L159.973 55.7671C157.095 60.7834 152.966 63.8622 148.341 64.4386C143.756 65.0111 139.032 63.0774 135.032 58.99L133.83 60.1692C137.694 64.1163 142.221 66.2206 146.748 66.2206Z" fill="#323754"/>
<path d="M186.185 71.8778L163.158 144.313L151.082 142.126L171.61 69.5156L186.185 71.8778Z" fill="#323754"/>
<path d="M109.245 78.3159C103.466 80.2952 98.958 84.8868 97.0774 90.7032L77.4405 152.48L100.884 155.157L116.555 116.217L109.245 78.3159Z" fill="#4A9BB4"/>
<path d="M202.212 184.672C202.212 184.672 146.168 179.477 151.886 139.854L164.114 141.314C160.186 169.441 205.022 176.451 205.022 176.451L202.212 184.672Z" fill="#323754"/>
<path d="M205.208 139.854L174.435 138.125L169.6 124.051L167.416 130.925L156.936 130.413L152.523 131.994L151.552 135.285L150.54 139.096L149.307 143.362L151.552 143.733L151.082 147.024H155.514L159.329 148.594C159.329 148.594 165.831 151.1 170.844 150.126C178.844 152.147 202.284 155.756 202.284 155.756L205.208 139.854Z" fill="white"/>
<path d="M197.837 138.387C197.837 138.387 198.049 147.328 197.226 154.956C207.737 159.662 215.384 162.544 230.092 161.072C233.433 160.739 235.871 157.732 235.484 154.395C234.9 149.375 232.488 143.714 232.488 143.714L197.837 138.387Z" fill="#4A9BB4"/>
<path d="M143.756 110.761L140.53 191.929L136.662 193.275L106.731 177.486L103.167 102.177L107.034 100.831L143.756 110.761Z" fill="#323754"/>
<path d="M139.885 112.107L136.662 193.275L102.86 178.832L103.167 102.177L139.885 112.107Z" fill="#323754"/>
<path d="M101.233 157.076L117.86 161.755L125.223 154.945L135.9 150.687L137.019 152.852L130.107 157.25L132.131 161.019L139.741 163.04L142.251 160.947L144.556 162.555L144.833 166.46V170.859L143.578 171.556L144.208 174.347L141.557 175.136L141.864 178.032L131.487 178.677L120.495 172.842L95.9286 169.422L101.233 157.076Z" fill="white"/>
<path d="M106.939 156.985L105.821 171.386C105.821 171.386 94.1389 171.124 84.929 168.254C77.8651 166.055 74.483 157.975 77.9258 151.43C82.017 143.661 86.9423 144.677 86.9423 144.677L101.438 153.781L106.939 156.985Z" fill="#4A9BB4"/>
<path d="M162.066 37.4535C162.066 38.0375 162.093 38.6138 162.146 39.1863C162.203 39.7589 162.286 40.3162 162.392 40.8546C162.502 41.3969 162.635 41.9087 162.79 42.3941C162.946 42.8794 163.124 43.3268 163.325 43.7401C163.526 44.1534 163.742 44.5212 163.977 44.8472C164.212 45.1733 164.462 45.4463 164.72 45.67C164.982 45.8937 165.251 46.0606 165.528 46.1743C165.808 46.2881 166.085 46.3449 166.37 46.3449C166.654 46.3449 166.931 46.2881 167.208 46.1743C167.488 46.0606 167.757 45.8937 168.015 45.67C168.277 45.4463 168.527 45.1733 168.762 44.8472C168.997 44.5212 169.213 44.1534 169.414 43.7401C169.615 43.3268 169.793 42.8794 169.949 42.3941C170.104 41.9087 170.237 41.3969 170.347 40.8546C170.453 40.3162 170.537 39.7589 170.593 39.1863C170.647 38.6138 170.673 38.0375 170.673 37.4535C170.673 36.8696 170.647 36.2895 170.593 35.717C170.537 35.1444 170.453 34.5871 170.347 34.0486C170.237 33.5102 170.104 32.9946 169.949 32.5092C169.793 32.0239 169.615 31.5765 169.414 31.1632C169.213 30.7499 168.997 30.3821 168.762 30.056C168.527 29.7338 168.277 29.457 168.015 29.2333C167.757 29.0096 167.488 28.8427 167.208 28.729C166.931 28.6152 166.654 28.5583 166.37 28.5583C166.085 28.5583 165.808 28.6152 165.528 28.729C165.251 28.8427 164.982 29.0096 164.72 29.2333C164.462 29.457 164.212 29.7338 163.977 30.056C163.742 30.3821 163.526 30.7499 163.325 31.1632C163.124 31.5765 162.946 32.0239 162.79 32.5092C162.635 32.9946 162.502 33.5102 162.392 34.0486C162.286 34.5871 162.203 35.1444 162.146 35.717C162.093 36.2895 162.066 36.8696 162.066 37.4535Z" fill="white"/>
<path d="M166.37 47.1866C169.255 47.1866 171.515 42.9097 171.515 37.4535C171.515 31.9935 169.255 27.7166 166.37 27.7166C164.978 27.7166 163.689 28.6872 162.745 30.4465L164.227 31.2428C164.857 30.0712 165.638 29.4 166.37 29.4C168.008 29.4 169.831 32.7064 169.831 37.4535C169.831 42.1968 168.008 45.5031 166.37 45.5031C165.498 45.5031 164.796 44.5932 164.455 44.0509L163.029 44.942C163.935 46.3904 165.122 47.1866 166.37 47.1866Z" fill="#323754"/>
<path d="M149.285 31.6979C149.285 31.9367 149.33 32.1642 149.421 32.3842C149.512 32.6041 149.641 32.7974 149.812 32.9681C149.978 33.1349 150.172 33.2638 150.392 33.3548C150.612 33.4458 150.843 33.4913 151.082 33.4913C151.317 33.4913 151.548 33.4458 151.768 33.3548C151.988 33.2638 152.181 33.1349 152.348 32.9681C152.519 32.7974 152.648 32.6041 152.739 32.3842C152.83 32.1642 152.875 31.9367 152.875 31.6979C152.875 31.459 152.83 31.2315 152.739 31.0116C152.648 30.7917 152.519 30.5945 152.348 30.4277C152.181 30.2608 151.988 30.1319 151.768 30.0409C151.548 29.9461 151.317 29.9006 151.082 29.9006C150.843 29.9006 150.612 29.9461 150.392 30.0409C150.172 30.1319 149.978 30.2608 149.812 30.4277C149.641 30.5945 149.512 30.7917 149.421 31.0116C149.33 31.2315 149.285 31.459 149.285 31.6979Z" fill="#323754"/>
<path d="M133.337 32.5998C133.337 32.8387 133.383 33.0662 133.474 33.2861C133.565 33.506 133.697 33.6994 133.864 33.87C134.031 34.0369 134.228 34.1658 134.448 34.2568C134.668 34.3478 134.896 34.3933 135.134 34.3933C135.369 34.3933 135.601 34.3478 135.821 34.2568C136.041 34.1658 136.234 34.0369 136.401 33.87C136.571 33.6994 136.7 33.506 136.791 33.2861C136.882 33.0662 136.928 32.8387 136.928 32.5998C136.928 32.361 136.882 32.1335 136.791 31.9136C136.7 31.6936 136.571 31.5003 136.401 31.3296C136.234 31.1628 136.041 31.0339 135.821 30.9429C135.601 30.8519 135.369 30.8064 135.134 30.8064C134.896 30.8064 134.668 30.8519 134.448 30.9429C134.228 31.0339 134.031 31.1628 133.864 31.3296C133.697 31.5003 133.565 31.6936 133.474 31.9136C133.383 32.1335 133.337 32.361 133.337 32.5998Z" fill="#323754"/>
<path d="M154.278 29.0093L155.704 28.1144C155.632 28.0007 153.948 25.3655 149.948 26.139L150.267 27.7921C153.091 27.2461 154.229 28.9372 154.278 29.0093Z" fill="#323754"/>
<path d="M132.931 30.4921C134.421 28.964 135.82 28.509 135.832 28.5015L135.335 26.8938C135.263 26.9165 133.538 27.4625 131.729 29.3129L132.931 30.4921Z" fill="#323754"/>
<path d="M146.578 44.0963L147.017 42.4735L141.25 40.9114L143.514 37.1387C143.582 37.0211 143.624 36.8922 143.631 36.7557L144.048 30.1772L142.369 30.071L141.967 36.4486L139.233 41.0023C139.1 41.2261 139.078 41.5028 139.176 41.7493C139.275 41.992 139.483 42.1778 139.737 42.246L146.578 44.0963Z" fill="#323754"/>
<path d="M144.181 52.6846C147.711 52.6846 150.111 49.8484 150.214 49.7233L148.921 48.6465C148.898 48.6692 146.816 51.1035 143.992 50.9973C141.929 50.9177 139.912 49.5224 137.997 46.8455L136.632 47.8237C138.865 50.9518 141.326 52.586 143.942 52.6808C144.022 52.6846 144.101 52.6846 144.181 52.6846Z" fill="#323754"/>
<path d="M151.727 136.036L155.92 135.194L160.262 135.452L160.36 133.773L155.913 133.511C155.84 133.507 155.768 133.511 155.696 133.526L151.397 134.383L151.727 136.036Z" fill="#323754"/>
<path d="M150.6 139.525L155.446 138.933L159.541 139.335L159.704 137.659L155.518 137.25C155.457 137.242 155.397 137.242 155.332 137.25L150.399 137.852L150.6 139.525Z" fill="#323754"/>
<path d="M151.34 144.219L155.306 142.926L159.545 143.32L159.7 141.644L155.291 141.235C155.177 141.223 155.059 141.235 154.95 141.273L150.82 142.619L151.34 144.219Z" fill="#323754"/>
<path d="M202.223 139.877C202.223 139.877 215.934 138.046 216.488 137.97L216.26 136.302C215.706 136.378 202 138.209 202 138.209L202.223 139.877Z" fill="white"/>
<path d="M194.633 121.886L190.09 110.613L188.532 111.239L193.071 122.515L194.633 121.886Z" fill="white"/>
<path d="M101.108 151.976L94.0782 147.563L93.1834 148.988L100.213 153.402L101.108 151.976Z" fill="white"/>
<path d="M140.135 169.778C140.78 169.577 144.022 168.557 144.678 168.197L143.87 166.722C143.533 166.904 141.451 167.602 139.635 168.17L140.135 169.778Z" fill="#323754"/>
<path d="M140.613 173.285C141.697 172.97 143.309 172.508 143.506 172.462C143.495 172.466 143.43 172.477 143.351 172.477V170.794C143.199 170.794 143.146 170.794 140.143 171.67L140.613 173.285Z" fill="#323754"/>
<path d="M141.368 176.114L141.125 174.449L136.473 175.12L136.712 176.789L141.368 176.114Z" fill="#323754"/>
<path d="M194.174 230.27C194.489 230.27 194.675 230.255 194.705 230.251L194.546 228.575C194.519 228.579 191.982 228.783 188.703 227.259C184.346 225.238 180.657 221.083 178.025 215.243L176.49 215.933C180.054 223.847 184.771 227.316 188.1 228.836C190.883 230.107 193.177 230.27 194.174 230.27Z" fill="white"/>
<path d="M27.3415 64.1389C27.3415 65.0564 27.387 65.974 27.478 66.8878C27.569 67.8054 27.7017 68.7116 27.8837 69.614C28.0619 70.5164 28.2857 71.4074 28.5511 72.2871C28.8165 73.1668 29.1274 74.0313 29.48 74.8806C29.8326 75.7299 30.2232 76.5603 30.6554 77.3717C31.0915 78.1793 31.5616 78.968 32.0735 79.7339C32.5854 80.496 33.1314 81.2354 33.7153 81.9444C34.2992 82.6572 34.9134 83.336 35.5656 83.9881C36.214 84.6365 36.8965 85.2545 37.6055 85.8346C38.3145 86.4186 39.0539 86.9646 39.816 87.4764C40.5819 87.9883 41.3706 88.4585 42.182 88.8945C42.9896 89.3267 43.82 89.7211 44.6693 90.0699C45.5187 90.4225 46.3832 90.7334 47.2628 90.9989C48.1425 91.2643 49.0335 91.488 49.9359 91.67C50.8383 91.8482 51.7445 91.9809 52.6621 92.0719C53.5759 92.1629 54.4935 92.2084 55.4111 92.2084C56.3324 92.2084 57.25 92.1629 58.1638 92.0719C59.0776 91.9809 59.9876 91.8482 60.89 91.67C61.7886 91.488 62.6796 91.2643 63.5593 90.9989C64.439 90.7334 65.3035 90.4225 66.1528 90.0699C67.0021 89.7211 67.8325 89.3267 68.6439 88.8945C69.4553 88.4585 70.244 87.9883 71.0061 87.4764C71.772 86.9646 72.5076 86.4186 73.2204 85.8346C73.9294 85.2545 74.6119 84.6365 75.2603 83.9881C75.9125 83.336 76.5267 82.6572 77.1106 81.9444C77.6945 81.2354 78.2405 80.496 78.7524 79.7339C79.2643 78.968 79.7344 78.1793 80.1667 77.3717C80.6027 76.5603 80.9933 75.7299 81.3459 74.8806C81.6985 74.0313 82.0056 73.1668 82.2748 72.2871C82.5403 71.4074 82.764 70.5164 82.9422 69.614C83.1242 68.7116 83.2569 67.8054 83.3479 66.8878C83.4389 65.974 83.4806 65.0564 83.4806 64.1389C83.4806 63.2175 83.4389 62.2999 83.3479 61.3861C83.2569 60.4723 83.1242 59.5624 82.9422 58.6637C82.764 57.7613 82.5403 56.8703 82.2748 55.9906C82.0056 55.111 81.6985 54.2465 81.3459 53.3971C80.9933 52.5478 80.6027 51.7174 80.1667 50.906C79.7344 50.0946 79.2643 49.306 78.7524 48.5438C78.2405 47.7779 77.6945 47.0423 77.1106 46.3295C76.5267 45.6205 75.9125 44.938 75.2603 44.2896C74.6119 43.6412 73.9294 43.0232 73.2204 42.4393C72.5076 41.8554 71.772 41.3094 71.0061 40.7975C70.244 40.2894 69.4553 39.8155 68.6439 39.3832C67.8325 38.951 67.0021 38.5567 66.1528 38.204C65.3035 37.8514 64.439 37.5443 63.5593 37.2751C62.6796 37.0097 61.7886 36.786 60.89 36.6077C59.9876 36.4295 59.0776 36.293 58.1638 36.202C57.25 36.1148 56.3324 36.0693 55.4111 36.0693C54.4935 36.0693 53.5759 36.1148 52.6621 36.202C51.7445 36.293 50.8383 36.4295 49.9359 36.6077C49.0335 36.786 48.1425 37.0097 47.2628 37.2751C46.3832 37.5443 45.5187 37.8514 44.6693 38.204C43.82 38.5567 42.9896 38.951 42.182 39.3832C41.3706 39.8155 40.5819 40.2894 39.816 40.7975C39.0539 41.3094 38.3145 41.8554 37.6055 42.4393C36.8965 43.0232 36.214 43.6412 35.5656 44.2896C34.9134 44.938 34.2992 45.6205 33.7153 46.3295C33.1314 47.0423 32.5854 47.7779 32.0735 48.5438C31.5616 49.306 31.0915 50.0946 30.6554 50.906C30.2232 51.7174 29.8326 52.5478 29.48 53.3971C29.1274 54.2465 28.8165 55.111 28.5511 55.9906C28.2857 56.8703 28.0619 57.7613 27.8837 58.6637C27.7017 59.5624 27.569 60.4723 27.478 61.3861C27.387 62.2999 27.3415 63.2175 27.3415 64.1389Z" fill="white"/>
<path d="M55.4112 93.0503C71.3551 93.0503 84.3225 80.0791 84.3225 64.1391C84.3225 48.1952 71.3551 35.2278 55.4112 35.2278C39.4712 35.2278 26.5 48.1952 26.5 64.1391C26.5 80.0791 39.4712 93.0503 55.4112 93.0503ZM55.4112 36.9113C70.4261 36.9113 82.6428 49.1242 82.6428 64.1391C82.6428 79.1502 70.4261 91.3668 55.4112 91.3668C40.4001 91.3668 28.1835 79.1502 28.1835 64.1391C28.1835 49.1242 40.4001 36.9113 55.4112 36.9113Z" fill="#323754"/>
<path d="M53.0376 43.137C53.0376 43.4517 53.0983 43.755 53.2196 44.047C53.3372 44.3389 53.5116 44.593 53.7315 44.8167C53.9552 45.0404 54.2131 45.211 54.505 45.3324C54.7932 45.4537 55.0965 45.5144 55.4112 45.5144C55.7259 45.5144 56.0293 45.4537 56.3212 45.3324C56.6132 45.211 56.871 45.0404 57.0909 44.8167C57.3146 44.593 57.4852 44.3389 57.6066 44.047C57.7279 43.755 57.7886 43.4517 57.7886 43.137C57.7886 42.8223 57.7279 42.519 57.6066 42.227C57.4852 41.9388 57.3146 41.681 57.0909 41.4573C56.871 41.2336 56.6132 41.063 56.3212 40.9416C56.0293 40.8241 55.7259 40.7634 55.4112 40.7634C55.0965 40.7634 54.7932 40.8241 54.505 40.9416C54.2131 41.063 53.9552 41.2336 53.7315 41.4573C53.5116 41.681 53.3372 41.9388 53.2196 42.227C53.0983 42.519 53.0376 42.8223 53.0376 43.137Z" fill="#4A9BB4"/>
<path d="M53.0376 85.137C53.0376 85.4517 53.0983 85.755 53.2196 86.047C53.3372 86.3389 53.5116 86.5968 53.7315 86.8167C53.9552 87.0404 54.2131 87.211 54.505 87.3324C54.7932 87.4537 55.0965 87.5144 55.4112 87.5144C55.7259 87.5144 56.0293 87.4537 56.3212 87.3324C56.6132 87.211 56.871 87.0404 57.0909 86.8167C57.3146 86.5968 57.4852 86.3389 57.6066 86.047C57.7279 85.755 57.7886 85.4517 57.7886 85.137C57.7886 84.8223 57.7279 84.519 57.6066 84.2308C57.4852 83.9388 57.3146 83.681 57.0909 83.4573C56.871 83.2374 56.6132 83.063 56.3212 82.9454C56.0293 82.8241 55.7259 82.7634 55.4112 82.7634C55.0965 82.7634 54.7932 82.8241 54.505 82.9454C54.2131 83.063 53.9552 83.2374 53.7315 83.4573C53.5116 83.681 53.3372 83.9388 53.2196 84.2308C53.0983 84.519 53.0376 84.8223 53.0376 85.137Z" fill="#4A9BB4"/>
<path d="M74.0394 64.1391C74.0394 64.4538 74.0962 64.7571 74.2176 65.0491C74.3389 65.3372 74.5095 65.5951 74.7332 65.8188C74.9569 66.0387 75.2148 66.2131 75.5029 66.3344C75.7949 66.452 76.0982 66.5126 76.4129 66.5126C76.7276 66.5126 77.031 66.452 77.3229 66.3344C77.6111 66.2131 77.8689 66.0387 78.0926 65.8188C78.3163 65.5951 78.487 65.3372 78.6083 65.0491C78.7296 64.7571 78.7865 64.4538 78.7865 64.1391C78.7865 63.8244 78.7296 63.521 78.6083 63.2291C78.487 62.9371 78.3163 62.6831 78.0926 62.4594C77.8689 62.2357 77.6111 62.0651 77.3229 61.9437C77.031 61.8224 76.7276 61.7617 76.4129 61.7617C76.0982 61.7617 75.7949 61.8224 75.5029 61.9437C75.2148 62.0651 74.9569 62.2357 74.7332 62.4594C74.5095 62.6831 74.3389 62.9371 74.2176 63.2291C74.0962 63.521 74.0394 63.8244 74.0394 64.1391Z" fill="#4A9BB4"/>
<path d="M32.0357 64.1391C32.0357 64.4538 32.0964 64.7571 32.2177 65.0491C32.339 65.3372 32.5096 65.5951 32.7334 65.8188C32.9571 66.0387 33.2111 66.2131 33.5031 66.3344C33.795 66.452 34.0983 66.5126 34.4131 66.5126C34.7278 66.5126 35.0311 66.452 35.323 66.3344C35.6112 66.2131 35.869 66.0387 36.0928 65.8188C36.3127 65.5951 36.4871 65.3372 36.6084 65.0491C36.726 64.7571 36.7866 64.4538 36.7866 64.1391C36.7866 63.8244 36.726 63.521 36.6084 63.2291C36.4871 62.9371 36.3127 62.6831 36.0928 62.4594C35.869 62.2357 35.6112 62.0651 35.323 61.9437C35.0311 61.8224 34.7278 61.7617 34.4131 61.7617C34.0983 61.7617 33.795 61.8224 33.5031 61.9437C33.2111 62.0651 32.9571 62.2357 32.7334 62.4594C32.5096 62.6831 32.339 62.9371 32.2177 63.2291C32.0964 63.521 32.0357 63.8244 32.0357 64.1391Z" fill="#4A9BB4"/>
<path d="M65.8912 53.1735L64.6059 52.0891L52.7722 66.1561L54.0613 67.2405L65.8912 53.1735Z" fill="#323754"/>
<path d="M58.2019 66.763L43.8581 46.4587L42.4855 47.4294L56.8293 67.7336L58.2019 66.763Z" fill="#323754"/>
<path d="M41.2153 151.961C41.7537 150.38 42.4059 149.026 43.1756 147.908C43.9415 146.789 44.9577 145.485 46.2165 143.995C47.2175 142.831 47.9986 141.845 48.5559 141.041C49.1171 140.237 49.5873 139.35 49.9702 138.383C50.357 137.416 50.5503 136.362 50.5503 135.221V135.187C50.5503 133.602 50.1598 132.373 49.3787 131.501C48.5976 130.625 47.4943 130.189 46.0762 130.189C44.6771 130.189 43.5889 130.671 42.8078 131.638C42.0267 132.605 41.6248 133.962 41.6021 135.71V135.744H31.6755V135.71C31.7931 132.635 32.4339 130.007 33.5979 127.831C34.7619 125.651 36.3999 123.99 38.5081 122.849C40.6162 121.708 43.1263 121.135 46.0383 121.135C49.0678 121.135 51.6651 121.651 53.8339 122.674C55.9989 123.702 57.6483 125.184 58.7782 127.13C59.9081 129.075 60.4731 131.426 60.4731 134.174V134.209C60.4731 136.002 60.2228 137.621 59.7223 139.066C59.2218 140.51 58.6038 141.777 57.872 142.857C57.1364 143.942 56.162 145.193 54.9524 146.615C53.8111 147.991 52.9201 149.144 52.2793 150.077C51.6385 151.009 51.0963 152.086 50.6527 153.307C50.2091 154.532 49.9892 155.878 49.9892 157.345H40.4115C40.4115 155.343 40.6807 153.546 41.2153 151.961ZM40.4494 162.904H50.0233V172.478H40.4494V162.904Z" fill="#4A9BB4"/>
<path d="M6.20699 219.976H90.2412C92.2583 212.961 92.2583 206.402 90.2412 200.286H6.20699C7.80706 206.534 7.57956 213.143 6.20699 219.976Z" fill="white"/>
<path d="M69.0308 200.286C70.0393 206.849 70.0393 213.412 69.0308 219.976H75.7192C77.0425 213.412 77.0425 206.849 75.7192 200.286H69.0308Z" fill="#323754"/>
<path d="M6.20693 220.817H90.2411C90.6165 220.817 90.9463 220.567 91.0525 220.207C93.1038 213.063 93.1 206.269 91.0411 200.02C90.9274 199.675 90.6051 199.444 90.2411 199.444H6.20693C5.9453 199.444 5.69884 199.565 5.5396 199.77C5.38035 199.975 5.32726 200.244 5.39172 200.494C6.8515 206.189 6.84771 212.51 5.38035 219.809C5.33106 220.059 5.39551 220.313 5.55476 220.51C5.71401 220.704 5.95289 220.817 6.20693 220.817ZM89.6041 219.134H7.22688C8.46674 212.438 8.48191 206.527 7.27238 201.127H89.6269C91.3369 206.712 91.3293 212.764 89.6041 219.134Z" fill="#323754"/>
<mask id="mask1_67_132" style="mask-type:luminance" maskUnits="userSpaceOnUse" x="4" y="241" width="88" height="20">
<path d="M91.1096 241.167H4.72083V260.758H91.1096V241.167Z" fill="white"/>
</mask>
<g mask="url(#mask1_67_132)">
<path d="M4.8081 260.952H88.8461C90.8594 253.937 90.8594 247.378 88.8461 241.262H4.8081C6.41196 247.514 6.18067 254.119 4.8081 260.952Z" fill="#4A9BB4"/>
</g>
<mask id="mask2_67_132" style="mask-type:luminance" maskUnits="userSpaceOnUse" x="13" y="241" width="9" height="20">
<path d="M21.222 241.167H13.4568V260.758H21.222V241.167Z" fill="white"/>
</mask>
<g mask="url(#mask2_67_132)">
<path d="M13.5212 241.262C14.5298 247.825 14.5298 254.389 13.5212 260.952H20.2097C21.533 254.389 21.533 247.825 20.2097 241.262H13.5212Z" fill="white"/>
</g>
<mask id="mask3_67_132" style="mask-type:luminance" maskUnits="userSpaceOnUse" x="27" y="241" width="8" height="20">
<path d="M34.811 241.167H27.0458V260.758H34.811V241.167Z" fill="white"/>
</mask>
<g mask="url(#mask3_67_132)">
<path d="M27.0495 241.262C28.0581 247.825 28.0581 254.389 27.0495 260.952H33.738C35.0613 254.389 35.0613 247.825 33.738 241.262H27.0495Z" fill="white"/>
</g>
<mask id="mask4_67_132" style="mask-type:luminance" maskUnits="userSpaceOnUse" x="0" y="220" width="86" height="21">
<path d="M85.2855 220.783H0.000115751V240.196H85.2855V220.783Z" fill="white"/>
</mask>
<g mask="url(#mask4_67_132)">
<path d="M0.716715 239.59H83.3442C85.3234 233.159 85.3234 227.138 83.3442 221.53H0.716715C2.29404 227.263 2.06654 233.326 0.716715 239.59Z" fill="white"/>
</g>
<mask id="mask5_67_132" style="mask-type:luminance" maskUnits="userSpaceOnUse" x="0" y="219" width="87" height="23">
<path d="M86.2561 219.812H3.11201e-05V241.167H86.2561V219.812Z" fill="white"/>
</mask>
<g mask="url(#mask5_67_132)">
<path d="M0.716676 240.431H83.3442C83.7119 240.431 84.038 240.192 84.148 239.84C86.1727 233.261 86.1689 227.005 84.1366 221.249C84.0191 220.912 83.7006 220.688 83.3442 220.688H0.716676C0.455053 220.688 0.204804 220.81 0.0455551 221.018C-0.113694 221.23 -0.166776 221.5 -0.0947357 221.754C1.33471 226.96 1.33092 232.734 -0.106111 239.415C-0.159194 239.662 -0.0985279 239.923 0.0607216 240.12C0.21997 240.318 0.462636 240.431 0.716676 240.431ZM82.7147 238.752H1.748C2.94616 232.67 2.96133 227.289 1.80109 222.372H82.7413C84.402 227.453 84.3944 232.954 82.7147 238.752Z" fill="#323754"/>
</g>
<mask id="mask6_67_132" style="mask-type:luminance" maskUnits="userSpaceOnUse" x="0" y="219" width="86" height="5">
<path d="M85.2855 219.812H0.000115751V223.695H85.2855V219.812Z" fill="white"/>
</mask>
<g mask="url(#mask6_67_132)">
<path d="M84.8306 220.177H0.716782V223.521H84.8306V220.177Z" fill="#323754"/>
</g>
<mask id="mask7_67_132" style="mask-type:luminance" maskUnits="userSpaceOnUse" x="0" y="237" width="86" height="6">
<path d="M85.2855 237.284H0.000115751V242.138H85.2855V237.284Z" fill="white"/>
</mask>
<g mask="url(#mask7_67_132)">
<path d="M84.8306 237.921H0.716782V241.262H84.8306V237.921Z" fill="#323754"/>
</g>
<path d="M80.8494 226.736H40.6238V228.42H80.8494V226.736Z" fill="#323754"/>
<path d="M48.9806 230.793H27.3758V232.477H48.9806V230.793Z" fill="#323754"/>
<path d="M73.0309 228.113H65.3907V246.138H73.0309V228.113Z" fill="white"/>
<path d="M65.3908 246.979H73.0309C73.4973 246.979 73.8727 246.6 73.8727 246.138V228.112C73.8727 227.646 73.4973 227.271 73.0309 227.271H65.3908C64.9282 227.271 64.549 227.646 64.549 228.112V246.138C64.549 246.6 64.9282 246.979 65.3908 246.979ZM72.1892 245.296H66.2325V228.954H72.1892V245.296Z" fill="#323754"/>
</svg>
