<svg width="402" height="244" viewBox="0 0 402 244" fill="none" xmlns="http://www.w3.org/2000/svg">
<mask id="mask0_67_39" style="mask-type:luminance" maskUnits="userSpaceOnUse" x="0" y="0" width="402" height="244">
<path d="M0 0H402V244H0V0Z" fill="white"/>
</mask>
<g mask="url(#mask0_67_39)">
<path d="M402.292 166.011C402.208 165.891 402.073 165.818 401.922 165.818H340.073C343.125 134.766 321.38 106.734 290.537 101.979L267.755 98.3595C266.901 96.8282 265.792 95.448 264.708 94.1043C263.646 92.7866 262.547 91.422 261.719 89.948C258.557 84.3126 259.448 77.5157 260.75 72.8022C261.615 69.6928 262.839 66.6303 264.026 63.672C265.031 61.1563 266.068 58.5626 266.891 55.9272C268.797 49.8178 269.37 44.0105 268.599 38.672C267.109 28.3751 260.511 18.5157 248.979 9.3751C246.136 7.11989 242.307 4.30739 237.927 2.60426C232.261 0.401139 226.057 0.161556 220.714 0.208431C215.578 0.255305 208.87 0.58343 202.537 2.68239C196.13 4.80739 190.875 8.59385 187.74 13.3491C184.12 18.8334 183.406 25.8386 185.927 31.1928C186 31.3386 186.136 31.4272 186.287 31.4428C186.177 32.0834 186.068 32.7241 185.964 33.3699L183.078 32.8126C182.833 32.7709 182.594 32.9272 182.547 33.1772L180.875 41.8595C180.464 44.0105 180.912 46.198 182.141 48.0105C182.557 48.6303 183.052 49.172 183.604 49.6459C183.281 52.4063 183 55.1824 182.781 57.9741C182.698 58.0157 182.62 58.073 182.573 58.1616C181.531 60.0418 180.162 61.7709 178.833 63.4428C178.063 64.422 177.266 65.4272 176.531 66.4636C173.984 70.0626 172.886 73.2918 173.167 76.3334C173.266 77.448 173.563 78.5522 173.849 79.6199C174.328 81.4063 174.781 83.0886 174.37 84.7501C173.771 87.1772 171.412 88.8074 169.537 89.7449C168.844 90.0939 168.13 90.4116 167.412 90.7241C165.813 91.4272 164.162 92.1511 162.75 93.2605C160.766 94.823 159.089 97.7241 160.099 100.391C160.146 100.516 160.245 100.589 160.359 100.636C160.359 100.636 160.359 100.641 160.359 100.646C158.969 101.094 157.625 101.677 156.349 102.438C152 105.042 149.005 109.359 146.151 113.547C136.573 127.573 126.995 141.599 117.401 155.651C119.833 159.047 122.38 162.359 125 165.604C124.943 165.641 124.891 165.682 124.849 165.745C120.813 171.813 116.432 177.75 111.823 183.396C100.943 163.146 93.3595 141.432 89.2866 118.807C88.8959 110.729 88.0001 103.479 87.073 96.7814C85.7189 92.5001 83.3647 88.6824 80.2605 85.7449C79.5834 85.1043 78.6407 84.297 77.5157 83.7345C77.5157 83.7293 77.5209 83.7241 77.5209 83.7188L72.2293 34.672C72.198 34.4272 71.9793 34.2397 71.7345 34.2709L3.0626 40.2136C2.94281 40.2241 2.82822 40.2866 2.7501 40.3803C2.67197 40.4741 2.63551 40.5938 2.65114 40.7136L4.92197 63.4428L0.125098 68.5886C0.0313472 68.6824 -0.0103195 68.8126 9.78363e-05 68.9428L2.11989 90.4636C2.13551 90.6095 2.21364 90.7345 2.33864 90.8126L7.08343 93.6928L11.6459 137.042C11.672 137.276 11.8699 137.453 12.0991 137.453C12.1147 137.453 12.1251 137.453 12.1355 137.448L71.9168 132.698C76.3334 155.729 80.9011 179.542 87.1043 202.578C88.6564 208.344 90.547 214.281 95.0261 218.021C97.9949 220.505 101.958 221.776 106.193 221.776C109.193 221.776 112.333 221.136 115.349 219.833C121.88 217.016 127.042 211.802 131.646 206.589C136.714 200.854 141.479 194.755 145.833 188.464C146.141 189.302 146.448 190.136 146.761 190.958C147.162 192.031 147.563 193.104 147.948 194.177C153.474 209.646 155.552 226.464 153.964 242.813C153.938 243.063 154.12 243.287 154.37 243.307C154.386 243.307 154.401 243.313 154.417 243.313C154.464 243.313 154.505 243.297 154.547 243.287C154.516 243.552 154.495 243.823 154.464 244.089L229.787 244.052C229.781 244.063 229.776 244.089 229.776 244.089L232.354 244.052L243.302 244.047C243.302 244.047 243.318 243.995 243.354 243.896L284.693 243.313H376.214C376.412 243.313 376.583 243.188 376.646 243L402.354 166.422C402.401 166.281 402.38 166.13 402.292 166.011ZM225.047 113.047C219.208 117.901 213.151 122.526 206.932 126.891C212.344 122.766 219.625 117.208 225.047 113.047ZM182.896 47.5001C181.802 45.8855 181.401 43.9428 181.771 42.0313L183.354 33.7918L185.813 34.2657C185.042 38.948 184.328 43.7084 183.74 48.5261C183.432 48.2136 183.146 47.8699 182.896 47.5001Z" fill="#4A9BB4"/>
</g>
<mask id="mask1_67_39" style="mask-type:luminance" maskUnits="userSpaceOnUse" x="0" y="34" width="402" height="210">
<path d="M0 34.5208H401.943V244H0V34.5208Z" fill="white"/>
</mask>
<g mask="url(#mask1_67_39)">
<path d="M78.8804 109.125C79.0679 109.088 80.745 131.359 80.745 131.359L12.12 136.906L7.36995 93.5937L2.57829 90.3697L0.161621 69.0155L5.271 63.5833L3.00016 40.677L71.4325 34.677L77.1356 83.8385C74.4325 83.0989 72.271 83.6197 70.5054 84.7708C67.896 86.4687 66.297 89.3749 63.8335 91.2812C61.7814 92.8645 59.1252 93.776 57.6877 95.927C57.3387 96.453 57.0731 97.0572 57.0991 97.6822C57.146 98.7603 58.0106 99.5989 58.8179 100.312C60.2762 101.094 62.0783 101.109 63.745 100.937C64.6043 100.854 65.4741 100.719 66.245 100.328C66.7814 100.057 67.2502 99.6666 67.7554 99.3333C69.4272 98.2343 71.5158 97.776 73.495 98.078C74.6825 101.901 76.5366 105.677 78.8804 109.125ZM401.844 166.125L322.209 166.276C322.198 166.234 322.193 166.198 322.182 166.156C329.922 166.078 339.339 165.979 339.459 165.974C340.964 151.443 336.781 136.401 327.995 124.734C319.209 113.068 305.906 104.896 291.365 102.151C283.781 101.865 276.412 99.6666 267.547 98.5468C268.5 99.901 269.037 101.557 269.052 103.219C269.057 104.307 268.854 105.385 268.646 106.453C267.99 109.865 267.339 113.271 266.682 116.677C264.49 123.63 229.776 244.088 229.776 244.088L316.932 242.854C316.943 242.74 316.964 242.625 316.979 242.505L376.052 242.667L401.844 166.125Z" fill="#323754"/>
</g>
<path d="M247.255 55.8749C245.542 55.6666 243.823 56.401 242.49 57.4947C241.151 58.5832 240.135 60.0051 238.964 61.427C236.563 58.703 233.948 56.151 231.016 54.0051C227.563 51.4843 223.698 49.5416 220.396 46.8228C215.37 42.6822 211.88 36.8853 209.734 30.7291C207.589 24.5728 206.714 18.0468 205.839 11.6822C204.484 10.9687 202.828 11.5103 201.422 12.1197C198.912 13.2135 196.484 14.5155 194.188 16.0103C191.708 17.6249 189.219 19.6874 188.542 22.5624L186.651 31.6249C186.651 31.6249 183.969 53.3176 183.729 53.4635C182.885 60.8437 182.698 68.2968 183.172 75.7082C183.297 77.6405 183.547 79.7499 184.953 81.2395C186.182 82.8749 187.99 84.026 189.938 84.6457C191.885 85.2707 193.974 85.3749 196.672 85.2812C196.401 88.453 196.125 91.6457 195.344 94.7291C194.563 97.8176 193.245 100.828 191.104 103.187L199.469 132.583C199.469 132.583 232.49 107.448 232.563 107.193C230.969 96.1457 232.958 84.6093 238.104 74.5103C241.859 75.276 245.984 74.3228 248.87 71.802C251.755 69.276 253.255 65.1874 252.464 61.4374C251.906 58.7812 249.948 56.1978 247.255 55.8749Z" fill="white"/>
<path d="M111.948 184.547L103.495 167.312L99.875 159.427C96.1354 148.818 92.3802 138.141 90.5781 127.036C90.151 124.417 89.8281 121.755 88.9427 119.255C88.8594 118.88 86.9687 98.026 86.9687 98.026C85.7656 92.5729 82.4844 87.6041 77.9427 84.3489C76.0156 83.2031 73.5625 83.4114 71.5677 84.3437C69.5729 85.276 67.9479 86.8385 66.4271 88.4323C64.9114 90.0312 63.4375 91.6979 61.6094 92.9323C60.4114 93.5 59.0573 94.1146 58.1041 95.1875C57.1458 96.2604 56.6927 97.9271 57.4323 99.1614C58.1302 100.339 59.6198 100.755 60.9791 100.906C62.7031 101.099 64.5104 101.021 66.0833 100.281C67.0469 99.8229 67.8854 99.1354 68.8385 98.6562C70.1406 97.9948 71.651 97.75 73.0937 97.9583C74.1614 99.7083 74.8385 101.703 75.6875 103.62C76.5364 105.536 77.5885 107.422 79.1875 108.776C79.0573 108.854 80.8281 131.427 80.8281 131.427L72.2864 132.115C74.4531 143 76.6198 153.885 78.7864 164.776C80.8281 175.042 82.8698 185.323 85.8281 195.365C86.8281 202.427 89.2864 209.26 92.9739 215.354C96.4583 219.589 102.38 221.573 107.948 221.135C113.516 220.703 118.74 218.094 123.141 214.656C128.255 209.479 133.516 203.937 138.542 198.193C138.318 197.979 146 187.63 146 187.63L125.682 165.115L111.948 184.547Z" fill="white"/>
<path d="M270.922 197.875L275.485 205.646L280.354 192.24L270.922 197.875Z" fill="white"/>
<mask id="mask2_67_39" style="mask-type:luminance" maskUnits="userSpaceOnUse" x="116" y="98" width="198" height="146">
<path d="M116.609 98.5208H313.943V244H116.609V98.5208Z" fill="white"/>
</mask>
<g mask="url(#mask2_67_39)">
<path d="M199.771 132.755L191.052 103.01C191.052 103.01 192.714 100.979 192.844 100.458C186.724 101.323 180.526 100.167 174.37 99.6302C168.208 99.0937 161.656 99.2604 156.349 102.437C152 105.042 149.005 109.359 146.151 113.547C136.573 127.573 126.995 141.599 117.401 155.651C125.849 167.417 135.458 178.349 145.932 188.146C153.813 205.547 156.797 225.13 154.464 244.089L243.302 244.047C243.302 244.047 262.052 190.594 261.912 190.693C263.823 193.943 265.87 197.115 268.042 200.193L279.667 193.453L288.787 166.693C288.787 166.693 313.011 166.516 312.958 166.391C309.979 160 305.813 154.245 301.651 148.552C293.474 137.375 285.047 126.094 273.953 117.62C260.026 114.292 246.12 110.891 232.208 107.464C221.422 116.589 211.109 124.672 199.771 132.755Z" fill="#4A9BB4"/>
</g>
<mask id="mask3_67_39" style="mask-type:luminance" maskUnits="userSpaceOnUse" x="0" y="33" width="158" height="211">
<path d="M0 33.1875H157.943V243.854H0V33.1875Z" fill="white"/>
</mask>
<g mask="url(#mask3_67_39)">
<path d="M154.651 127.276C154.438 127.146 154.156 127.208 154.021 127.422C153.891 127.635 153.953 127.917 154.167 128.052C155.38 128.807 156.073 130.448 155.938 132.229C155.807 133.948 155.026 135.589 154.333 137.036C153.896 137.958 153.453 138.875 153.011 139.792C150.266 145.484 147.427 151.37 145.438 157.484C142.802 165.589 142.073 173.042 143.271 179.635C143.755 182.292 144.568 184.88 145.464 187.417C141.026 193.865 136.151 200.115 130.969 205.984C126.432 211.12 121.359 216.245 114.99 218.995C108.031 222 100.427 221.344 95.6095 217.323C91.3334 213.75 89.4949 207.964 87.9845 202.339C81.797 179.365 77.2397 155.604 72.8282 132.625L80.9428 131.979C81.0626 131.969 81.1772 131.911 81.2553 131.818C81.3334 131.724 81.3699 131.604 81.3595 131.484L79.3595 109.792C80.5938 110.594 82.198 111.073 84.0782 111.182C84.0886 111.182 84.0991 111.182 84.1043 111.182C84.3491 111.182 84.547 110.995 84.5626 110.75C84.5782 110.5 84.3855 110.286 84.1303 110.271C82.6824 110.187 80.6824 109.818 79.2449 108.568V108.547C79.2241 108.323 79.0418 108.151 78.8178 108.141C78.1355 107.401 77.6251 106.495 77.1043 105.474C75.8959 103.115 74.7501 100.682 73.6876 98.25C74.0834 98.1927 74.4793 98.1198 74.8699 98.0104C76.448 97.5833 77.8751 96.6354 78.8803 95.3385C79.0313 95.1406 78.9949 94.8541 78.797 94.6979C78.5991 94.5469 78.3126 94.5833 78.1563 94.7812C77.2761 95.9166 76.0209 96.7552 74.6303 97.1302C73.8491 97.3437 73.0001 97.4219 72.1772 97.5C70.8491 97.6198 69.4741 97.7448 68.2605 98.4219C67.8595 98.6458 67.5053 98.9114 67.1563 99.1719C66.7709 99.4635 66.4116 99.7344 66.0105 99.9375C65.0991 100.391 64.0261 100.453 62.8178 100.484C61.8803 100.51 60.7084 100.536 59.698 100.208C58.8959 99.9427 57.9532 99.3177 57.6824 98.3437C57.3438 97.125 58.1876 95.875 59.0105 95.1771C59.6303 94.6458 60.3438 94.25 61.0938 93.8333C61.5626 93.5677 62.0313 93.3073 62.4793 93.0104C64.1095 91.9427 65.4116 90.4791 66.6668 89.0625C67.2866 88.3698 67.922 87.651 68.5886 87C69.9741 85.6302 72.7501 83.4219 75.7293 84.0469C76.9845 84.3073 78.1876 85.0364 79.6407 86.4062C82.6303 89.2396 84.9011 92.9219 86.1876 96.9791C87.0991 103.583 87.9949 110.807 88.3855 118.906C92.8595 143.771 101.511 167.479 114.099 189.38C114.188 189.526 114.339 189.609 114.495 189.609C114.573 189.609 114.651 189.589 114.724 189.547C114.943 189.422 115.016 189.146 114.891 188.927C114.005 187.385 113.146 185.833 112.297 184.271C117.011 178.51 121.49 172.448 125.615 166.245C125.755 166.036 125.698 165.755 125.484 165.615C125.276 165.474 124.995 165.531 124.854 165.745C120.818 171.812 116.438 177.745 111.828 183.396C100.948 163.141 93.3647 141.432 89.2918 118.807C88.9011 110.729 88.0053 103.479 87.0782 96.776C85.7241 92.5 83.3699 88.6823 80.2657 85.7448C79.5886 85.0989 78.6511 84.2969 77.5261 83.7344C77.5261 83.7291 77.5261 83.7239 77.5261 83.7187L72.2345 34.6719C72.2084 34.4271 71.9845 34.2396 71.7397 34.2656L3.0626 40.2135C2.94281 40.2239 2.82822 40.2864 2.7501 40.3802C2.67197 40.4739 2.63551 40.5937 2.65114 40.7135L4.92197 63.4427L0.125098 68.5885C0.0313472 68.6823 -0.0103195 68.8125 9.78363e-05 68.9427L2.11989 90.4635C2.13551 90.6094 2.21364 90.7344 2.33864 90.8125L7.08343 93.6927L11.6459 137.042C11.672 137.276 11.8699 137.453 12.0991 137.453C12.1147 137.453 12.1251 137.453 12.1355 137.448L71.9168 132.698C76.3334 155.729 80.9011 179.542 87.1043 202.578C88.6564 208.344 90.547 214.281 95.0261 218.021C97.9949 220.505 101.958 221.776 106.193 221.776C109.193 221.776 112.333 221.135 115.349 219.833C121.88 217.016 127.042 211.802 131.646 206.589C136.714 200.854 141.479 194.755 145.833 188.464C146.141 189.302 146.448 190.135 146.761 190.958C147.162 192.031 147.563 193.104 147.948 194.177C153.474 209.646 155.552 226.464 153.964 242.812C153.938 243.062 154.12 243.286 154.37 243.307C154.386 243.307 154.401 243.312 154.417 243.312C154.646 243.312 154.844 243.135 154.87 242.901C156.474 226.422 154.375 209.464 148.802 193.875C148.417 192.792 148.016 191.719 147.615 190.641C146.261 187.031 144.865 183.302 144.172 179.474C143 173.026 143.719 165.724 146.302 157.771C148.276 151.714 151.099 145.854 153.828 140.193C154.271 139.271 154.714 138.349 155.156 137.432C155.88 135.911 156.703 134.187 156.849 132.297C157.011 130.182 156.146 128.214 154.651 127.276ZM12.5053 136.505L7.96885 93.3698C7.95322 93.2291 7.86989 93.1041 7.7501 93.0312L3.00531 90.1458L0.93239 69.0573L5.72926 63.9166C5.81781 63.8177 5.86468 63.6875 5.84906 63.5573L3.60426 41.0833L71.3699 35.2187L76.5626 83.3333C76.3491 83.2604 76.1355 83.2031 75.9116 83.1562C72.5105 82.4427 69.4636 84.8541 67.9428 86.3541C67.2605 87.026 66.6095 87.7552 65.9845 88.4635C64.7084 89.8958 63.5053 91.25 61.9741 92.2552C61.547 92.5364 61.0991 92.7864 60.6459 93.0364C59.8907 93.4635 59.1095 93.901 58.422 94.4844C57.3907 95.3594 56.3491 96.9583 56.8022 98.5937C57.1095 99.7135 58.0886 100.641 59.4116 101.073C60.573 101.453 61.8282 101.422 62.8386 101.396C64.1563 101.365 65.3386 101.297 66.4168 100.755C66.8907 100.516 67.3074 100.203 67.7032 99.9062C68.0418 99.651 68.3595 99.4114 68.7032 99.2187C69.7501 98.6354 70.9688 98.526 72.2605 98.4062C72.4168 98.3958 72.5782 98.3802 72.7397 98.3646C73.8386 100.901 75.0366 103.432 76.2918 105.891C76.8803 107.036 77.4897 108.135 78.3699 109.005L80.4116 131.109L12.5053 136.505Z" fill="#100F0D"/>
</g>
<path d="M265.198 122.969C265.427 122.864 265.526 122.594 265.422 122.364C265.318 122.135 265.042 122.036 264.818 122.141C257.261 125.614 251.334 132.104 248.558 139.943C245.782 147.786 246.308 156.557 249.995 164.01C250.073 164.172 250.235 164.266 250.401 164.266C250.474 164.266 250.542 164.25 250.604 164.219C250.834 164.104 250.922 163.828 250.813 163.604C247.287 156.479 246.766 147.745 249.417 140.25C252.073 132.75 257.969 126.292 265.198 122.969Z" fill="#100F0D"/>
<path d="M199.073 64.5521C196.828 67.5104 192.615 68.8698 189.057 67.7864C188.818 67.7135 188.563 67.8489 188.49 68.0885C188.417 68.3281 188.552 68.5833 188.792 68.6562C189.693 68.9323 190.636 69.0625 191.578 69.0625C194.719 69.0625 197.896 67.6041 199.802 65.0989C199.953 64.901 199.912 64.6146 199.714 64.4635C199.516 64.3125 199.224 64.3489 199.073 64.5521Z" fill="#100F0D"/>
<path d="M211.839 45.9686C211.839 46.1978 211.797 46.4165 211.709 46.6248C211.62 46.8332 211.5 47.0207 211.339 47.1821C211.177 47.3384 210.995 47.4634 210.787 47.5519C210.573 47.6353 210.354 47.6821 210.13 47.6821C209.901 47.6821 209.688 47.6353 209.474 47.5519C209.266 47.4634 209.084 47.3384 208.922 47.1821C208.761 47.0207 208.636 46.8332 208.552 46.6248C208.464 46.4165 208.422 46.1978 208.422 45.9686C208.422 45.7446 208.464 45.5259 208.552 45.3175C208.636 45.1092 208.761 44.9217 208.922 44.7603C209.084 44.604 209.266 44.479 209.474 44.3905C209.688 44.3071 209.901 44.2603 210.13 44.2603C210.354 44.2603 210.573 44.3071 210.787 44.3905C210.995 44.479 211.177 44.604 211.339 44.7603C211.5 44.9217 211.62 45.1092 211.709 45.3175C211.797 45.5259 211.839 45.7446 211.839 45.9686Z" fill="#100F0D"/>
<path d="M191.786 43.4635C191.786 43.6926 191.74 43.9114 191.656 44.1197C191.568 44.328 191.443 44.5103 191.286 44.6718C191.125 44.8333 190.937 44.9583 190.729 45.0416C190.521 45.1301 190.302 45.1718 190.078 45.1718C189.849 45.1718 189.63 45.1301 189.422 45.0416C189.213 44.9583 189.026 44.8333 188.87 44.6718C188.708 44.5103 188.583 44.328 188.495 44.1197C188.411 43.9114 188.365 43.6926 188.365 43.4635C188.365 43.2395 188.411 43.0208 188.495 42.8124C188.583 42.5989 188.708 42.4166 188.87 42.2551C189.026 42.0937 189.213 41.9739 189.422 41.8853C189.63 41.7968 189.849 41.7551 190.078 41.7551C190.302 41.7551 190.521 41.7968 190.729 41.8853C190.937 41.9739 191.125 42.0937 191.286 42.2551C191.443 42.4166 191.568 42.5989 191.656 42.8124C191.74 43.0208 191.786 43.2395 191.786 43.4635Z" fill="#100F0D"/>
<mask id="mask4_67_39" style="mask-type:luminance" maskUnits="userSpaceOnUse" x="159" y="0" width="243" height="244">
<path d="M159.276 0H402V243.854H159.276V0Z" fill="white"/>
</mask>
<g mask="url(#mask4_67_39)">
<path d="M402.292 166.011C402.208 165.891 402.073 165.818 401.922 165.818H340.073C343.125 134.766 321.38 106.734 290.537 101.979L267.755 98.3595C266.901 96.8282 265.792 95.448 264.708 94.1043C263.646 92.7866 262.547 91.422 261.719 89.948C258.557 84.3126 259.448 77.5157 260.75 72.8022C261.615 69.6928 262.839 66.6303 264.026 63.672C265.031 61.1563 266.068 58.5626 266.891 55.9272C268.797 49.8178 269.37 44.0105 268.599 38.672C267.109 28.3751 260.51 18.5157 248.979 9.3751C246.135 7.11989 242.307 4.30739 237.927 2.60426C232.26 0.401139 226.057 0.161556 220.714 0.208431C215.578 0.255305 208.87 0.58343 202.537 2.68239C196.13 4.80739 190.875 8.59385 187.74 13.3491C184.12 18.8334 183.406 25.8386 185.927 31.1928C186 31.3386 186.135 31.4272 186.287 31.4428C186.177 32.0834 186.068 32.7241 185.964 33.3699L183.078 32.8126C182.833 32.7709 182.594 32.9272 182.547 33.1772L180.875 41.8595C180.464 44.0105 180.912 46.198 182.141 48.0105C182.557 48.6303 183.052 49.172 183.604 49.6459C183.281 52.4063 183 55.1824 182.781 57.9741C182.698 58.0157 182.62 58.073 182.573 58.1616C181.531 60.0418 180.162 61.7709 178.833 63.4428C178.063 64.422 177.266 65.4272 176.531 66.4636C173.984 70.0626 172.885 73.2918 173.167 76.3334C173.266 77.448 173.563 78.5522 173.849 79.6199C174.328 81.4063 174.781 83.0886 174.37 84.7501C173.771 87.1772 171.412 88.8074 169.537 89.7449C168.844 90.0939 168.13 90.4116 167.412 90.7241C165.813 91.4272 164.162 92.1511 162.75 93.2605C160.766 94.823 159.089 97.7241 160.099 100.391C160.146 100.516 160.245 100.589 160.359 100.636C160.38 100.719 160.396 100.807 160.427 100.891C160.427 100.891 187.37 101.052 192.016 101.162C191.625 101.672 191.208 102.177 190.729 102.688C190.625 102.802 190.583 102.964 190.625 103.115C193.188 112.912 195.979 122.781 198.917 132.469C198.88 132.594 198.896 132.729 198.969 132.844C199 132.896 199.047 132.927 199.094 132.958C199.172 133.109 199.313 133.214 199.479 133.214C199.526 133.214 199.568 133.208 199.615 133.193C199.807 133.136 199.927 132.953 199.932 132.761C211.104 125.448 221.828 117.261 231.844 108.427C231.927 108.552 232.031 108.667 232.146 108.766C231.766 108.662 266.662 117.328 266.662 117.328C266.745 117.052 266.833 116.781 266.917 116.505C267.01 116.453 267.094 116.375 267.13 116.266C269.026 110.547 270.563 105 268.516 99.9272C268.438 99.7345 268.349 99.5522 268.266 99.3647L290.396 102.88C320.792 107.568 342.214 135.208 339.162 165.813V165.818H288.88C288.682 165.818 288.51 165.948 288.448 166.13L275.484 204.745L271.542 198.094C271.417 197.88 271.135 197.807 270.917 197.932C270.703 198.063 270.63 198.344 270.76 198.557L275.099 205.886L262.74 242.708C262.693 242.849 262.714 243.005 262.797 243.12C262.885 243.24 263.021 243.313 263.167 243.313H376.214C376.412 243.313 376.583 243.188 376.646 243L402.354 166.422C402.401 166.281 402.38 166.13 402.292 166.011ZM220.807 47.6772C220.245 50.0886 218.828 52.172 216.771 53.5678C214.604 55.0366 211.99 55.573 209.422 55.0782C204.115 54.0574 200.63 48.9116 201.646 43.6043L202.88 37.1824L213.62 39.2449C215.672 42.4532 218.083 45.2918 220.807 47.6772ZM187.026 32.5209C187.901 32.0574 188.995 31.9897 190.037 32.3386C191.078 32.6928 191.912 33.4116 192.323 34.3074C192.396 34.4793 192.563 34.5782 192.734 34.5782C192.797 34.5782 192.865 34.5626 192.927 34.5366C193.156 34.4324 193.255 34.1616 193.151 33.9324C192.635 32.8022 191.609 31.9116 190.328 31.4793C189.276 31.1199 188.177 31.1355 187.208 31.4741C187.635 28.9584 188.078 26.4636 188.526 24.0001C188.563 23.9428 188.594 23.8855 188.604 23.8178C188.87 22.2866 189.693 20.7397 190.995 19.3438C192.245 18.0001 193.776 16.9376 195.12 16.0418C198.219 13.9741 201.896 11.8959 205.755 11.9011C206.052 19.2293 207.401 25.9272 209.781 31.8126C209.943 32.2032 210.12 32.573 210.287 32.9584C208.307 33.1563 206.365 33.7032 204.583 34.6251C204.359 34.7449 204.276 35.0209 204.391 35.2397C204.505 35.4636 204.781 35.5522 205.005 35.4376C206.766 34.5157 208.708 33.9949 210.677 33.8334C211.375 35.3491 212.146 36.8022 212.984 38.1928L202.609 36.198C202.365 36.1563 202.12 36.3126 202.073 36.5626L201.266 40.7553L198.599 40.2293L199.333 36.4011C199.38 36.1511 199.219 35.9116 198.969 35.8647L186.859 33.5366C186.917 33.198 186.969 32.8595 187.026 32.5209ZM186.708 34.4376L198.349 36.6772L197.641 40.3543C197.62 40.3959 197.599 40.4428 197.589 40.4949C197.573 40.547 197.578 40.5991 197.589 40.6511L196.766 44.9168C196.26 47.547 194.391 49.5678 192.037 50.4063C192.938 48.422 193.839 46.4324 194.75 44.4532C194.854 44.2241 194.755 43.9532 194.526 43.8491C194.297 43.7449 194.026 43.8438 193.922 44.073C192.906 46.2813 191.901 48.5001 190.896 50.7084C190.037 50.8647 189.135 50.8751 188.229 50.698L187.557 50.573C186.453 50.3595 185.443 49.9011 184.573 49.2501C185.167 44.2397 185.906 39.297 186.708 34.4376ZM182.896 47.5001C181.802 45.8855 181.401 43.9428 181.771 42.0313L183.354 33.7918L185.813 34.2657C185.042 38.948 184.328 43.7084 183.74 48.5261C183.432 48.2136 183.146 47.8699 182.896 47.5001ZM249 71.1355C246.354 73.8074 242.172 74.9428 238.094 74.1043C237.896 74.0626 237.698 74.1563 237.599 74.3334C232.323 83.9897 230.354 95.5939 232.057 107.031C221.917 116.047 211.026 124.386 199.677 131.828C196.807 122.354 194.078 112.703 191.568 103.125C193.182 101.359 194.287 99.6095 195.057 97.6043C196.287 93.6251 196.875 89.672 196.87 85.5313C197.464 85.5001 198.052 85.4532 198.63 85.3959C204.797 84.8178 210.979 83.7605 216.995 82.2605C217.24 82.198 217.385 81.948 217.328 81.7032C217.266 81.4636 217.016 81.3126 216.771 81.3751C210.802 82.8647 204.667 83.9116 198.542 84.4897C194.302 84.8907 189.547 84.9116 186.469 82.047C183.432 79.2188 183.073 74.4584 183.12 70.1772C183.193 63.4741 183.698 56.8282 184.453 50.2866C185.333 50.8595 186.323 51.2605 187.385 51.4636L188.052 51.5938C188.578 51.698 189.094 51.7449 189.604 51.7449C189.891 51.7449 190.167 51.7241 190.443 51.698C189.557 53.6459 188.662 55.5886 187.776 57.5418C187.604 57.9324 187.401 58.3751 187.396 58.8803C187.385 59.4168 187.656 60.0678 188.271 60.297C188.422 60.3543 188.583 60.3751 188.729 60.3751C189.016 60.3751 189.281 60.297 189.464 60.2449C191.901 59.5261 194.26 58.5209 196.464 57.2449C196.677 57.1199 196.755 56.8386 196.625 56.6199C196.5 56.4011 196.224 56.3282 196.005 56.4532C193.865 57.6928 191.578 58.672 189.203 59.3699C188.974 59.4376 188.734 59.5001 188.583 59.4428C188.422 59.3803 188.302 59.1459 188.307 58.8907C188.313 58.5782 188.464 58.2449 188.609 57.9168C189.578 55.7813 190.557 53.6459 191.531 51.5053C194.557 50.7709 197.037 48.3386 197.662 45.0886L198.422 41.1251L201.094 41.6563L200.75 43.4324C200.214 46.2449 200.797 49.0938 202.401 51.4636C204.01 53.8334 206.438 55.4376 209.25 55.9741C209.932 56.1095 210.615 56.172 211.292 56.172C213.412 56.172 215.484 55.5418 217.281 54.323C219.406 52.8855 220.906 50.7761 221.583 48.323C222.068 48.7293 222.552 49.1355 223.057 49.5105C224.526 50.5991 226.099 51.5886 227.62 52.5418C229.51 53.7293 231.464 54.9532 233.208 56.3803C234.75 57.6407 236.245 59.1303 237.912 61.073C238.078 61.2657 238.417 61.6563 238.912 61.6563C238.922 61.6563 238.938 61.6563 238.953 61.6563C239.432 61.6355 239.745 61.2449 239.896 61.0574L241.391 59.198C241.5 59.198 241.609 59.1563 241.693 59.073C242.953 57.8178 244.281 57.0157 245.646 56.6824C247.224 56.3022 248.823 56.5991 249.917 57.4845C250.776 58.1668 251.401 59.2501 251.787 60.6876C252.76 64.3438 251.667 68.448 249 71.1355ZM375.885 242.401H263.802L275.932 206.271C276.073 206.156 276.13 205.979 276.089 205.813L289.203 166.729H401.292L375.885 242.401Z" fill="#100F0D"/>
</g>
<path d="M196.521 138.63C196.547 138.38 196.37 138.156 196.12 138.125C195.87 138.099 195.646 138.276 195.615 138.526C192.135 168.464 188.943 198.865 186.13 228.886C185.896 231.38 185.63 234.214 186.38 236.854C186.437 237.052 186.62 237.182 186.818 237.182C186.859 237.182 186.901 237.177 186.943 237.167C187.182 237.094 187.323 236.844 187.255 236.604C186.552 234.13 186.812 231.386 187.036 228.969C189.849 198.958 193.042 168.563 196.521 138.63Z" fill="#100F0D"/>
</svg>
