<svg width="248" height="275" viewBox="0 0 248 275" fill="none" xmlns="http://www.w3.org/2000/svg">
<mask id="mask0_67_192" style="mask-type:luminance" maskUnits="userSpaceOnUse" x="0" y="0" width="248" height="275">
<path d="M0 0H248V274.472H0V0Z" fill="white"/>
</mask>
<g mask="url(#mask0_67_192)">
<path d="M243.25 18.4281H199.388V13.675C199.388 11.2078 197.393 9.21223 194.925 9.21223H178.105C178.108 9.10701 178.123 9.00904 178.123 8.90745C178.123 4.02742 174.164 0.0689697 169.284 0.0689697C164.404 0.0689697 160.45 4.02742 160.45 8.90745C160.45 9.00904 160.46 9.11064 160.464 9.21223H143.643C141.18 9.21223 139.181 11.2114 139.181 13.675V18.4317H95.322C92.6842 18.4317 90.5399 20.576 90.5399 23.2101V114.853C89.1866 114.109 87.5103 113.685 86.4255 112.571C84.3211 110.412 85.2934 106.896 85.8921 103.943C86.5271 100.826 86.5234 97.4011 84.8907 94.6727C83.5628 92.4558 80.9032 90.9356 78.4142 91.1786C78.3816 91.0154 78.3489 90.8521 78.3054 90.6925C76.7561 84.5208 71.6983 79.3577 65.5592 77.6815C59.4202 76.0088 52.443 77.8846 47.973 82.4164C46.1516 84.2631 44.7039 86.5236 42.5523 87.9712C40.1214 89.6076 37.0918 90.0103 34.3633 91.0843C31.7691 92.1075 29.1966 94.2083 29.0261 96.9331C28.627 98.4497 28.1481 99.4765 25.162 100.931C21.1165 102.902 19.4039 109.893 19.4039 109.893C18.3807 113.565 20.2783 116.442 19.9264 118.024C19.2878 120.88 15.8047 121.801 13.0871 122.883C8.52635 124.693 4.77834 128.456 2.97871 133.024C5.97567 136.761 8.97625 140.498 11.9732 144.231C13.2721 143.284 14.5711 142.337 15.8736 141.39C15.8264 143.644 15.177 145.882 14.0014 147.809C20.906 151.843 28.7032 154.343 36.6636 155.073C36.8922 155.091 37.1281 155.102 37.3639 155.113C37.3639 155.123 37.3566 155.134 37.3566 155.145L37.382 155.925L37.5417 155.693L34.0912 160.704C33.7646 160.704 28.09 162.95 22.448 165.624L19.0012 164.916C18.8923 164.894 18.7835 164.92 18.7 164.981L15.2495 167.594C15.2169 167.619 15.1988 167.655 15.177 167.688L14.2881 167.518L14.4586 169.872C12.8585 170.881 11.6684 171.817 11.2076 172.572C11.2076 172.572 5.13754 176.548 3.54472 189.226C2.48164 197.698 0.460687 220.128 0.0652048 224.54C0.0289225 224.939 0.362723 225.269 0.761834 225.236L3.51207 225.008C3.51207 224.99 3.50844 224.96 3.51207 224.95C3.4649 225.675 5.18471 244.745 7.79344 261.359C8.9182 268.525 16.1639 274.352 23.9465 274.352C26.4827 274.352 28.9318 273.71 31.0979 272.549L99.9372 272.574L96.3706 247.913L96.1238 240.479L96.1347 240.852H114.784C117.665 243.559 123.771 245.388 129.896 245.388C130.407 245.388 130.923 245.373 131.434 245.348C132.864 245.275 134.174 244.579 135.327 243.276C135.937 242.59 136.474 241.767 136.953 240.852H243.25C245.888 240.852 248.033 238.708 248.033 236.074V23.2101C248.029 20.5724 245.885 18.4281 243.25 18.4281ZM90.5399 141.194V149.637C88.7222 148.68 87.2926 147.99 86.9443 147.99C85.6817 147.99 81.0048 154.227 80.9214 155.178C80.8415 156.06 81.3205 156.742 81.5309 156.996L81.5781 157.456C80.8669 157.467 80.2102 157.714 79.695 158.2C78.5303 159.292 78.5739 160.54 78.8387 161.585L72.2861 159.376L68.4002 155.991V154.521C70.9944 154.271 73.6249 153.748 76.0885 152.253C79.1471 151.074 82.0606 149.423 84.7057 147.49C86.1606 146.426 87.5829 145.244 88.5008 143.694C89.4224 142.145 89.7707 140.157 88.9979 138.528C89.6365 139.631 89.7054 139.747 90.344 140.85C90.217 140.636 90.6669 141.409 90.5399 141.194ZM169.284 13.7004C166.636 13.7004 164.491 11.5525 164.491 8.90745C164.491 6.25881 166.636 4.11087 169.284 4.11087C171.933 4.11087 174.081 6.25881 174.081 8.90745C174.081 11.5525 171.933 13.7004 169.284 13.7004Z" fill="white"/>
</g>
<mask id="mask1_67_192" style="mask-type:luminance" maskUnits="userSpaceOnUse" x="3" y="18" width="245" height="257">
<path d="M3.17114 18.1741H248V274.472H3.17114V18.1741Z" fill="white"/>
</mask>
<g mask="url(#mask1_67_192)">
<path d="M37.7559 155.831L37.7341 155.134C39.3777 155.189 41.0649 154.964 42.1606 153.803C43.8949 151.967 43.1475 148.981 43.855 146.561C44.9544 142.798 49.4208 140.813 50.5891 137.073C51.6304 133.727 49.7038 130.27 48.1437 127.131C46.5799 123.993 45.4261 119.926 47.6611 117.226C49.6893 114.777 53.7784 114.523 55.3023 111.729C57.0003 108.616 54.6419 103.754 57.5191 101.679C58.8761 100.703 60.7265 100.979 62.3774 100.703C65.8605 100.119 68.4439 96.9367 69.4017 93.5407C69.5868 92.884 69.7101 92.2164 69.8081 91.5487C76.31 93.1887 80.5224 101.806 80.9941 109.023C81.6 118.311 81.9737 128.111 80.8889 135.041C78.7046 148.981 68.0302 150.777 68.0302 150.777C68.0266 150.762 68.0266 153.306 68.023 156.259L60.0553 170.123L37.7559 155.831ZM243.251 18.8054H95.3221C92.8876 18.8054 90.9174 20.7792 90.9174 23.2101V150.262C88.911 149.188 87.2674 148.364 86.9445 148.364C86.0011 148.364 81.3823 154.267 81.2952 155.211C81.2118 156.15 81.8939 156.836 81.8939 156.836L81.9955 157.841C81.4839 157.772 80.6639 157.805 79.9491 158.472C78.8171 159.539 78.9586 160.744 79.3106 161.879C79.6661 163.015 80.3773 163.37 80.3773 163.37L82.449 162.398L82.322 161.114L82.4926 162.826C82.4926 162.826 81.8104 164.154 82.322 165.373C82.8372 166.592 84.8909 166.592 84.8909 166.592L84.118 169.183C84.118 169.183 84.1579 169.836 84.2559 170.576L55.3748 172.02L53.6804 175.968L53.0382 172.311L18.9251 165.283L15.4783 167.895L55.9082 191.192L90.9174 172.982V236.074C90.9174 238.505 92.8876 240.479 95.3221 240.479H114.94C117.992 243.465 125.038 245.301 131.413 244.974C133.698 244.858 135.433 243.029 136.717 240.479H243.251C245.682 240.479 247.655 238.505 247.655 236.074V23.2101C247.655 20.7792 245.682 18.8054 243.251 18.8054ZM66.8946 202.298C65.8714 201.845 52.425 213.35 52.425 213.35C52.425 213.35 63.7053 203.325 64.3875 202.643C65.0732 201.957 65.5267 201.047 64.8446 199.225C64.1625 197.4 61.9964 198.086 61.1982 198.198C60.4 198.311 47.6393 209.021 47.6393 209.021C47.6393 209.021 55.0446 201.845 55.7304 201.275C56.4125 200.705 56.6411 199.679 56.4125 198.311C56.1839 196.947 54.7036 197.059 53.6804 197.059C52.8278 197.059 41.6563 206.859 37.8684 210.201C37.0847 210.89 36.6856 211.913 36.7908 212.951L37.3858 218.821L35.3032 227.653L27.7527 239.299L27.3028 223.019L3.88593 224.975C3.84602 225.61 5.56945 244.771 8.16367 261.301C9.29569 268.511 16.6466 273.979 23.943 273.979C29.7011 273.979 34.9367 270.644 37.3749 265.43L50.5093 232.544C52.2291 230.715 53.8872 228.56 54.3625 227.936C55.1607 226.891 59.7179 219.163 59.7179 219.163C61.5393 218.136 64.1625 214.036 65.1857 212.896C66.2125 211.757 65.8714 211.188 65.3018 210.273C64.9934 209.783 62.0182 212.164 59.3296 214.464L59.9464 213.92C59.9464 213.92 62.2105 211.793 64.4201 209.613C66.2669 207.791 68.0738 205.937 68.491 205.263C69.4017 203.782 67.9214 202.755 66.8946 202.298Z" fill="white"/>
</g>
<path d="M78.2256 165.388C78.2256 165.388 76.2663 166.73 76.1938 167.137C76.143 167.427 76.4986 167.797 77.0537 167.608C77.5399 167.445 78.8932 166.625 78.8932 166.625L78.2256 165.388Z" fill="#F75E61"/>
<mask id="mask2_67_192" style="mask-type:luminance" maskUnits="userSpaceOnUse" x="0" y="0" width="243" height="273">
<path d="M0 0H242.812V272.676H0V0Z" fill="white"/>
</mask>
<g mask="url(#mask2_67_192)">
<path d="M53.038 172.311L21.8857 165.892C27.7054 163.102 33.7538 160.704 34.0912 160.704L37.5417 155.693L60.0551 170.123L68.2514 155.864L72.2861 159.376L78.8387 161.585C78.875 161.723 78.9113 161.861 78.9548 161.992C79.1616 162.659 79.4846 163.087 79.7531 163.352L80.0252 163.095C80.2247 163.291 80.3771 163.37 80.3771 163.37L81.9482 162.634L82.1042 162.685L82.1114 162.761C81.9482 163.124 81.4837 164.346 81.9772 165.518C82.4126 166.549 83.6861 166.846 84.3972 166.933L83.7587 169.074C83.7478 169.118 83.7442 169.161 83.7442 169.205C83.7623 169.484 83.8022 170.017 83.8748 170.594L84.2557 170.576L55.3747 172.02L53.6803 175.968L53.038 172.311ZM97.0237 229.605H107.43L106.922 228.854H97.3974V218.364L98.3589 219.329C98.8051 219.787 99.5743 219.627 99.7993 219.028L99.6505 218.807C99.5816 218.705 99.5634 218.582 99.607 218.466L103.696 207.276C100.917 197.357 98.4895 188.308 97.7421 185.503C97.6332 185.456 97.5171 185.409 97.3974 185.365V184.959C97.1361 184.864 96.8858 184.748 96.6463 184.621V185.039C95.3546 184.389 94.2952 183.337 93.6167 182.383C93.6167 182.136 93.6203 181.922 93.6203 181.715C93.399 181.349 93.2502 181.026 93.1886 180.793C92.9636 179.97 91.5377 174.234 91.193 172.837L55.908 191.192L16.6537 168.573C13.9688 170.068 11.8607 171.501 11.204 172.568C11.204 172.568 5.13754 176.548 3.54472 189.226C2.47801 197.698 0.460687 220.128 0.0652048 224.54C0.0289225 224.939 0.362723 225.269 0.761834 225.236L3.50844 225.008C3.50844 224.99 3.50844 224.96 3.50844 224.95C3.52295 224.765 3.66808 224.616 3.85313 224.601L27.27 222.646C27.3752 222.635 27.4768 222.671 27.553 222.74C27.6292 222.809 27.6764 222.903 27.68 223.008L28.0936 238.08L34.9511 227.5L37.0047 218.792L36.4169 212.991C36.2972 211.833 36.7471 210.683 37.6179 209.918C52.6135 196.682 53.4154 196.682 53.6766 196.682H53.8943C54.9429 196.674 56.5176 196.66 56.7824 198.249C57.1017 200.161 56.5176 201.105 55.9697 201.562C55.8572 201.656 55.5561 201.935 55.1316 202.335C58.0995 199.925 60.7227 197.886 61.1436 197.825C61.238 197.81 61.3504 197.788 61.4738 197.767C62.4498 197.578 64.4853 197.193 65.1964 199.091C65.9874 201.199 65.3198 202.237 64.6522 202.904C64.5615 202.999 64.293 203.245 63.8939 203.608C65.523 202.454 66.6876 201.794 67.0468 201.954C67.6709 202.233 68.763 202.846 69.0678 203.829C69.2347 204.363 69.144 204.911 68.8065 205.458C68.4401 206.054 67.0505 207.545 64.6776 209.881C64.6377 209.921 64.5941 209.965 64.5506 210.008C64.9787 209.798 65.1384 209.823 65.2508 209.841C65.4068 209.863 65.5375 209.947 65.6173 210.074C66.1906 210.992 66.684 211.786 65.4649 213.143C65.1783 213.462 64.7465 214.039 64.2494 214.711C63.0158 216.365 61.3395 218.618 59.9898 219.435C59.4674 220.32 55.4255 227.156 54.6599 228.161C53.8907 229.166 52.3813 231.089 50.8284 232.747L37.7195 265.568C36.3008 268.601 33.9461 271.021 31.0942 272.545L99.9372 272.571L96.3669 247.909L95.3147 216.267L96.6463 217.606V229.227C96.6463 229.438 96.8168 229.605 97.0237 229.605ZM241.923 24.832V229.231C241.923 229.438 241.756 229.605 241.545 229.605H139.576C139.605 229.351 139.631 229.1 139.652 228.854H241.171V25.2057H199.388V30.1764H139.181V25.2057H97.3974V153.854C97.1579 153.719 96.9075 153.574 96.6463 153.429V24.832C96.6463 24.6252 96.8168 24.4583 97.0237 24.4583H139.181V13.675C139.181 11.2078 141.18 9.21223 143.643 9.21223H160.464C160.46 9.10701 160.45 9.00904 160.45 8.90745C160.45 4.02742 164.404 0.0689697 169.284 0.0689697C174.164 0.0689697 178.123 4.02742 178.123 8.90745C178.123 9.00904 178.108 9.10701 178.105 9.21223H194.925C197.393 9.21223 199.388 11.2078 199.388 13.675V24.4583H241.545C241.756 24.4583 241.923 24.6252 241.923 24.832ZM174.081 8.90745C174.081 6.25881 171.933 4.11087 169.284 4.11087C166.636 4.11087 164.491 6.25881 164.491 8.90745C164.491 11.5561 166.636 13.7004 169.284 13.7004C171.933 13.7004 174.081 11.5525 174.081 8.90745Z" fill="#4A9BB4"/>
</g>
<path d="M139.554 53.2668H117.393C115.296 53.2668 113.594 54.9685 113.594 57.0657V79.2272C113.594 81.3243 115.296 83.026 117.393 83.026H139.554C141.652 83.026 143.353 81.3243 143.353 79.2272V57.0657C143.353 54.9685 141.652 53.2668 139.554 53.2668ZM142.602 79.2272C142.602 80.9107 141.234 82.2749 139.554 82.2749H117.393C115.709 82.2749 114.345 80.9071 114.345 79.2272V57.0657C114.345 55.3821 115.713 54.0179 117.393 54.0179H139.554C141.234 54.0179 142.602 55.3821 142.602 57.0657V79.2272ZM150.642 59.2317C150.642 59.0249 150.813 58.858 151.02 58.858H225.817C226.023 58.858 226.194 59.0249 226.194 59.2317C226.194 59.4422 226.023 59.6091 225.817 59.6091H151.02C150.809 59.6091 150.642 59.4422 150.642 59.2317ZM226.194 66.2234C226.194 66.4302 226.023 66.6008 225.817 66.6008H151.02C150.813 66.6008 150.642 66.4302 150.642 66.2234C150.642 66.0166 150.813 65.8497 151.02 65.8497H225.817C226.023 65.8497 226.194 66.0166 226.194 66.2234ZM151.02 75.3377C150.813 75.3377 150.642 75.1708 150.642 74.9603C150.642 74.7535 150.813 74.5866 151.02 74.5866H186.671C186.878 74.5866 187.045 74.7535 187.045 74.9603C187.045 75.1708 186.878 75.3377 186.671 75.3377H151.02ZM138.948 93.1126H116.783C114.69 93.1126 112.984 94.8142 112.984 96.9114V119.073C112.984 121.17 114.69 122.872 116.783 122.872H138.948C141.042 122.872 142.747 121.17 142.747 119.073V96.9114C142.747 94.8142 141.042 93.1126 138.948 93.1126ZM141.996 119.073C141.996 120.756 140.628 122.121 138.948 122.121H116.783C115.103 122.121 113.736 120.753 113.736 119.073V96.9114C113.736 95.2279 115.103 93.8636 116.783 93.8636H138.948C140.628 93.8636 141.996 95.2315 141.996 96.9114V119.073ZM225.584 99.0811C225.584 99.2879 225.418 99.4548 225.211 99.4548H150.41C150.203 99.4548 150.036 99.2879 150.036 99.0811C150.036 98.8707 150.203 98.7038 150.41 98.7038H225.211C225.418 98.7038 225.584 98.8707 225.584 99.0811ZM225.584 106.069C225.584 106.276 225.418 106.447 225.211 106.447H150.41C150.203 106.447 150.036 106.276 150.036 106.069C150.036 105.862 150.203 105.695 150.41 105.695H225.211C225.418 105.695 225.584 105.862 225.584 106.069ZM150.036 114.81C150.036 114.599 150.203 114.432 150.41 114.432H186.062C186.268 114.432 186.439 114.599 186.439 114.81C186.439 115.016 186.268 115.183 186.062 115.183H150.41C150.203 115.183 150.036 115.016 150.036 114.81ZM138.948 132.958H116.783C114.69 132.958 112.984 134.66 112.984 136.757V144.123C112.698 144.152 112.408 144.231 112.139 144.38L96.5375 152.932C97.9598 153.734 99.2007 154.445 99.9662 154.884C100.053 154.935 100.119 155.022 100.144 155.12L100.38 156.092L112.984 148.937V158.919C112.984 161.016 114.69 162.717 116.783 162.717H138.948C141.042 162.717 142.747 161.016 142.747 158.919V136.757C142.747 134.66 141.042 132.958 138.948 132.958ZM141.996 158.919C141.996 160.602 140.628 161.966 138.948 161.966H116.783C115.103 161.966 113.736 160.599 113.736 158.919V148.513L114.273 148.208C115.365 147.588 115.717 146.18 115.038 145.12C114.73 144.634 114.258 144.311 113.736 144.177V136.757C113.736 135.074 115.103 133.709 116.783 133.709H138.948C140.628 133.709 141.996 135.077 141.996 136.757V158.919ZM225.584 138.927C225.584 139.134 225.418 139.301 225.211 139.301H150.41C150.203 139.301 150.036 139.134 150.036 138.927C150.036 138.716 150.203 138.55 150.41 138.55H225.211C225.418 138.55 225.584 138.716 225.584 138.927ZM225.584 145.915C225.584 146.122 225.418 146.292 225.211 146.292H150.41C150.203 146.292 150.036 146.122 150.036 145.915C150.036 145.708 150.203 145.541 150.41 145.541H225.211C225.418 145.541 225.584 145.708 225.584 145.915ZM150.036 154.655C150.036 154.445 150.203 154.278 150.41 154.278H186.062C186.268 154.278 186.439 154.445 186.439 154.655C186.439 154.862 186.268 155.029 186.062 155.029H150.41C150.203 155.029 150.036 154.862 150.036 154.655ZM135.469 61.6844L129.003 68.1464L135.469 74.6084C135.614 74.7535 135.614 74.993 135.469 75.1381C135.393 75.2143 135.298 75.2506 135.2 75.2506C135.106 75.2506 135.012 75.2143 134.936 75.1381L128.474 68.6761L122.012 75.1381C121.939 75.2143 121.841 75.2506 121.747 75.2506C121.649 75.2506 121.554 75.2143 121.482 75.1381C121.333 74.993 121.333 74.7535 121.482 74.6084L127.944 68.1464L121.482 61.6844C121.333 61.5357 121.333 61.2999 121.482 61.1511C121.627 61.006 121.863 61.006 122.012 61.1511L128.474 67.6131L134.936 61.1511C135.084 61.006 135.32 61.006 135.469 61.1511C135.614 61.2999 135.614 61.5357 135.469 61.6844ZM135.469 101.53L129.003 107.992L135.469 114.454C135.614 114.599 135.614 114.839 135.469 114.987C135.393 115.06 135.298 115.096 135.2 115.096C135.106 115.096 135.012 115.06 134.936 114.987L128.474 108.522L122.012 114.987C121.939 115.06 121.841 115.096 121.747 115.096C121.649 115.096 121.554 115.06 121.482 114.987C121.333 114.839 121.333 114.603 121.482 114.454L127.944 107.992L121.482 101.53C121.333 101.385 121.333 101.146 121.482 100.997C121.627 100.852 121.863 100.852 122.012 100.997L128.474 107.462L134.936 100.997C135.084 100.852 135.32 100.852 135.469 100.997C135.614 101.146 135.614 101.385 135.469 101.53ZM134.859 141.376L128.397 147.838L134.859 154.3C135.008 154.445 135.008 154.684 134.859 154.833C134.787 154.906 134.689 154.942 134.595 154.942C134.5 154.942 134.402 154.906 134.33 154.833L127.868 148.368L121.402 154.833C121.33 154.906 121.235 154.942 121.137 154.942C121.043 154.942 120.945 154.906 120.872 154.833C120.727 154.684 120.727 154.449 120.872 154.3L127.334 147.838L120.872 141.376C120.727 141.231 120.727 140.991 120.872 140.843C121.018 140.697 121.257 140.697 121.402 140.843L127.868 147.308L134.33 140.843C134.475 140.697 134.714 140.697 134.859 140.843C135.008 140.991 135.008 141.231 134.859 141.376ZM225.584 178.773C225.584 178.979 225.418 179.146 225.211 179.146H150.41C150.203 179.146 150.036 178.979 150.036 178.773C150.036 178.562 150.203 178.395 150.41 178.395H225.211C225.418 178.395 225.584 178.562 225.584 178.773ZM225.584 185.761C225.584 185.967 225.418 186.138 225.211 186.138H150.41C150.203 186.138 150.036 185.967 150.036 185.761C150.036 185.554 150.203 185.387 150.41 185.387H225.211C225.418 185.387 225.584 185.554 225.584 185.761ZM186.439 194.501C186.439 194.708 186.268 194.875 186.062 194.875H150.41C150.203 194.875 150.033 194.708 150.033 194.501C150.033 194.291 150.203 194.124 150.41 194.124H186.062C186.268 194.124 186.439 194.291 186.439 194.501ZM127.868 188.217L121.402 194.679C121.33 194.752 121.235 194.788 121.137 194.788C121.043 194.788 120.945 194.752 120.872 194.679C120.727 194.534 120.727 194.294 120.872 194.149L127.334 187.684L120.872 181.222C120.727 181.073 120.727 180.837 120.872 180.688C121.018 180.543 121.257 180.543 121.402 180.688L127.868 187.154L134.33 180.688C134.475 180.543 134.714 180.543 134.859 180.688C135.008 180.837 135.008 181.073 134.859 181.222L128.397 187.684L134.859 194.149C135.008 194.294 135.008 194.534 134.859 194.679C134.787 194.752 134.689 194.788 134.595 194.788C134.5 194.788 134.402 194.752 134.33 194.679L127.868 188.217ZM14.0051 147.809C15.177 145.882 15.8265 143.644 15.8737 141.39C14.5747 142.337 13.2722 143.284 11.9733 144.231C8.9763 140.498 5.97572 136.761 2.97876 133.024C4.77839 128.456 8.5264 124.697 13.0871 122.883C15.8047 121.801 19.2879 120.88 19.9264 118.024C20.2784 116.442 18.3808 113.565 19.4076 109.893C19.4076 109.893 21.1165 102.902 25.1657 100.932C28.1481 99.4766 28.6271 98.4498 29.0262 96.9332C29.1967 94.2083 31.7691 92.1076 34.367 91.0844C37.0918 90.0104 40.1214 89.6077 42.5524 87.9713C44.7039 86.5236 46.1516 84.2632 47.973 82.4164C52.4431 77.8847 59.4202 76.0089 65.5629 77.6815C71.702 79.3578 76.7598 84.5208 78.3091 90.6925C78.349 90.8522 78.3816 91.0154 78.4143 91.1787C80.9069 90.9356 83.5628 92.4522 84.8907 94.6727C86.5271 97.4012 86.5271 100.826 85.8922 103.943C85.2935 106.896 84.3247 110.412 86.4255 112.571C88.0727 114.258 91.0878 114.356 92.2561 116.41C93.9324 119.356 90.1663 122.806 90.6851 126.159C91.0116 128.274 92.9709 129.747 94.9374 130.604C96.9003 131.463 99.0592 131.975 100.743 133.303C102.423 134.631 103.435 137.189 102.198 138.938C98.544 140.088 94.8867 141.238 91.233 142.388C90.4892 141.1 89.7454 139.816 89.0016 138.528C89.7708 140.157 89.4225 142.145 88.5045 143.694C87.5829 145.244 86.1606 146.426 84.7057 147.49C82.0607 149.423 79.1508 151.074 76.0885 152.254C73.5088 153.821 70.7405 154.325 68.0265 154.557C68.0265 154.452 68.0265 154.343 68.0265 154.242C68.0265 154.068 68.0265 153.897 68.0265 153.73C68.0265 153.676 68.0265 153.621 68.0265 153.563C68.0301 152.101 68.0301 151.038 68.0301 150.82C68.0301 150.795 68.0301 150.777 68.0301 150.777C68.0301 150.777 78.7082 148.981 80.8888 135.041C81.9736 128.107 81.5999 118.311 80.994 109.023C80.9686 108.616 80.9287 108.206 80.8779 107.793C80.8742 107.764 80.8742 107.738 80.8706 107.709C80.8198 107.31 80.7581 106.911 80.6856 106.508C80.6783 106.465 80.6711 106.421 80.6638 106.378C80.5949 105.986 80.5114 105.59 80.4207 105.195C80.4062 105.148 80.3989 105.097 80.3844 105.046C80.2937 104.654 80.1885 104.262 80.076 103.87C80.0615 103.823 80.047 103.772 80.0325 103.725C79.92 103.33 79.793 102.938 79.6588 102.55C79.6443 102.51 79.6297 102.466 79.6116 102.423C79.4737 102.027 79.3286 101.639 79.169 101.251C79.1544 101.218 79.1399 101.182 79.1254 101.149C78.9621 100.754 78.7916 100.366 78.6102 99.9809C78.5993 99.9628 78.5884 99.9446 78.5812 99.9229C76.6364 95.8628 73.6141 92.5103 69.808 91.5488C69.7137 92.2164 69.5867 92.884 69.4053 93.5407C68.4474 96.9368 65.8604 100.119 62.3773 100.703C60.7264 100.979 58.876 100.703 57.5227 101.679C56.9349 102.103 56.572 102.644 56.3435 103.261H56.3398C56.2564 103.489 56.1911 103.725 56.1403 103.972C56.1403 103.976 56.1366 103.983 56.1366 103.99C55.9117 105.09 55.9734 106.359 55.9879 107.629C55.9915 107.684 55.9915 107.738 55.9915 107.796C55.9915 107.945 55.9915 108.097 55.9879 108.246C55.9879 108.413 55.9806 108.58 55.977 108.743C55.9734 108.834 55.9697 108.925 55.9661 109.012C55.948 109.273 55.9298 109.531 55.8936 109.785C55.8899 109.828 55.879 109.868 55.8754 109.908C55.85 110.071 55.821 110.234 55.7847 110.39C55.7702 110.456 55.7557 110.517 55.7375 110.579C55.7194 110.659 55.694 110.735 55.6686 110.815C55.6505 110.877 55.6323 110.942 55.6105 111C55.5924 111.058 55.5743 111.12 55.5525 111.174C55.4799 111.366 55.4001 111.551 55.3021 111.729C53.7783 114.523 49.6892 114.777 47.661 117.226C45.426 119.926 46.5798 123.993 48.1436 127.131C49.7037 130.27 51.6303 133.728 50.589 137.073C49.4243 140.814 44.9579 142.798 43.8586 146.561C43.8005 146.746 43.757 146.942 43.7207 147.134L43.7171 147.138C43.7134 147.17 43.7062 147.207 43.6989 147.239C43.6771 147.355 43.6554 147.471 43.6409 147.588C43.6372 147.591 43.6372 147.595 43.6372 147.595C43.6227 147.686 43.6118 147.776 43.601 147.867C43.5937 147.918 43.5864 147.969 43.5828 148.019C43.5828 148.019 43.5792 148.023 43.5792 148.027V148.03C43.5538 148.262 43.5356 148.495 43.5175 148.73C43.5139 148.759 43.5102 148.789 43.5102 148.821C43.4921 149.021 43.4812 149.224 43.4667 149.427C43.3651 150.936 43.2563 152.417 42.3819 153.542C42.3093 153.629 42.2403 153.719 42.1642 153.803C42.0081 153.966 41.8412 154.108 41.6635 154.235C41.6054 154.278 41.5401 154.314 41.4784 154.354C41.3587 154.43 41.2353 154.507 41.1083 154.568C41.0285 154.608 40.9523 154.645 40.8689 154.677C40.7528 154.728 40.6294 154.775 40.506 154.815C40.4153 154.844 40.3246 154.877 40.2339 154.899C40.1178 154.931 40.0017 154.957 39.882 154.978C39.403 155.08 38.9023 155.127 38.3944 155.138C38.3762 155.138 38.3581 155.142 38.3399 155.142C38.1404 155.145 37.9372 155.142 37.7377 155.134C37.3748 155.123 37.0156 155.102 36.6637 155.069C28.7032 154.343 20.9061 151.844 14.0051 147.809ZM142.747 176.603V198.764C142.747 200.862 141.042 202.563 138.948 202.563H126.961C126.79 202.316 126.62 202.066 126.449 201.812H138.948C140.628 201.812 141.996 200.448 141.996 198.764V176.603C141.996 174.923 140.628 173.555 138.948 173.555H116.783C115.103 173.555 113.736 174.923 113.736 176.603V183.627C113.482 183.272 113.231 182.916 112.984 182.575V176.603C112.984 174.506 114.69 172.804 116.783 172.804H138.948C141.042 172.804 142.747 174.506 142.747 176.603ZM84.2485 172.372C87.4088 172.089 90.569 171.806 93.7292 171.523L93.2902 213.219L60.4289 219.126C61.6915 218.143 63.1465 216.195 64.2495 214.714C64.7466 214.043 65.1783 213.466 65.465 213.147C66.6877 211.786 66.1906 210.995 65.6173 210.077C65.5375 209.95 65.4069 209.867 65.2509 209.842C65.1384 209.823 64.9788 209.802 64.5506 210.012C64.5942 209.969 64.6377 209.925 64.6812 209.881C67.0505 207.545 68.4401 206.057 68.8102 205.459C69.1477 204.911 69.2347 204.363 69.0678 203.833C68.7631 202.846 67.6709 202.233 67.0469 201.957C66.6877 201.794 65.523 202.458 63.8939 203.608C64.293 203.245 64.5615 202.999 64.6522 202.908C65.3198 202.24 65.9874 201.203 65.1965 199.091C64.4853 197.197 62.4499 197.582 61.4775 197.77C61.3505 197.792 61.238 197.814 61.1437 197.828C60.7228 197.886 58.1032 199.929 55.1316 202.338C55.5561 201.936 55.8573 201.656 55.9697 201.565C56.5176 201.108 57.1018 200.165 56.7825 198.253C56.5176 196.664 54.9429 196.678 53.898 196.682L53.6767 196.685C53.4154 196.685 52.6136 196.685 37.6179 209.918C36.7471 210.687 36.2972 211.837 36.417 212.991L36.7435 216.227L17.4955 212.236L14.2881 167.518L16.1929 167.888C16.9839 168.033 17.7712 168.2 18.5622 168.352C22.517 169.125 26.4719 169.898 30.4267 170.671C35.0382 171.57 39.6498 172.47 44.2649 173.374C45.865 173.686 47.4651 173.998 49.0651 174.31C50.2697 174.546 51.4199 174.967 52.6136 175.202C54.9611 175.667 57.5553 174.861 59.8955 174.596C62.3519 174.321 64.8191 174.118 67.2827 173.9C72.9392 173.388 78.5957 172.88 84.2485 172.372ZM77.6378 165.809L77.4383 165.533L81.9591 161.27L82.1115 162.761C81.9482 163.124 81.4838 164.347 81.9772 165.518C82.0389 165.671 82.126 165.801 82.224 165.925L78.6429 167.202L78.4252 166.901C77.9861 167.155 77.3548 167.507 77.0573 167.608C76.5022 167.797 76.143 167.427 76.1938 167.137C76.2409 166.879 77.0537 166.241 77.6378 165.809Z" fill="#323754"/>
<mask id="mask3_67_192" style="mask-type:luminance" maskUnits="userSpaceOnUse" x="3" y="18" width="245" height="257">
<path d="M3.17114 18.1741H248V274.472H3.17114V18.1741Z" fill="white"/>
</mask>
<g mask="url(#mask3_67_192)">
<path d="M37.3821 155.922L37.3567 155.145C37.3567 155.044 37.3966 154.942 37.4692 154.87C37.5418 154.797 37.647 154.761 37.7449 154.761C39.726 154.826 41.0467 154.438 41.8884 153.545C42.8898 152.486 42.9878 150.966 43.093 149.358C43.1583 148.389 43.2236 147.388 43.4958 146.456C44.0763 144.467 45.5457 142.965 46.9644 141.51C48.3613 140.081 49.6783 138.731 50.2262 136.96C51.1551 133.978 49.613 130.901 48.1182 127.926L47.8062 127.298C46.2678 124.211 44.9471 119.915 47.3708 116.987C48.3504 115.8 49.7654 115.115 51.1369 114.451C52.7116 113.681 54.2028 112.959 54.972 111.548C55.665 110.274 55.6323 108.627 55.6033 107.031C55.5634 104.879 55.5199 102.659 57.3014 101.374C58.3318 100.63 59.5908 100.551 60.8099 100.474C61.3106 100.442 61.8331 100.409 62.3156 100.329C65.7843 99.7488 68.1934 96.4507 69.0425 93.4356C69.2021 92.8696 69.3291 92.2528 69.4379 91.4908C69.4525 91.3892 69.5105 91.2949 69.6012 91.2332C69.6883 91.1752 69.7971 91.157 69.9024 91.1824C76.4623 92.8406 80.8815 101.541 81.3677 108.997C81.912 117.346 82.3945 127.853 81.2589 135.099C80.1123 142.425 76.6038 146.398 73.8644 148.437C71.4371 150.247 69.2057 150.893 68.4039 151.082C68.4039 151.419 68.4039 152.018 68.4003 152.787L68.3966 155.987L68.2515 155.86L67.6456 156.916L67.6492 152.787C67.6528 150.414 67.6528 150.414 68.0193 150.403C67.9975 150.403 70.6099 149.935 73.4472 147.813C76.0632 145.853 79.4121 142.036 80.5187 134.983C81.4693 128.898 81.2698 120.448 80.8561 112.952C80.7981 112.952 80.74 112.945 80.6856 112.919C77.304 111.359 74.4595 112.981 74.4305 112.996C74.3688 113.032 74.3071 113.046 74.2418 113.046C74.1112 113.046 73.9842 112.981 73.9152 112.861C73.81 112.684 73.8717 112.455 74.0495 112.35C74.1765 112.274 77.148 110.576 80.809 112.161C80.7509 111.098 80.6856 110.057 80.6203 109.048C80.1595 102.013 76.1212 93.842 70.1164 92.0206C70.0185 92.6265 69.9024 93.149 69.7645 93.6388C68.6506 97.5972 65.7734 100.514 62.439 101.069C61.9165 101.157 61.3759 101.189 60.8534 101.226C59.6924 101.298 58.5966 101.367 57.7404 101.984C56.2782 103.036 56.3145 104.97 56.3544 107.016C56.387 108.711 56.4197 110.459 55.6287 111.907C54.747 113.529 53.078 114.338 51.4635 115.125C50.1682 115.753 48.8257 116.403 47.9513 117.462C45.7816 120.082 47.0406 124.073 48.4774 126.961L48.7894 127.589C50.277 130.553 51.9642 133.913 50.9446 137.182C50.3423 139.123 48.8983 140.603 47.5014 142.033C46.0827 143.484 44.7439 144.856 44.2178 146.662C43.9674 147.515 43.9058 148.477 43.8441 149.405C43.7352 151.074 43.6227 152.801 42.4363 154.06C41.2426 155.323 39.4793 155.526 38.1223 155.515L38.1368 156.074L37.5381 155.69L37.3821 155.922ZM248.029 23.2103V236.074C248.029 238.708 245.885 240.853 243.251 240.853H136.953C136.474 241.767 135.933 242.59 135.324 243.276C134.174 244.579 132.864 245.275 131.431 245.348C130.919 245.373 130.408 245.388 129.896 245.388C123.771 245.388 117.665 243.556 114.784 240.853H96.1348L96.1094 240.101H114.095C114.127 240.152 114.164 240.199 114.196 240.239C114.124 240.152 114.044 240.033 113.957 239.891L99.6506 218.807C99.5817 218.709 99.5635 218.582 99.6071 218.466L103.696 207.276C100.917 197.357 98.4896 188.308 97.7421 185.503C97.6151 185.445 97.4809 185.391 97.3394 185.34C95.7284 184.767 94.415 183.5 93.6132 182.383C93.6204 181.82 93.624 181.429 93.6313 180.917C94.0195 181.849 95.4672 183.874 97.5934 184.632C97.822 184.716 98.0251 184.803 98.2211 184.897C98.319 184.944 98.3916 185.035 98.4206 185.14C99.1136 187.738 101.595 196.994 104.44 207.153L115.713 228.357C115.811 228.538 115.742 228.767 115.561 228.865C115.503 228.894 115.441 228.908 115.383 228.908C115.249 228.908 115.118 228.836 115.053 228.709L104.153 208.213L100.376 218.546L114.588 239.488C114.661 239.604 114.719 239.695 114.77 239.757C117.346 242.815 124.646 244.952 131.394 244.597C132.614 244.535 133.749 243.922 134.761 242.779C138.35 238.73 139.689 228.767 139.398 224.562C139.137 220.774 118.87 191.911 106.936 175.453C106.925 175.435 106.914 175.417 106.904 175.395L101.661 164.528C101.65 164.506 101.643 164.481 101.635 164.455L99.4474 155.457C94.9556 152.874 87.6991 148.832 86.9299 148.741C86.3167 148.872 81.7995 154.162 81.6689 155.247C81.6652 155.29 81.6689 155.33 81.6689 155.374C82.2167 154.757 83.298 153.814 84.742 153.81C85.1665 153.81 85.8196 153.807 86.5816 153.803C86.7303 153.719 87.1584 153.404 87.3217 152.457C87.3435 152.326 87.4342 152.217 87.5576 152.17C87.6809 152.123 87.8188 152.141 87.924 152.225L89.9196 153.781C91.7591 153.767 93.3338 153.756 93.3338 153.756L93.3374 154.507C93.3374 154.507 89.3935 154.536 86.694 154.554C86.6831 154.554 86.6723 154.558 86.6614 154.558C86.6469 154.558 86.636 154.554 86.6251 154.554C85.845 154.558 85.1738 154.561 84.7456 154.561C83.2145 154.565 82.1224 155.98 81.9265 156.252C82.0426 156.448 82.1587 156.568 82.1587 156.571C82.2204 156.633 82.2566 156.713 82.2675 156.8L82.6412 160.555L82.6775 160.914C83.1927 160.526 84.118 159.978 85.5185 159.644C85.0214 159.325 84.5207 158.81 84.1361 157.972C84.049 157.783 84.1325 157.562 84.3211 157.475C84.5062 157.388 84.7311 157.471 84.8182 157.66C85.5511 159.256 86.7485 159.394 87.2056 159.387C87.2818 159.38 87.3544 159.369 87.4342 159.365C90.9427 159.158 92.4521 159.1 92.4666 159.097C92.6698 159.089 92.8476 159.253 92.8548 159.459C92.8621 159.666 92.7025 159.84 92.4956 159.848C92.4811 159.848 90.9827 159.909 87.4923 160.112C87.4632 160.12 87.4052 160.123 87.329 160.127C84.3937 160.341 83.0004 161.593 82.7719 161.825L82.8227 162.358L82.8662 162.786C82.8735 162.859 82.8589 162.932 82.8263 162.997C82.819 163.008 82.2312 164.187 82.6666 165.225C83.0077 166.034 84.3864 166.215 84.8908 166.215C85.0069 166.215 85.1194 166.273 85.1883 166.368C85.2609 166.462 85.2826 166.585 85.25 166.698L84.4989 169.227C84.5171 169.539 84.5497 169.865 84.586 170.181L90.6561 169.876C90.7359 169.876 90.8012 169.891 90.8665 169.931L93.4354 171.447C93.4717 171.473 93.497 171.509 93.5261 171.542C93.1161 171.578 92.7097 171.614 92.2997 171.65L90.5799 170.634L55.6251 172.383L54.3588 175.337C54.2935 175.337 54.2282 175.333 54.1629 175.333L54.054 196.682C55.0954 196.678 56.5322 196.74 56.7825 198.249C57.1018 200.161 56.5176 201.108 55.9698 201.562C55.8573 201.656 55.5562 201.936 55.1316 202.335C58.0996 199.929 60.7228 197.886 61.1437 197.825C61.238 197.814 61.3505 197.792 61.4739 197.767C62.4499 197.578 64.4853 197.193 65.1965 199.091C65.9875 201.203 65.3198 202.24 64.6522 202.908C64.5615 202.999 64.293 203.245 63.8939 203.608C65.523 202.454 66.6877 201.794 67.0469 201.957C67.671 202.233 68.7631 202.846 69.0679 203.833C69.2348 204.363 69.1441 204.911 68.8066 205.459C68.4402 206.057 67.0505 207.545 64.6776 209.882C64.6377 209.925 64.5942 209.969 64.5507 210.009C64.9788 209.798 65.1384 209.823 65.2509 209.842C65.4069 209.863 65.5375 209.947 65.6174 210.074C66.1906 210.995 66.6841 211.786 65.465 213.147C65.1783 213.463 64.7466 214.043 64.2495 214.711C63.0159 216.369 61.3396 218.622 59.9899 219.435C59.4674 220.324 55.4255 227.159 54.66 228.161C53.8908 229.166 52.3814 231.092 50.8285 232.751L37.7195 265.568C35.2233 270.913 29.8208 274.352 23.943 274.352C16.1639 274.352 8.91828 268.522 7.78988 261.36C5.18115 244.742 3.46135 225.675 3.50851 224.95C3.52303 224.765 3.66816 224.616 3.8532 224.598L27.2701 222.642C27.3753 222.631 27.4769 222.668 27.5531 222.737C27.6293 222.805 27.6728 222.903 27.6765 223.009L28.0937 238.08L34.9512 227.497L37.0048 218.793L36.417 212.987C36.2973 211.834 36.7472 210.683 37.6179 209.914C49.4207 199.497 52.4286 197.281 53.303 196.809L53.4118 175.293C53.332 175.286 53.2522 175.282 53.176 175.271L52.7116 172.623L19.0158 165.682L16.1567 167.848L16.2329 167.895C16.2184 167.891 16.2039 167.888 16.1893 167.884C16.1893 167.884 15.6814 167.786 15.1734 167.688C15.1952 167.652 15.217 167.616 15.2496 167.59L18.6965 164.982C18.7836 164.916 18.8924 164.891 18.9976 164.913L53.1107 171.941C53.2631 171.97 53.3792 172.089 53.4046 172.242L53.8291 174.658L55.0264 171.872C55.0845 171.737 55.2115 171.65 55.353 171.643L83.8277 170.217C83.7842 169.789 83.7551 169.419 83.7442 169.201C83.7406 169.158 83.7442 169.114 83.7588 169.071L84.3937 166.93C83.6826 166.843 82.409 166.549 81.9736 165.515C81.4802 164.343 81.9446 163.12 82.1079 162.757L82.0353 162.032L81.9591 161.266L81.7378 159.064L81.6507 158.189C81.6398 158.189 81.6326 158.189 81.6253 158.189C81.1936 158.189 80.6711 158.306 80.2067 158.745C79.198 159.688 79.354 160.755 79.6697 161.763C79.8438 162.322 80.1015 162.649 80.2937 162.834L79.7495 163.349C79.481 163.084 79.1581 162.656 78.9513 161.988C78.603 160.874 78.3708 159.434 79.6915 158.197C80.2103 157.711 80.867 157.464 81.5782 157.453L81.531 156.992C81.3169 156.738 80.838 156.056 80.9178 155.174C81.0049 154.224 85.6817 147.987 86.9408 147.987C87.2891 147.987 88.7222 148.676 90.5364 149.634V141.191C90.7686 141.59 90.9972 141.986 91.2294 142.385C91.2475 142.377 91.2693 142.37 91.2874 142.367V150.029C94.4041 151.698 98.3045 153.926 99.9626 154.88C100.053 154.931 100.115 155.018 100.14 155.12L102.357 164.234L107.564 175.036C110.96 179.716 139.808 219.642 140.146 224.507C140.349 227.45 139.71 234.935 137.319 240.098H243.247C245.467 240.098 247.274 238.291 247.274 236.07V23.2103C247.274 20.9898 245.467 19.1793 243.247 19.1793H199.385V18.4282H243.247C245.885 18.4282 248.029 20.5725 248.029 23.2103ZM53.9017 197.433H53.6767C52.9873 197.64 46.8592 202.763 38.115 210.48C37.4256 211.09 37.0701 212 37.1644 212.915L37.7595 218.782C37.7631 218.825 37.7595 218.865 37.7522 218.905L35.6696 227.736C35.6587 227.78 35.6442 227.82 35.6188 227.856L28.0683 239.503C27.9776 239.641 27.8107 239.706 27.6511 239.662C27.4951 239.619 27.3826 239.474 27.379 239.31L26.9399 223.426L4.27045 225.32C4.4301 228.012 6.10273 245.762 8.53731 261.243C9.60402 268.057 16.5195 273.601 23.943 273.601C29.5305 273.601 34.6682 270.329 37.0302 265.271L50.1573 232.406C50.1754 232.362 50.2008 232.322 50.2335 232.286C51.7791 230.643 53.2957 228.712 54.0613 227.707C54.8378 226.691 59.3477 219.05 59.3912 218.97C59.4275 218.916 59.4747 218.869 59.5327 218.836C60.7555 218.147 62.4281 215.901 63.6472 214.264C64.1552 213.579 64.5978 212.987 64.9062 212.643C65.7044 211.754 65.5448 211.384 65.0622 210.607C64.743 210.712 63.571 211.326 59.5727 214.751C59.4166 214.885 59.1808 214.867 59.0466 214.711C58.9123 214.555 58.9268 214.319 59.0792 214.185L59.696 213.64C59.7105 213.626 61.9709 211.496 64.1515 209.348C67.0542 206.489 67.9358 205.441 68.168 205.063C68.3894 204.704 68.4511 204.374 68.3531 204.055C68.1354 203.354 67.2247 202.864 66.7929 202.665C65.7335 202.846 58.7599 208.423 52.668 213.637C52.512 213.771 52.2762 213.757 52.1419 213.597C52.0041 213.444 52.0222 213.209 52.1746 213.071C52.2871 212.969 63.4549 203.042 64.1225 202.375C64.6885 201.809 65.1276 201.05 64.4926 199.356C64.0391 198.151 62.8236 198.275 61.6154 198.507C61.4739 198.532 61.3505 198.554 61.2489 198.569C60.5196 198.837 52.6572 205.303 47.8787 209.308C47.7263 209.439 47.4941 209.424 47.3599 209.272C47.222 209.123 47.2329 208.895 47.378 208.753C47.6792 208.459 54.8015 201.558 55.4872 200.985C56.2056 200.386 56.1838 199.236 56.0387 198.373C55.8936 197.487 55.0772 197.422 53.9017 197.433ZM87.6156 153.796C87.9712 153.792 88.3413 153.792 88.7077 153.788L87.9168 153.172C87.8297 153.422 87.7245 153.625 87.6156 153.796ZM78.534 117.752C77.8846 116.936 77.3875 117.266 77.0682 117.727C76.7525 118.184 76.6292 118.743 76.6473 119.298C76.6691 120.045 76.8541 121.094 77.714 121.098C79.0492 121.101 79.2923 118.714 78.534 117.752ZM66.851 128.227C66.6587 128.147 66.441 128.245 66.3648 128.438C66.2886 128.63 66.3829 128.848 66.5752 128.924C66.6659 128.96 67.9467 129.454 69.4561 129.454C70.5518 129.454 71.7637 129.196 72.7433 128.321C75.0581 126.246 70.1636 114.316 69.5976 112.963C69.5178 112.771 69.2964 112.68 69.1078 112.76C68.9155 112.84 68.8248 113.061 68.9046 113.25C70.9618 118.173 73.6867 126.467 72.239 127.763C70.2579 129.537 66.8873 128.238 66.851 128.227ZM64.5761 134.809C64.6123 134.831 67.0614 136.257 70.189 136.257C71.7455 136.257 73.4726 135.901 75.1561 134.841C75.3303 134.733 75.3847 134.5 75.2722 134.323C75.1634 134.148 74.9312 134.098 74.7534 134.207C70.0983 137.145 65.0114 134.192 64.9606 134.163C64.7829 134.058 64.5543 134.116 64.4454 134.294C64.3402 134.471 64.3983 134.7 64.5761 134.809ZM61.6625 117.832C60.9949 118.859 61.4557 121.214 62.7837 121.087C63.64 121.003 63.727 119.94 63.6835 119.196C63.6472 118.645 63.4731 118.097 63.1175 117.672C62.7583 117.241 62.2322 116.958 61.6625 117.832ZM65.1094 112.956C65.1965 112.767 65.1167 112.546 64.928 112.455C64.7937 112.393 61.5718 110.917 57.998 112.985C57.8166 113.09 57.7549 113.322 57.8601 113.5C57.929 113.62 58.056 113.689 58.1867 113.689C58.2483 113.689 58.3136 113.67 58.3753 113.638C61.5972 111.769 64.5797 113.123 64.6087 113.137C64.7974 113.221 65.0187 113.141 65.1094 112.956ZM92.2562 162.645C92.238 162.649 90.2897 163.215 88.1381 163.628C85.8486 164.067 84.9851 164.971 84.9488 165.007C84.8073 165.159 84.8182 165.392 84.967 165.537C85.0395 165.606 85.1339 165.638 85.2246 165.638C85.3225 165.638 85.4205 165.598 85.4967 165.522C85.504 165.515 86.2623 164.753 88.2796 164.365C90.4674 163.948 92.4485 163.371 92.4666 163.363C92.6662 163.305 92.7823 163.099 92.7242 162.899C92.6662 162.699 92.4557 162.583 92.2562 162.645ZM91.2911 127.755V122.65C90.8448 123.815 90.5037 124.991 90.6851 126.159C90.7722 126.74 90.9899 127.269 91.2911 127.755ZM91.2911 23.2103C91.2911 20.9898 93.1016 19.1793 95.3221 19.1793H139.181V18.4282H95.3221C92.6843 18.4282 90.54 20.5725 90.54 23.2103V114.853C90.8049 114.998 91.0588 115.158 91.2911 115.34V23.2103Z" fill="black"/>
</g>
</svg>
